<svg width="8" height="8" viewBox="0 0 8 8" fill="none" xmlns="http://www.w3.org/2000/svg">
<path d="M0.71962 4.31686C0.74313 4.31676 0.76647 4.32136 0.7882 4.33036C0.80992 4.33936 0.82968 4.35256 0.84622 4.36926C0.86276 4.38606 0.87581 4.40586 0.88458 4.42776C0.89335 4.44956 0.89758 4.47286 0.89721 4.49636L0.89825 4.97746C0.89788 5.00096 0.90211 5.02426 0.91088 5.04606C0.91965 5.06796 0.9327 5.08776 0.94924 5.10446C0.96578 5.12126 0.98554 5.13446 1.00727 5.14346C1.02899 5.15246 1.05234 5.15706 1.07585 5.15696L1.57015 5.17416C1.61736 5.17476 1.66248 5.19396 1.69569 5.22756C1.7289 5.26106 1.74755 5.30636 1.74775 5.35356L1.74825 5.84516C1.74788 5.86876 1.75228 5.89216 1.76105 5.91396C1.76982 5.93576 1.78287 5.95556 1.79941 5.97226C1.81595 5.98896 1.83572 6.00226 1.85744 6.01126C1.87916 6.02026 1.90234 6.02476 1.92585 6.02466L2.37146 6.02246C2.39497 6.02236 2.41815 6.02696 2.43987 6.03596C2.46159 6.04496 2.48135 6.05816 2.49789 6.07486C2.51443 6.09156 2.52748 6.11146 2.53625 6.13326C2.54503 6.15516 2.54942 6.17846 2.54906 6.20196L2.53332 6.65416C2.53344 6.67786 2.52883 6.70136 2.51987 6.72326C2.51091 6.74516 2.49773 6.76516 2.48106 6.78206C2.46438 6.79886 2.44457 6.81216 2.42272 6.82136C2.40087 6.83046 2.37739 6.83526 2.3537 6.83536L1.86285 6.81826C1.83916 6.81836 1.81585 6.82316 1.794 6.83226C1.77215 6.84146 1.75234 6.85476 1.73567 6.87156C1.71899 6.88846 1.70581 6.90846 1.69685 6.93036C1.68789 6.95226 1.68328 6.97576 1.6834 6.99946L1.6839 7.49106C1.68353 7.51456 1.68793 7.53796 1.6967 7.55986C1.70547 7.58166 1.71852 7.60156 1.73506 7.61826C1.7516 7.63496 1.77136 7.64816 1.79309 7.65716C1.81481 7.66616 1.83798 7.67076 1.86149 7.67066L7.49674 7.66866C7.52034 7.66906 7.54374 7.66476 7.56554 7.65596C7.58744 7.64716 7.60714 7.63406 7.62384 7.61756C7.64064 7.60096 7.65384 7.58126 7.66284 7.55946C7.67184 7.53776 7.67644 7.51446 7.67624 7.49096L7.67484 1.94526C7.67474 1.92206 7.67004 1.89906 7.66104 1.87756C7.65204 1.85616 7.63894 1.83676 7.62244 1.82036C7.60594 1.80406 7.58644 1.79116 7.56494 1.78236C7.54344 1.77366 7.52044 1.76909 7.49714 1.76923L7.00634 1.75215C6.98264 1.75224 6.95914 1.757 6.93734 1.76615C6.91544 1.77536 6.89564 1.78876 6.87894 1.80556C6.86224 1.82236 6.84914 1.84226 6.84014 1.86426C6.83114 1.88616 6.82654 1.90966 6.82674 1.93336L6.82734 2.42506C6.82754 2.44856 6.82294 2.47186 6.81394 2.49356C6.80494 2.51526 6.79164 2.53506 6.77494 2.55166C6.75824 2.56816 6.73834 2.58116 6.71654 2.58996C6.69464 2.59866 6.67134 2.60306 6.64784 2.60276L6.16064 2.58576C6.13714 2.58586 6.11374 2.58136 6.09204 2.57236C6.07034 2.56336 6.05074 2.55006 6.03424 2.53336C6.01764 2.51666 6.00464 2.49676 5.99584 2.47496C5.98704 2.45316 5.98264 2.42976 5.98304 2.40626L5.98254 1.91456C5.98234 1.86736 5.96354 1.82206 5.93034 1.78856C5.89714 1.75497 5.85214 1.73581 5.80494 1.73513L5.30985 1.7356C5.28634 1.73573 5.26316 1.73117 5.24144 1.72217C5.21972 1.71317 5.19995 1.69991 5.18341 1.68319C5.16687 1.66648 5.15382 1.6466 5.14505 1.62478C5.13628 1.60296 5.13206 1.57965 5.13242 1.55613L5.13175 1.06453C5.13212 1.04101 5.1279 1.01761 5.11912 0.99579C5.11035 0.97396 5.0973 0.95409 5.08076 0.93738C5.06422 0.92066 5.04446 0.9074 5.02274 0.8984C5.00101 0.8894 4.97767 0.88483 4.95416 0.88496L4.45985 0.867761C4.43634 0.867891 4.41299 0.863321 4.39127 0.854321C4.36955 0.845321 4.34995 0.83215 4.33341 0.81544C4.31687 0.79872 4.30382 0.77885 4.29505 0.75703C4.28628 0.73521 4.28189 0.7118 4.28225 0.68828L4.28175 0.196691C4.28212 0.173171 4.27772 0.14985 4.26895 0.12803C4.26018 0.10621 4.24713 0.0863301 4.23059 0.0696201C4.21405 0.0529001 4.19429 0.0396406 4.17256 0.0306406C4.15084 0.0216406 4.12767 0.01708 4.10416 0.01721L3.60968 0C3.58645 0.0001 3.56363 0.00481062 3.54222 0.0138006C3.52081 0.0228006 3.50128 0.0358801 3.48495 0.0523901C3.46861 0.0689101 3.45563 0.0885307 3.44686 0.110041C3.4381 0.131561 3.43366 0.15457 3.4338 0.1778L3.43313 1.52178C3.43325 1.5453 3.42869 1.56857 3.41969 1.5903C3.4107 1.61203 3.39745 1.63172 3.38074 1.64827C3.36403 1.66481 3.34408 1.67787 3.32226 1.68664C3.30045 1.69542 3.27714 1.69982 3.25363 1.69945L1.9102 1.70218C1.88669 1.70181 1.86321 1.70612 1.8414 1.7149C1.81958 1.72367 1.79981 1.73673 1.7831 1.75328C1.76639 1.76983 1.75313 1.78956 1.74414 1.81136C1.73514 1.83306 1.73058 1.85636 1.7307 1.87986L1.73334 2.31496L1.72609 2.52346L1.71884 2.73176L1.71934 3.22346C1.71946 3.24696 1.7149 3.27026 1.7059 3.29196C1.69691 3.31376 1.68365 3.33346 1.66694 3.35006C1.65023 3.36656 1.63046 3.37956 1.60865 3.38836C1.58683 3.39706 1.56335 3.40146 1.53984 3.40116L0.19641 3.40386C0.1729 3.40346 0.14959 3.40776 0.12778 3.41656C0.10597 3.42536 0.0860197 3.43846 0.0693097 3.45496C0.0525997 3.47146 0.03951 3.49126 0.03052 3.51306C0.02153 3.53476 0.0169598 3.55806 0.0170898 3.58156L0 4.07256C0.0002 4.11976 0.0188497 4.16506 0.0520597 4.19856C0.0852696 4.23216 0.13039 4.25136 0.1776 4.25206L0.71962 4.31686Z" fill="black"/>
</svg>
