<svg width="8" height="8" viewBox="0 0 8 8" fill="none" xmlns="http://www.w3.org/2000/svg">
<path d="M6.95666 3.35375C6.93315 3.35388 6.90981 3.34931 6.88808 3.34031C6.86636 3.33132 6.8466 3.31805 6.83006 3.30134C6.81352 3.28462 6.80047 3.26475 6.7917 3.24293C6.78293 3.22111 6.7787 3.19779 6.77907 3.17427L6.77803 2.6932C6.7784 2.66968 6.77417 2.64636 6.7654 2.62454C6.75663 2.60272 6.74358 2.58285 6.72704 2.56613C6.7105 2.54941 6.69074 2.53615 6.66901 2.52715C6.64729 2.51816 6.62394 2.51359 6.60043 2.51372L6.10613 2.49652C6.05892 2.49584 6.0138 2.47667 5.98059 2.4431C5.94738 2.40954 5.92873 2.36426 5.92853 2.31704L5.92803 1.82544C5.9284 1.80192 5.924 1.77852 5.91523 1.7567C5.90646 1.73487 5.89341 1.71509 5.87687 1.69837C5.86033 1.68166 5.84056 1.66839 5.81884 1.6594C5.79712 1.6504 5.77394 1.64583 5.75043 1.64596L5.30482 1.64816C5.28131 1.64829 5.25813 1.64372 5.23641 1.63472C5.21469 1.62573 5.19493 1.61246 5.17839 1.59575C5.16185 1.57903 5.1488 1.55916 5.14003 1.53734C5.13125 1.51552 5.12686 1.4922 5.12722 1.46868L5.14296 1.01651C5.14284 0.992813 5.14745 0.969313 5.15641 0.947383C5.16537 0.925443 5.17855 0.905463 5.19522 0.888633C5.2119 0.871803 5.23171 0.858463 5.25356 0.849303C5.2754 0.840143 5.29889 0.835383 5.32258 0.835303L5.81343 0.852383C5.83712 0.852293 5.86043 0.847523 5.88228 0.838373C5.90413 0.829213 5.92394 0.815873 5.94061 0.799043C5.95729 0.782213 5.97047 0.762223 5.97943 0.740293C5.98839 0.718353 5.993 0.694863 5.99288 0.671163L5.99238 0.179573C5.99275 0.156053 5.98835 0.132643 5.97958 0.110823C5.97081 0.0890028 5.95776 0.0691326 5.94122 0.0524126C5.92468 0.0356926 5.90492 0.0224326 5.88319 0.0134326C5.86147 0.00444258 5.8383 -0.000127302 5.81479 2.69762e-06L0.179503 0.00199278C0.155993 0.00162278 0.132513 0.00593263 0.110693 0.0147026C0.0888826 0.0234826 0.0691026 0.0365426 0.0523926 0.0530926C0.0356826 0.0696326 0.0224326 0.0894027 0.0134326 0.111143C0.00444258 0.132873 -0.000127302 0.156143 2.69762e-06 0.179663L0.00139268 5.72538C0.00150268 5.74861 0.00628269 5.77162 0.0152727 5.79304C0.0242627 5.81446 0.0373426 5.83391 0.0538426 5.85025C0.0703526 5.86659 0.0898826 5.87949 0.111383 5.88826C0.132893 5.89703 0.155893 5.90155 0.179113 5.90141L0.669973 5.91849C0.693663 5.9184 0.717143 5.91364 0.738993 5.90449C0.760833 5.89533 0.780653 5.8819 0.797323 5.86507C0.814003 5.84824 0.827173 5.82834 0.836133 5.80641C0.845093 5.78447 0.849713 5.76098 0.849593 5.73728L0.848923 5.24559C0.848793 5.22207 0.853353 5.1988 0.862353 5.17707C0.871343 5.15534 0.884603 5.13557 0.901313 5.11902C0.918023 5.10247 0.937973 5.0895 0.959783 5.08073C0.981593 5.07195 1.0049 5.06755 1.02841 5.06792L1.51565 5.08487C1.53916 5.08475 1.56251 5.08932 1.58423 5.09831C1.60595 5.10731 1.62554 5.12057 1.64208 5.13728C1.65862 5.154 1.67167 5.17387 1.68044 5.19569C1.68921 5.21752 1.69361 5.24083 1.69324 5.26435L1.69374 5.75603C1.69394 5.80326 1.71277 5.84854 1.74598 5.8821C1.77919 5.91567 1.82414 5.93483 1.87134 5.93551L2.36643 5.93504C2.38994 5.93491 2.41312 5.93948 2.43484 5.94847C2.45656 5.95747 2.47633 5.97073 2.49287 5.98745C2.50941 6.00416 2.52246 6.02404 2.53123 6.04586C2.54 6.06768 2.54422 6.09099 2.54386 6.11451L2.54453 6.60611C2.54416 6.62963 2.54838 6.65303 2.55716 6.67485C2.56593 6.69668 2.57898 6.71655 2.59552 6.73326C2.61206 6.74998 2.63182 6.76324 2.65354 6.77224C2.67527 6.78124 2.69861 6.78581 2.72212 6.78568L3.21643 6.80288C3.23994 6.80275 3.26329 6.80732 3.28501 6.81632C3.30673 6.82532 3.32633 6.83849 3.34287 6.8552C3.35941 6.87192 3.37246 6.89179 3.38123 6.91361C3.39 6.93543 3.39439 6.95884 3.39403 6.98236L3.39453 7.47395C3.39416 7.49747 3.39856 7.52079 3.40733 7.54261C3.4161 7.56444 3.42915 7.58431 3.44569 7.60102C3.46223 7.61774 3.48199 7.631 3.50371 7.64C3.52544 7.649 3.54861 7.65356 3.57212 7.65343L4.0666 7.67064C4.08982 7.67054 4.11265 7.66583 4.13406 7.65684C4.15547 7.64785 4.175 7.63476 4.19133 7.61825C4.20767 7.60174 4.22065 7.58211 4.22942 7.5606C4.23818 7.53908 4.24261 7.51607 4.24248 7.49284L4.24315 6.14886C4.24303 6.12534 4.24759 6.10207 4.25659 6.08034C4.26558 6.05861 4.27883 6.03892 4.29554 6.02237C4.31225 6.00583 4.3322 5.99277 4.35402 5.984C4.37583 5.97522 4.39914 5.97082 4.42265 5.97119L5.76608 5.96846C5.78959 5.96883 5.81307 5.96452 5.83488 5.95574C5.8567 5.94697 5.87647 5.93391 5.89318 5.91736C5.90989 5.90081 5.92315 5.88104 5.93214 5.85931C5.94114 5.83758 5.9457 5.81431 5.94558 5.79079L5.94294 5.35567L5.95019 5.14723L5.95744 4.93886L5.95694 4.44718C5.95682 4.42366 5.96138 4.40039 5.97037 4.37866C5.97937 4.35693 5.99263 4.33715 6.00934 4.32061C6.02605 4.30406 6.04582 4.29109 6.06763 4.28231C6.08945 4.27353 6.11293 4.26914 6.13644 4.26951L7.47984 4.26678C7.50334 4.26715 7.52664 4.26283 7.54854 4.25406C7.57034 4.24528 7.59024 4.23223 7.60694 4.21568C7.62364 4.19913 7.63674 4.17936 7.64574 4.15762C7.65474 4.13589 7.65934 4.11262 7.65924 4.0891L7.67624 3.59812C7.67604 3.55089 7.65744 3.50562 7.62424 3.47205C7.59104 3.43849 7.54584 3.41923 7.49864 3.41855L6.95666 3.35375Z" fill="black"/>
</svg>
