<?xml version="1.0" encoding="utf-8"?>
<!DOCTYPE svg PUBLIC "-//W3C//DTD SVG 1.1//EN" "http://www.w3.org/Graphics/SVG/1.1/DTD/svg11.dtd">
<svg version="1.1" id="Layer_1" xmlns="http://www.w3.org/2000/svg" xmlns:xlink="http://www.w3.org/1999/xlink" x="0px" y="0px"
	 width="38px" height="38px" viewBox="-1.5 20 38 38" enable-background="new -1.5 20 38 38" xml:space="preserve">
<g>
	<g id="squid_1_">
		<path fill="#EEFE65" stroke="#000000" stroke-width="2" stroke-miterlimit="10" d="M25.633,21.613
			c-2.485-1.159-22.407,6.941-23.192,11.301c-0.359,2.004,4.884,4.828,4.884,4.828s-0.026,4.743-1.484,6.434
			c-0.567,0.655-4.062,2.303-1.465,6.378c0,0,2.688-0.342,4.043-2.951c-0.145,0.268-1.985,3.787-0.052,5.75
			c0.001,0,2.224,0.512,4.12-3.55c-1.891,4.063-0.07,5.438-0.069,5.439c2.748,0.22,4.259-3.452,4.372-3.735
			c-1.128,2.716,0.339,4.994,0.339,4.994c4.791-0.632,3.807-4.366,3.944-5.223c0.356-2.204,3.975-5.272,3.975-5.272
			s5.532,2.202,6.837,0.636C34.718,43.239,28.117,22.771,25.633,21.613"/>
		<path d="M18.829,46.577c-2.544-1.186-2.284-2.358-3.479-2.915c-1.192-0.557-1.925,0.396-4.47-0.789
			c-2.679-1.25-3.672-4.792-2.217-7.913c1.369-2.935,4.586-5.038,8.25-2.926c1.848,1.061,1.978,2.107,2.717,2.451
			c0.738,0.345,1.624-0.227,3.624,0.505c3.973,1.451,4.431,5.265,3.063,8.201C24.862,46.312,21.51,47.828,18.829,46.577"/>
		<path fill="#EEFE65" d="M18.829,46.577c-2.544-1.186-2.284-2.358-3.479-2.915c-1.192-0.557-1.925,0.396-4.47-0.789
			c-2.679-1.25-3.672-4.792-2.217-7.913c1.369-2.935,4.586-5.038,8.25-2.926c1.848,1.061,1.978,2.107,2.717,2.451
			c0.738,0.345,1.624-0.227,3.624,0.505c3.973,1.451,4.431,5.265,3.063,8.201C24.862,46.312,21.51,47.828,18.829,46.577
			 M25.633,21.613c-2.485-1.159-22.407,6.941-23.192,11.301c-0.359,2.004,4.884,4.828,4.884,4.828s-0.026,4.743-1.484,6.434
			c-0.567,0.655-4.062,2.303-1.465,6.378c0,0,2.688-0.342,4.043-2.951c-0.145,0.268-1.985,3.787-0.052,5.75
			c0.001,0,2.224,0.512,4.12-3.55c-1.891,4.063-0.07,5.438-0.069,5.439c2.748,0.22,4.259-3.452,4.372-3.735
			c-1.128,2.716,0.339,4.994,0.339,4.994c4.791-0.632,3.807-4.366,3.944-5.223c0.356-2.204,3.975-5.272,3.975-5.272
			s5.532,2.202,6.837,0.636C34.718,43.239,28.117,22.771,25.633,21.613"/>
		<path fill="#FFFFFF" d="M20.723,41.076c-1.355-0.63-1.969-2.186-1.367-3.472c0.599-1.286,2.185-1.817,3.538-1.187
			c1.356,0.633,1.968,2.188,1.367,3.474C23.661,41.177,22.078,41.71,20.723,41.076 M13.88,37.886
			c-1.356-0.632-1.968-2.186-1.368-3.473c0.6-1.286,2.185-1.816,3.54-1.186c1.354,0.632,1.967,2.187,1.367,3.473
			C16.818,37.988,15.234,38.518,13.88,37.886 M23.535,35.871c-1.647-0.769-3.557-0.393-4.924,0.799
			c0.033-1.813-0.904-3.518-2.554-4.286c-2.289-1.066-5.081,0.071-6.231,2.54c-1.152,2.471-0.229,5.339,2.061,6.405
			c1.648,0.768,3.555,0.394,4.922-0.799c-0.032,1.814,0.906,3.517,2.556,4.286c2.289,1.068,5.08-0.067,6.231-2.539
			C26.747,39.809,25.825,36.939,23.535,35.871"/>
	</g>
</g>
</svg>
