<?xml version="1.0" encoding="UTF-8" standalone="no"?>
<!DOCTYPE svg PUBLIC "-//W3C//DTD SVG 1.1//EN" "http://www.w3.org/Graphics/SVG/1.1/DTD/svg11.dtd">
<svg width="100%" height="100%" viewBox="0 0 558 558" version="1.1" xmlns="http://www.w3.org/2000/svg" xmlns:xlink="http://www.w3.org/1999/xlink" xml:space="preserve" xmlns:serif="http://www.serif.com/" style="fill-rule:evenodd;clip-rule:evenodd;stroke-linejoin:round;stroke-miterlimit:2;">
    <g id="Linies" transform="matrix(1,0,0,1,18.9325,-92.1142)">
        <g id="path9722" transform="matrix(0.264583,0,0,0.264583,-18.9325,92.1142)">
            <path d="M513.442,779.915C494.829,815.561 465.652,844.603 429.919,863.05L888.446,1323.36L998.991,1267.34L513.442,779.915ZM1118.25,1387.06L1007.71,1443.08L1240.04,1676.33C1258.66,1640.67 1287.84,1611.63 1323.58,1593.18L1118.25,1387.06Z" style="fill:white;fill-rule:nonzero;"/>
        </g>
        <g id="path9729" transform="matrix(0.264583,0,0,0.264583,-18.9325,92.1142)">
            <path d="M1648.76,962.052L1389.18,1093.61L1408.32,1216.04L1702.03,1067.18C1673.87,1038.46 1655.27,1001.74 1648.76,962.052ZM1238.48,1169.98L624.707,1481.04C652.867,1509.75 671.478,1546.48 677.984,1586.17L1257.62,1292.41L1238.48,1169.98Z" style="fill:white;fill-rule:nonzero;"/>
        </g>
        <g id="path9713" transform="matrix(0.264583,0,0,0.264583,-18.9325,92.1142)">
            <path d="M1041.1,403.76L744.93,981.945L832.373,1069.72L1145.95,457.563C1106.3,450.855 1069.67,432.06 1041.1,403.76ZM667.902,1132.33L517.888,1425.18C557.535,1431.89 594.16,1450.69 622.731,1478.98L755.339,1220.1L667.902,1132.33Z" style="fill:white;fill-rule:nonzero;"/>
        </g>
        <g id="path1015" transform="matrix(0.264583,0,0,0.264583,-18.9325,92.1142)">
            <path d="M427.373,864.334C397.167,879.456 363.549,886.484 329.815,884.731C323.503,884.379 317.212,883.721 310.964,882.76L398.561,1443.06C428.767,1427.94 462.385,1420.91 496.118,1422.66C502.427,1423.02 508.714,1423.67 514.959,1424.64L427.373,864.334Z" style="fill:white;fill-rule:nonzero;"/>
        </g>
        <g id="path1674" transform="matrix(0.264583,0,0,0.264583,-18.9325,92.1142)">
            <path d="M678.449,1588.95C680.454,1601.96 681.139,1615.13 680.492,1628.28C678.998,1655.11 671.984,1681.34 659.891,1705.33L1220.1,1795.22C1218.09,1782.21 1217.41,1769.03 1218.05,1755.88C1219.55,1729.06 1226.56,1702.83 1238.66,1678.84L678.449,1588.95Z" style="fill:white;fill-rule:nonzero;"/>
        </g>
        <g id="path1676" transform="matrix(0.264583,0,0,0.264583,-18.9325,92.1142)">
            <path d="M1704,1069.23L1445.43,1574.03C1485.08,1580.73 1521.72,1599.53 1550.29,1627.83L1808.86,1123.04C1769.2,1116.33 1732.57,1097.53 1704,1069.23Z" style="fill:white;fill-rule:nonzero;"/>
        </g>
        <g id="path1678" transform="matrix(0.264583,0,0,0.264583,-18.9325,92.1142)">
            <path d="M1351.34,355.266C1332.72,390.919 1303.54,419.965 1267.8,438.412L1668.24,840.395C1686.85,804.743 1716.03,775.697 1751.77,757.249L1351.34,355.266Z" style="fill:white;fill-rule:nonzero;"/>
        </g>
        <g id="path1680" transform="matrix(0.264583,0,0,0.264583,-18.9325,92.1142)">
            <path d="M985.853,296.591L479.653,553.121C507.808,581.837 526.418,618.561 532.924,658.247L1039.12,401.706C1010.97,372.992 992.36,336.273 985.853,296.591Z" style="fill:white;fill-rule:nonzero;"/>
        </g>
        <g id="path9758" transform="matrix(0.264583,0,0,0.264583,-18.9325,92.1142)">
            <path d="M1266.88,438.877C1236.27,454.555 1202.06,461.872 1167.71,460.087C1161.99,459.74 1156.29,459.142 1150.62,458.294L1195.46,745.418L1317.81,765.05L1266.88,438.877ZM1221.52,912.341L1327.54,1591.19C1357.38,1576.55 1390.48,1569.78 1423.67,1571.51C1430.52,1571.89 1437.34,1572.64 1444.1,1573.75L1343.88,931.967L1221.52,912.341Z" style="fill:white;fill-rule:nonzero;"/>
        </g>
        <g id="path9760" transform="matrix(0.264583,0,0,0.264583,-18.9325,92.1142)">
            <path d="M533.284,660.4C535.367,673.611 536.086,687 535.432,700.357C533.958,726.969 527.05,753 515.136,776.842L802.482,822.994L858.959,712.703L533.284,660.4ZM1025.77,739.488L969.283,849.79L1648.22,958.83C1646.27,945.965 1645.61,932.938 1646.25,919.942C1647.76,892.961 1654.85,866.586 1667.08,842.488L1025.77,739.488Z" style="fill:white;fill-rule:nonzero;"/>
        </g>
    </g>
    <g id="Nodes" transform="matrix(1,0,0,1,18.9325,-92.1142)">
        <g id="path817" transform="matrix(0.99852,0.0543893,-0.0543893,0.99852,0,0)">
            <circle cx="301.226" cy="146.085" r="46.972" style="fill:white;fill-opacity:0.99;"/>
        </g>
        <g id="path819" transform="matrix(0.99852,0.0543893,-0.0543893,0.99852,0,0)">
            <circle cx="485.939" cy="312.359" r="46.972" style="fill:white;fill-opacity:0.99;"/>
        </g>
        <g id="path823" transform="matrix(0.99852,0.0543893,-0.0543893,0.99852,0,0)">
            <circle cx="384.842" cy="539.368" r="46.972" style="fill:white;fill-opacity:0.99;"/>
        </g>
        <g id="path825" transform="matrix(0.99852,0.0543893,-0.0543893,0.99852,0,0)">
            <circle cx="137.649" cy="513.393" r="46.972" style="fill:white;fill-opacity:0.99;"/>
        </g>
        <g id="path827" transform="matrix(0.99852,0.0543893,-0.0543893,0.99852,0,0)">
            <circle cx="85.971" cy="270.331" r="46.972" style="fill:white;fill-opacity:0.99;"/>
        </g>
    </g>
</svg>
