<svg width="19" height="17" viewBox="0 0 19 17" fill="none" xmlns="http://www.w3.org/2000/svg">
<path d="M8.23211 0.000908151C9.8898 -0.023374 11.5173 0.439776 12.9077 1.33141C14.298 2.22304 15.3883 3.50288 16.0398 5.00807C16.6912 6.51325 16.8745 8.17577 16.5662 9.78409C16.258 11.3924 15.4721 12.8738 14.3086 14.0399C13.1451 15.2059 11.6565 16.0039 10.0323 16.3323C8.40817 16.6607 6.72177 16.5046 5.1877 15.8839C3.65363 15.2632 2.34129 14.206 1.41754 12.8468C0.493788 11.4876 0.000427787 9.88777 0.000245359 8.25091C-0.00813334 7.17547 0.198156 6.10895 0.607357 5.11226C1.01656 4.11557 1.62064 3.20824 2.38508 2.44211C3.14953 1.67598 4.05936 1.06608 5.06262 0.647216C6.06587 0.228349 7.14287 0.00870838 8.23211 0.000908151V0.000908151Z" fill="#FFDC00"/>
<path d="M8.44189 0.00408936H10.4601C10.7525 0.010083 11.0442 0.0321092 11.3341 0.0700145H9.31594C9.02605 0.0321092 8.73425 0.010083 8.44189 0.00408936" fill="#FFC100"/>
<path d="M9.31592 0.0700073H11.3341C11.6106 0.107664 11.884 0.157867 12.151 0.220629H10.1327C9.86571 0.157867 9.59243 0.107664 9.31592 0.0700073Z" fill="#FFC300"/>
<path d="M10.1327 0.220642H12.151C12.4196 0.284751 12.6848 0.362254 12.9455 0.452858H10.9273C10.6667 0.361853 10.4028 0.286542 10.1327 0.220642Z" fill="#FFC500"/>
<path d="M10.9272 0.452881H12.9455C13.2188 0.54402 13.4871 0.648755 13.7497 0.766685H11.7314C11.4689 0.648755 11.2005 0.54402 10.9272 0.452881" fill="#FFC700"/>
<path d="M11.7314 0.782349H13.7497C14.0388 0.917719 14.319 1.07072 14.5888 1.24049H12.5706C12.3008 1.07072 12.0205 0.917719 11.7314 0.782349Z" fill="#FFCA00"/>
<path d="M12.5706 1.24048H14.5888C14.9241 1.45073 15.2428 1.68571 15.5423 1.9434H13.5241C13.2246 1.68571 12.9059 1.45073 12.5706 1.24048" fill="#FFCC00"/>
<path d="M13.5367 1.94342H15.5645C16.8982 3.07391 17.8377 4.59004 18.2502 6.27708H16.232C15.8195 4.59004 14.8799 3.07391 13.5462 1.94342" fill="#FFCE00"/>
<path d="M16.2224 6.2771H18.2406C18.3351 6.65896 18.4021 7.04699 18.4409 7.43821H16.4194C16.3817 7.04706 16.3158 6.65903 16.2224 6.2771" fill="#FFCC00"/>
<path d="M16.4194 7.43817H18.4409C18.4663 7.70491 18.479 7.97477 18.479 8.25092C18.479 8.30741 18.479 8.3639 18.479 8.42039H16.4608C16.4608 8.3639 16.4608 8.30741 16.4608 8.25092C16.4615 7.97947 16.4477 7.70818 16.4194 7.43817" fill="#FFCA00"/>
<path d="M16.4576 8.41412H18.4758C18.4722 8.70799 18.451 9.00141 18.4122 9.2928H16.394C16.4312 9.00126 16.4524 8.70793 16.4576 8.41412" fill="#FFC700"/>
<path d="M16.394 9.29901H18.425C18.391 9.57542 18.3422 9.84986 18.2788 10.1212H16.2605C16.3239 9.84986 16.3727 9.57542 16.4067 9.29901" fill="#FFC500"/>
<path d="M16.2479 10.1212H18.2661C18.2055 10.3907 18.1302 10.6568 18.0405 10.9183H16.0222C16.108 10.6578 16.1843 10.3911 16.2479 10.1212Z" fill="#FFC300"/>
<path d="M16.0222 10.9246H18.0405C17.9451 11.2008 17.837 11.4675 17.7226 11.7311H15.7043C15.8251 11.4675 15.9332 11.2008 16.0222 10.9246Z" fill="#FFC100"/>
<path d="M15.698 11.7248H17.7163C17.5834 12.0124 17.4338 12.2921 17.2682 12.5626H15.2467C15.4134 12.2922 15.564 12.0124 15.698 11.7248" fill="#FFBE00"/>
<path d="M15.2467 12.5626H17.2681C17.0616 12.8995 16.8311 13.2214 16.5784 13.526H14.5602C14.8118 13.2214 15.0412 12.8994 15.2467 12.5626" fill="#FFBC00"/>
<path d="M14.5602 13.5261H16.5784C15.8137 14.455 14.8491 15.204 13.7544 15.7186C12.6598 16.2332 11.4627 16.5004 10.2503 16.5009H8.23206C9.44444 16.5004 10.6415 16.2332 11.7361 15.7186C12.8308 15.204 13.7955 14.455 14.5602 13.5261Z" fill="#FFBA00"/>
<path d="M8.25122 14.0281C11.4828 14.0281 14.1025 11.4416 14.1025 8.25094C14.1025 5.06029 11.4828 2.47375 8.25122 2.47375C5.01963 2.47375 2.3999 5.06029 2.3999 8.25094C2.3999 11.4416 5.01963 14.0281 8.25122 14.0281Z" fill="#FFBA00"/>
<path d="M9.23975 14.0281C12.4713 14.0281 15.0911 11.4416 15.0911 8.25094C15.0911 5.06029 12.4713 2.47375 9.23975 2.47375C6.00815 2.47375 3.38843 5.06029 3.38843 8.25094C3.38843 11.4416 6.00815 14.0281 9.23975 14.0281Z" fill="#FFDC00"/>
<path d="M11.0863 8.31676H13.1077C12.4893 8.30742 11.871 8.34311 11.2579 8.42348C11.0452 8.45752 10.8534 8.5696 10.7208 8.73729H8.69934C8.83313 8.5694 9.02609 8.45737 9.23972 8.42348C9.85177 8.34317 10.4689 8.30748 11.0863 8.31676" fill="#FFAD00"/>
<path d="M8.69928 8.72784H10.7207C10.6862 8.76864 10.6543 8.81163 10.6254 8.85652H8.60718C8.63578 8.81258 8.6675 8.76864 8.69928 8.72784Z" fill="#FFAF00"/>
<path d="M8.60722 8.86591H10.6254C10.6 8.90984 10.5778 8.95379 10.5555 8.99772H8.53723C8.55803 8.95253 8.58144 8.90851 8.60722 8.86591" fill="#FFB100"/>
<path d="M8.53717 8.99774H10.5554C10.5337 9.04369 10.5146 9.09086 10.4983 9.13898H8.47998C8.49629 9.09086 8.51537 9.04369 8.53717 8.99774" fill="#FFB300"/>
<path d="M8.48001 9.13898H10.4983C10.4983 9.18919 10.4665 9.24253 10.4537 9.29274H8.43555C8.43555 9.24253 8.46412 9.18919 8.48001 9.13898Z" fill="#FFB400"/>
<path d="M8.43549 9.29272H10.4537C10.4411 9.34971 10.4316 9.4073 10.4251 9.46529H8.40686C8.41329 9.4073 8.42287 9.34971 8.43549 9.29272" fill="#FFB600"/>
<path d="M8.40687 9.46533H10.4251C10.4204 9.528 10.4204 9.59093 10.4251 9.6536H8.40369C8.40369 9.59084 8.4037 9.52809 8.41959 9.46533" fill="#FFB800"/>
<path d="M8.39099 9.66931H10.4124C10.4077 9.74036 10.4077 9.81166 10.4124 9.88272H8.39417C8.39417 9.81054 8.39417 9.74149 8.39417 9.66931" fill="#FFBA00"/>
<path d="M8.40051 9.86694H10.4188C10.4276 9.94616 10.4414 10.0248 10.4601 10.1023H8.44187C8.42168 10.0251 8.40782 9.94637 8.40051 9.86694Z" fill="#FFBC00"/>
<path d="M8.44189 10.1024H10.4601C10.5033 10.3271 10.6141 10.5337 10.7779 10.6955H8.75973C8.59473 10.5346 8.48378 10.3275 8.44189 10.1024" fill="#FFBD00"/>
<path d="M8.77551 10.6954H10.797C10.8256 10.7202 10.8564 10.7422 10.8892 10.7613H8.8677C8.836 10.7422 8.80619 10.7201 8.77869 10.6954" fill="#FFBC00"/>
<path d="M8.8645 10.7614H10.886L10.9304 10.7896L10.9718 10.8084H8.95032L8.91222 10.7896L8.8645 10.7614Z" fill="#FFBA00"/>
<path d="M8.95044 10.8084H10.9719C11.0036 10.8244 11.0366 10.8381 11.0704 10.8492H9.05217L8.95044 10.8084Z" fill="#FFB800"/>
<path d="M9.05212 10.8492H11.0704C11.1181 10.868 11.1721 10.8806 11.2261 10.8963H9.20786C9.15383 10.8806 9.0998 10.868 9.05212 10.8492Z" fill="#FFB600"/>
<path d="M9.20789 10.8963H11.2262C11.312 10.9151 11.4009 10.9308 11.4963 10.9434H9.47808C9.38273 10.9434 9.2937 10.9151 9.20789 10.8963Z" fill="#FFB400"/>
<path d="M9.47803 10.9434H11.4962C11.6512 10.9629 11.8072 10.9744 11.9634 10.9779H9.94523C9.78899 10.9744 9.63305 10.9629 9.47803 10.9434" fill="#FFB300"/>
<path d="M10.0724 4.39734H12.0907C12.4657 4.39734 12.8502 4.42245 13.238 4.44756H11.2198C10.832 4.42245 10.4474 4.40675 10.0724 4.39734Z" fill="#FFB300"/>
<path d="M11.2293 12.2394H13.2475C12.3925 12.2802 11.6583 12.2959 11.0767 12.2959H9.05847C9.64964 12.2959 10.3711 12.2959 11.2293 12.2394Z" fill="#FFAD00"/>
<path d="M11.2499 9.33356H13.2682C13.2904 10.1087 13.284 10.9465 13.2682 11.5302H11.2499C11.2499 10.934 11.2689 10.0961 11.2499 9.33356Z" fill="#FFBA00"/>
<path d="M11.2516 11.5521H13.2698C13.2698 11.8659 13.2539 12.117 13.2476 12.2488H11.2294C11.2294 12.117 11.2293 11.8691 11.2516 11.5521Z" fill="#FFB800"/>
<path d="M11.2197 4.44757H13.2379C13.2379 4.91514 13.3111 6.78228 13.2793 8.3168H11.261C11.2928 6.78228 11.2293 4.91514 11.2197 4.44757Z" fill="#FFBA00"/>
<path d="M9.16658 4.38483C9.80225 4.38483 10.511 4.38481 11.2198 4.44757C11.2198 4.91515 11.2928 6.78228 11.2611 8.3168H11.0862C10.4689 8.30752 9.85172 8.34321 9.23967 8.42352C8.21943 8.58984 8.13361 10.3722 8.92184 10.7896C9.29364 10.9343 9.69225 10.9995 10.0914 10.9811H10.3076C10.3583 10.6583 10.3785 10.3315 10.3679 10.0051H9.69415C9.69415 9.76659 9.69415 9.49671 9.69415 9.37747C10.2885 9.3555 10.9814 9.35552 11.2579 9.35552C11.2897 10.5386 11.2579 11.866 11.2388 12.2614C10.3806 12.3022 9.64967 12.3178 9.06803 12.3178C8.3827 12.3277 7.69735 12.3015 7.01484 12.2394C5.31761 12.0542 4.47213 11.1285 4.1988 9.97057C3.75383 8.08773 4.08754 4.4915 6.8082 4.47895C6.84952 4.45384 7.81896 4.38483 9.16658 4.38483Z" fill="#FFC800"/>
</svg>
