<svg width="246" height="38" viewBox="0 0 246 38" fill="none" xmlns="http://www.w3.org/2000/svg">
<g filter="url(#filter0_d_11226_43679)">
<path d="M243.842 12.7046C244.21 12.025 244.223 11.3014 244.198 10.584C244.14 9.16191 243.69 7.74609 244.039 6.3114C243.664 5.22279 243.836 4.11531 243.855 3.00783C243.925 2.70579 243.855 2.40375 243.461 2.3597C242.808 2.28419 242.135 2.2716 241.475 2.2716C233.002 2.27789 224.535 2.30936 216.062 2.30936C190.187 2.30936 132.577 2.29048 106.702 2.27789C100.501 2.27789 94.3063 2.1898 88.1056 2.05766C76.5735 1.81854 65.0351 2.07024 53.5031 1.76191C47.5054 1.6046 41.5014 1.67381 35.4973 1.5983C30.5659 1.53538 25.6345 1.58572 20.7031 1.39694C15.3781 1.18929 10.0342 1.31514 4.70292 1.29626L3.09084 1.32772C3.09084 1.32772 3.05276 1.35919 3.03372 1.37806L3.09084 1.32772C2.51964 1.30255 2.03728 1.40953 1.82149 1.91293C1.77072 2.18351 1.65648 2.45409 1.67552 2.71837C1.86592 5.12841 2.08806 7.53844 2.2975 9.94847C2.33558 11.2762 2.25942 12.6102 2.43078 13.9253C2.72908 16.241 2.72908 18.5629 2.65292 20.8849C2.35462 21.5015 2.67196 22.0867 2.82428 22.6719C3.61128 25.7616 4.42366 28.8512 5.21066 31.9408C5.69936 33.8663 5.68666 33.8663 8.0667 33.9041C14.534 34.0048 20.995 33.9481 27.4687 34.1432C37.395 34.439 47.334 34.1747 57.273 34.4767C64.8003 34.7032 72.3466 34.5774 79.8802 34.6088C82.0761 34.6214 84.2785 34.6214 86.4744 34.6655C88.004 34.6969 89.5336 34.8605 91.0631 34.8668C103.604 34.9046 116.145 34.9298 128.68 34.9361C150.024 34.9361 203.102 34.9235 224.446 34.9172C229.848 34.9172 235.255 34.9172 240.656 34.892C241.443 34.892 242.268 35.0116 242.973 34.5648C243.011 34.4641 243.023 34.3634 243.017 34.2628C243.017 34.2565 243.017 34.2502 243.011 34.2376C243.277 33.7908 243.322 33.3063 243.328 32.8218C243.353 31.406 243.366 29.9964 243.385 28.5806C243.963 24.2702 243.817 19.941 243.817 15.618C243.829 14.6427 243.836 13.6736 243.848 12.6983L243.842 12.7046ZM222.193 15.2719C222.193 15.2719 222.174 15.2594 222.162 15.2531C222.162 15.2531 222.187 15.2657 222.2 15.2719H222.193ZM212.743 4.7949C212.908 4.76973 213.079 4.78232 213.263 4.7949C213.086 4.80749 212.908 4.82007 212.743 4.7949ZM53.5285 14.7937C53.5285 14.7937 53.5412 14.8126 53.5475 14.8189C53.484 14.8503 53.4586 14.8503 53.4396 14.8252C53.465 14.8189 53.4904 14.8063 53.5221 14.7937H53.5285Z" fill="#656565"/>
</g>
<defs>
<filter id="filter0_d_11226_43679" x="0.0534009" y="0.195513" width="245.772" height="36.9005" filterUnits="userSpaceOnUse" color-interpolation-filters="sRGB">
<feFlood flood-opacity="0" result="BackgroundImageFix"/>
<feColorMatrix in="SourceAlpha" type="matrix" values="0 0 0 0 0 0 0 0 0 0 0 0 0 0 0 0 0 0 127 0" result="hardAlpha"/>
<feOffset dy="0.54"/>
<feGaussianBlur stdDeviation="0.81"/>
<feColorMatrix type="matrix" values="0 0 0 0 0 0 0 0 0 0 0 0 0 0 0 0 0 0 0.3 0"/>
<feBlend mode="normal" in2="BackgroundImageFix" result="effect1_dropShadow_11226_43679"/>
<feBlend mode="normal" in="SourceGraphic" in2="effect1_dropShadow_11226_43679" result="shape"/>
</filter>
</defs>
</svg>
