<?xml version="1.0" encoding="utf-8"?>
<svg width="1920" height="6000px" viewBox="0 0 1920 6000" preserveAspectRatio="xMidYMin" xmlns="http://www.w3.org/2000/svg">
  <path d="M -1 5943 L -1 -1 L 1920 -1 L 1920 5748 L 1885 5735 L 1823 5742 L 1734 5754 L 1671 5749 L 1617 5766 L 1589 5768 L 1552 5777 L 1512 5782 L 1474 5781 L 1307 5825 L 1292 5840 L 1279 5829 L 1203 5851 L 1162 5842 L 1149 5855 L 1120 5863 L 1055 5846 L 1039 5846 L 976 5854 L 878 5857 L 863 5850 L 792 5862 L 741 5886 L 652 5880 L 626 5887 L 590 5882 L 532 5892 L 489 5912 L 419 5908 L 395 5919 L 330 5933 L 255 5981 L 194 5990 L 168 6000 L 77 5959 L 40 5948 L -1 5943 Z"/>
</svg>