<?xml version="1.0" encoding="utf-8"?>
<svg viewBox="0 0 2000 100%" xmlns="http://www.w3.org/2000/svg" xmlns:bx="https://boxy-svg.com">
  <path d="M 1029.96 23.774 C 1029.761 26.218 1027.719 28.101 1025.267 28.102 L 975.732 28.102 C 975.601 28.102 975.477 28.075 975.348 28.064 C 972.917 27.866 971 25.859 971 23.384 C 971.004 20.775 973.123 18.664 975.732 18.668 L 993.936 18.668 C 993.93 18.562 993.919 18.458 993.919 18.353 C 993.919 14.901 996.727 12.103 1000.189 12.103 L 1000.809 12.103 C 1002.796 12.102 1004.666 13.045 1005.847 14.643 C 1006.648 15.714 1007.08 17.016 1007.08 18.353 C 1007.08 18.459 1007.07 18.563 1007.064 18.668 L 1025.267 18.668 C 1027.881 18.668 1030 20.779 1030 23.385 C 1030 23.518 1029.971 23.643 1029.96 23.774 M 2000 0 L 0 0 L 0 4000 L 2000 4000 L 2000 0 Z" fill-rule="evenodd" bx:origin="0.5 0.5"/>
</svg>
