<?xml version="1.0" standalone="no"?>
<!DOCTYPE svg PUBLIC "-//W3C//DTD SVG 20010904//EN"
 "http://www.w3.org/TR/2001/REC-SVG-20010904/DTD/svg10.dtd">
<svg version="1.0" xmlns="http://www.w3.org/2000/svg"
 width="700.000000pt" height="700.000000pt" viewBox="0 0 700.000000 700.000000"
 preserveAspectRatio="xMidYMid meet">
<metadata>
Created by potrace 1.14, written by Peter Selinger 2001-2017
</metadata>
<g transform="translate(0.000000,700.000000) scale(0.100000,-0.100000)"
fill="#000000" stroke="none">
<path d="M4695 6893 c-164 -24 -357 -67 -525 -117 -232 -69 -393 -123 -625
-209 -88 -32 -182 -67 -210 -77 -54 -19 -507 -206 -534 -220 -9 -5 -38 -18
-66 -31 -249 -110 -363 -164 -600 -285 -121 -61 -249 -128 -283 -148 -35 -20
-66 -36 -68 -36 -2 0 -25 -13 -51 -28 -27 -16 -100 -60 -163 -97 -225 -133
-498 -321 -608 -418 -206 -181 -294 -284 -362 -422 -22 -44 -45 -105 -51 -135
-13 -61 -7 -180 11 -225 7 -16 20 -46 28 -65 50 -118 222 -312 391 -440 18
-14 38 -30 44 -36 26 -23 257 -182 334 -228 l81 -50 -4 -55 c-9 -129 -15 -207
-19 -226 -2 -11 -7 -42 -10 -70 -8 -60 -13 -93 -18 -120 -7 -31 -19 -104 -18
-110 0 -2 -6 -23 -14 -45 -8 -22 -14 -44 -15 -48 -1 -24 -48 -147 -78 -205
-28 -54 -51 -81 -116 -134 -294 -242 -415 -448 -419 -713 -2 -160 25 -281 99
-439 49 -104 162 -293 172 -287 7 4 40 9 138 21 57 7 158 39 255 80 44 19 81
35 82 35 1 0 3 -33 3 -73 2 -85 9 -134 31 -202 39 -125 105 -235 191 -319 l50
-48 118 4 c129 5 196 22 307 81 33 17 61 26 66 21 4 -5 13 -38 20 -73 20 -105
79 -219 156 -306 15 -16 33 -38 40 -49 12 -17 28 -19 137 -19 85 -1 143 5 188
16 85 22 232 95 298 148 29 23 54 40 56 38 2 -2 15 -43 30 -91 34 -112 72
-196 130 -286 47 -73 47 -74 84 -68 20 3 57 8 82 11 324 40 578 173 725 380
59 84 114 209 131 300 2 11 7 41 12 66 5 25 10 120 11 210 2 177 7 206 47 289
24 50 132 218 158 246 6 7 27 32 46 55 61 76 122 141 232 251 l108 107 112
-38 c62 -21 118 -39 123 -40 6 -1 28 -7 50 -13 47 -13 35 -10 165 -42 58 -13
128 -28 155 -31 28 -4 52 -9 56 -10 13 -8 163 -18 259 -18 345 2 512 151 587
523 20 103 30 379 19 530 -9 110 -17 197 -20 220 -3 14 -7 52 -11 85 -8 81
-60 402 -79 492 -9 40 -18 87 -21 105 -3 18 -17 83 -31 143 -14 61 -27 118
-29 128 -2 10 -18 75 -35 145 -17 70 -33 137 -36 149 -2 12 -42 154 -88 315
-102 357 -280 897 -351 1063 -7 17 -25 62 -40 100 -82 213 -226 527 -322 700
-80 145 -189 281 -268 335 -88 61 -245 80 -430 53z"/>
</g>
</svg>
