<svg enable-background="new 0 0 35 35" width="35" height="35" viewBox="0 0 35 35" xmlns="http://www.w3.org/2000/svg" xmlns:xlink="http://www.w3.org/1999/xlink"><clipPath id="a"><path d="m17.5 19.7-16 6.5 16 6.5 16-6.5z"/></clipPath><linearGradient id="b" gradientUnits="userSpaceOnUse" x1=".5832" x2="34.1862" y1="23.7464" y2="11.5159"><stop offset="0" stop-color="#00f7ff"/><stop offset="1" stop-color="#6fff00"/></linearGradient><clipPath id="c"><path d="m17.5 19.7-16 6.5 16 6.5 16-6.5z"/></clipPath><path d="m17.5 20.9-13.1 5.4 13.1 5.3 13.1-5.3z" fill="#00c9a8"/><g fill="#00eacb"><path d="m17.5 32.7c-.1 0-.3 0-.4-.1l-13.1-5.3c-.4-.2-.7-.6-.7-1s.3-.8.7-1l13.1-5.3c.3-.1.6-.1.8 0l13.1 5.3c.4.2.7.6.7 1s-.3.8-.7 1l-13.1 5.3c-.1.1-.3.1-.4.1zm-10.2-6.4 10.2 4.2 10.2-4.2-10.2-4.2z"/><circle cx="17.5" cy="21" r="2.1"/><circle cx="4.4" cy="26.3" r="2.1"/><circle cx="30.5" cy="26.3" r="2.1"/></g><g clip-path="url(#a)"><path d="m18.5 27.3c-.6.2-1.5.2-2 0l-13.9-5.7c-.6-.2-.6-.6 0-.8l13.9-5.7c.6-.2 1.5-.2 2 0l13.9 5.7c.6.2.6.6 0 .8zm-10.2-6.5c-.6.2-.6.6 0 .8l8.2 3.4c.6.2 1.5.2 2 0l8.2-3.4c.6-.2.6-.6 0-.8l-8.2-3.4c-.6-.2-1.5-.2-2 0z" fill="#00b794"/></g><path d="m18.5 26.2c-.6.2-1.5.2-2 0l-13.9-5.7c-.6-.2-.6-.6 0-.8l13.9-5.7c.6-.2 1.5-.2 2 0l13.9 5.7c.6.2.6.6 0 .8zm-10.2-6.5c-.6.2-.6.6 0 .8l8.2 3.4c.6.2 1.5.2 2 0l8.2-3.4c.6-.2.6-.6 0-.8l-8.2-3.4c-.6-.2-1.5-.2-2 0z" fill="#00d8b5"/><path d="m18.5 20.1c-.6.2-1.5.2-2 0l-13.9-5.7c-.6-.2-.6-.6 0-.8l13.9-5.7c.6-.2 1.5-.2 2 0l13.9 5.7c.6.2.6.6 0 .8zm-10.2-6.5c-.6.2-.6.6 0 .8l8.2 3.4c.6.2 1.5.2 2 0l8.2-3.4c.6-.2.6-.6 0-.8l-8.2-3.4c-.6-.2-1.5-.2-2 0z" fill="#00baa1"/><path d="m18.5 13.9c-.6.2-1.5.2-2 0l-13.9-5.7c-.6-.2-.6-.6 0-.8l13.9-5.7c.6-.2 1.5-.2 2 0l13.9 5.7c.6.2.6.6 0 .8zm-10.2-6.5c-.5.2-.5.6 0 .8l8.2 3.4c.6.2 1.5.2 2 0l8.2-3.4c.6-.2.6-.6 0-.8l-8.2-3.4c-.6-.2-1.5-.2-2 0z" fill="#009ba0"/><circle cx="17.5" cy="31.6" fill="#00eacb" r="2.1"/><g fill="url(#b)" opacity=".2"><path d="m17.5 20.9-13.1 5.4 13.1 5.3 13.1-5.3z"/><path d="m17.5 32.7c-.1 0-.3 0-.4-.1l-13.1-5.3c-.4-.2-.7-.6-.7-1s.3-.8.7-1l13.1-5.3c.3-.1.6-.1.8 0l13.1 5.3c.4.2.7.6.7 1s-.3.8-.7 1l-13.1 5.3c-.1.1-.3.1-.4.1zm-10.2-6.4 10.2 4.2 10.2-4.2-10.2-4.2z"/><circle cx="17.5" cy="21" r="2.1"/><circle cx="4.4" cy="26.3" r="2.1"/><circle cx="30.5" cy="26.3" r="2.1"/><g clip-path="url(#c)"><path d="m18.5 27.3c-.6.2-1.5.2-2 0l-13.9-5.7c-.6-.2-.6-.6 0-.8l13.9-5.7c.6-.2 1.5-.2 2 0l13.9 5.7c.6.2.6.6 0 .8zm-10.2-6.5c-.6.2-.6.6 0 .8l8.2 3.4c.6.2 1.5.2 2 0l8.2-3.4c.6-.2.6-.6 0-.8l-8.2-3.4c-.6-.2-1.5-.2-2 0z"/><path d="m18.5 27.3c-.6.2-1.5.2-2 0l-13.9-5.7c-.6-.2-.6-.6 0-.8l13.9-5.7c.6-.2 1.5-.2 2 0l13.9 5.7c.6.2.6.6 0 .8zm-10.2-6.5c-.6.2-.6.6 0 .8l8.2 3.4c.6.2 1.5.2 2 0l8.2-3.4c.6-.2.6-.6 0-.8l-8.2-3.4c-.6-.2-1.5-.2-2 0z"/></g><path d="m18.5 26.2c-.6.2-1.5.2-2 0l-13.9-5.7c-.6-.2-.6-.6 0-.8l13.9-5.7c.6-.2 1.5-.2 2 0l13.9 5.7c.6.2.6.6 0 .8zm-10.2-6.5c-.6.2-.6.6 0 .8l8.2 3.4c.6.2 1.5.2 2 0l8.2-3.4c.6-.2.6-.6 0-.8l-8.2-3.4c-.6-.2-1.5-.2-2 0z"/><path d="m18.5 26.2c-.6.2-1.5.2-2 0l-13.9-5.7c-.6-.2-.6-.6 0-.8l13.9-5.7c.6-.2 1.5-.2 2 0l13.9 5.7c.6.2.6.6 0 .8zm-10.2-6.5c-.6.2-.6.6 0 .8l8.2 3.4c.6.2 1.5.2 2 0l8.2-3.4c.6-.2.6-.6 0-.8l-8.2-3.4c-.6-.2-1.5-.2-2 0z"/><path d="m18.5 20.1c-.6.2-1.5.2-2 0l-13.9-5.7c-.6-.2-.6-.6 0-.8l13.9-5.7c.6-.2 1.5-.2 2 0l13.9 5.7c.6.2.6.6 0 .8zm-10.2-6.5c-.6.2-.6.6 0 .8l8.2 3.4c.6.2 1.5.2 2 0l8.2-3.4c.6-.2.6-.6 0-.8l-8.2-3.4c-.6-.2-1.5-.2-2 0z"/><path d="m18.5 20.1c-.6.2-1.5.2-2 0l-13.9-5.7c-.6-.2-.6-.6 0-.8l13.9-5.7c.6-.2 1.5-.2 2 0l13.9 5.7c.6.2.6.6 0 .8zm-10.2-6.5c-.6.2-.6.6 0 .8l8.2 3.4c.6.2 1.5.2 2 0l8.2-3.4c.6-.2.6-.6 0-.8l-8.2-3.4c-.6-.2-1.5-.2-2 0z"/><path d="m18.5 13.9c-.6.2-1.5.2-2 0l-13.9-5.7c-.6-.2-.6-.6 0-.8l13.9-5.7c.6-.2 1.5-.2 2 0l13.9 5.7c.6.2.6.6 0 .8zm-10.2-6.5c-.5.2-.5.6 0 .8l8.2 3.4c.6.2 1.5.2 2 0l8.2-3.4c.6-.2.6-.6 0-.8l-8.2-3.4c-.6-.2-1.5-.2-2 0z"/><path d="m18.5 13.9c-.6.2-1.5.2-2 0l-13.9-5.7c-.6-.2-.6-.6 0-.8l13.9-5.7c.6-.2 1.5-.2 2 0l13.9 5.7c.6.2.6.6 0 .8zm-10.2-6.5c-.5.2-.5.6 0 .8l8.2 3.4c.6.2 1.5.2 2 0l8.2-3.4c.6-.2.6-.6 0-.8l-8.2-3.4c-.6-.2-1.5-.2-2 0z"/><circle cx="17.5" cy="31.6" r="2.1"/></g></svg>