<svg fill="none" height="35" viewBox="0 0 35 35" width="35" xmlns="http://www.w3.org/2000/svg" xmlns:xlink="http://www.w3.org/1999/xlink"><linearGradient id="a" gradientUnits="userSpaceOnUse" x1="1857.2" x2="1833.02" y1="1176.03" y2="1402.77"><stop offset=".03" stop-color="#005248"/><stop offset=".83" stop-color="#438200"/></linearGradient><linearGradient id="b"><stop offset=".03" stop-color="#458500"/><stop offset=".83" stop-color="#6ed400"/></linearGradient><linearGradient id="c" gradientUnits="userSpaceOnUse" x1="27.4629" x2="7.3795" xlink:href="#b" y1="13.3071" y2="27.3724"/><linearGradient id="d" gradientUnits="userSpaceOnUse" x1="25604.8" x2="23951.3" xlink:href="#b" y1="9616.38" y2="12804.4"/><linearGradient id="e" gradientUnits="userSpaceOnUse" x1="25604.8" x2="23951.6" xlink:href="#b" y1="9140.49" y2="12328.3"/><path d="m13.1642 20.374-2.404-.4083 1.6842-1.2006 3.0499.5184-1.3255.9454-.6474-.1101z" fill="url(#a)"/><g fill="#01d42f" fill-opacity=".35"><path d="m22.5573 31.4766-3.0513-.5197 1.3255-.9455.6474.1101.3572-.2552 2.404.4097z"/><path d="m18.8492 30.8454-3.2917-.5587 1.3255-.9468 3.2917.56zm-3.9498-.6715-3.2917-.5587 1.3269-.9468 3.2903.56zm-3.9498-.6715-3.29036-.5587 1.32555-.9468 3.29171.56zm-3.94844-.6715-3.29172-.5587 1.3269-.9468 3.29037.56z"/><path d="m3.05132 28.1594-3.05132-.5184 1.68279-1.2006 2.40399.4082-.35724.2552.64733.1101z"/><path d="m4.45064 26.5908-2.40398-.4029 1.81574-1.2987 2.40399.4029zm2.17837-1.5539-2.40399-.4096 1.81575-1.2947 2.40398.403zm2.17835-1.5552-2.40398-.4029 1.81575-1.2946 2.40397.4029zm2.17834-1.5471-2.40262-.4029 1.81442-1.2947 2.404.4029z"/><path d="m29.9668 22.9163-3.2917-.5601 1.3255-.9401 3.2917.5587zm-3.9498-.6715-3.2917-.5601 1.3269-.9401 3.2903.5587zm-3.9498-.6715-3.2904-.5601 1.3256-.9401 3.2917.5587zm-3.9484-.6715-3.2918-.5601 1.3269-.9401 3.2904.5587z"/><path d="m33.3171 23.8013-2.4039-.4096.3572-.2538-.6473-.1101 1.3255-.9455 3.0513.5184z"/><path d="m24.6041 30.0168-2.404-.4029 1.8158-1.2947 2.4026.4029zm2.1784-1.5539-2.404-.4029 1.8157-1.2947 2.404.4029zm2.1783-1.5592-2.4039-.4029 1.8157-1.296 2.404.4029zm2.1838-1.5485-2.404-.4029 1.8157-1.296 2.404.4096z"/></g><path d="m12.444 13.9289-12.44299292 8.8759 22.55579292 3.8303 12.443-8.8639zm9.0304 11.3632-17.74385-3.0245 9.79055-6.9836 17.7492 3.0244z" fill="url(#c)"/><path d="m12.444 8.96375-12.44299292 8.87595 22.55579292 3.8356 12.443-8.8732zm9.0304 11.35915-17.74385-3.0204 9.79055-6.9837 17.7492 3.0205z" fill="url(#d)"/><path d="m12.4438 4-12.4430218 8.8759 22.5558218 3.8343 12.443-8.87726zm9.0303 11.3538-17.74378-3.0151 9.79058-6.98361 17.7492 3.01506z" fill="url(#e)"/></svg>