<svg enable-background="new 0 0 35 35" width="35" height="35" viewBox="0 0 35 35" xmlns="http://www.w3.org/2000/svg" xmlns:xlink="http://www.w3.org/1999/xlink"><linearGradient id="a" gradientUnits="userSpaceOnUse" x1="17.5" x2="17.5" y1="27.9285" y2="5.604"><stop offset="0" stop-color="#ff0"/><stop offset="1" stop-color="#e6a100"/></linearGradient><clipPath id="b"><path d="m30.1 11.9c-2.1-2-5.1-3.9-7.2-4.8-2-.9-3.7-1.4-5.3-1.5-1.6 0-3.3.6-5.3 1.5-2.1.9-5 2.8-7.2 4.8-2.6 2.3-5 7.8-.2 12.4 3.5 3.3 8.3 3.7 12.7 3.7 4.4 0 9.2-.4 12.7-3.7 4.8-4.6 2.3-10.1-.2-12.4z"/></clipPath><linearGradient id="c"><stop offset="0" stop-color="#f30"/><stop offset="1" stop-color="#6fff00"/></linearGradient><linearGradient id="d" gradientUnits="userSpaceOnUse" x1="-247.0052" x2="60.5887" xlink:href="#c" y1="115.3861" y2="3.4311"/><linearGradient id="e" gradientUnits="userSpaceOnUse" x1="-247.7403" x2="59.8537" xlink:href="#c" y1="113.9912" y2="2.0361"/><clipPath id="f"><path d="m30.1 11.9c-2.1-2-5.1-3.9-7.2-4.8-2-.9-3.7-1.4-5.3-1.5-1.6 0-3.3.6-5.3 1.5-2.1.9-5 2.8-7.2 4.8-2.6 2.3-5 7.8-.2 12.4 3.5 3.3 8.3 3.7 12.7 3.7 4.4 0 9.2-.4 12.7-3.7 4.8-4.6 2.3-10.1-.2-12.4z"/></clipPath><linearGradient id="g" gradientUnits="userSpaceOnUse" x1="-141.5869" x2="56.9003" xlink:href="#c" y1="128.7739" y2="56.5305"/><linearGradient id="h" gradientUnits="userSpaceOnUse" x1="-140.2441" x2="58.2431" xlink:href="#c" y1="132.4633" y2="60.2198"/><linearGradient id="i" gradientUnits="userSpaceOnUse" x1="-138.8364" x2="59.6508" xlink:href="#c" y1="136.3308" y2="64.0874"/><linearGradient id="j" gradientUnits="userSpaceOnUse" x1="-161.1239" x2="37.3633" xlink:href="#c" y1="75.0965" y2="2.8531"/><path d="m29.5 13.7c-2.1-1.9-5-3.8-7-4.7s-3.6-1.4-5.2-1.4c-1.6 0-3.2.5-5.2 1.4s-4.9 2.8-7 4.7c-2.5 2.3-4.9 7.6-.2 12 3.4 3.2 8.1 3.6 12.4 3.6 4.3 0 9-.4 12.4-3.6 4.7-4.4 2.4-9.7-.2-12z" fill="#7f7c1b"/><path d="m30.1 11.9c-2.1-2-5.1-3.9-7.2-4.8-2-.9-3.7-1.4-5.3-1.5-1.6 0-3.3.6-5.3 1.5-2.1.9-5 2.8-7.2 4.8-2.6 2.3-5 7.8-.2 12.4 3.5 3.3 8.3 3.7 12.7 3.7 4.4 0 9.2-.4 12.7-3.7 4.8-4.6 2.3-10.1-.2-12.4z" fill="url(#a)"/><g clip-path="url(#b)" fill="none" stroke="#605650" stroke-miterlimit="10" stroke-width="4.5691"><circle cx="-34.2" cy="89.7" r="97"/><circle cx="-40.8" cy="96.3" r="97"/><circle cx="-47.7" cy="103.2" r="97"/></g><ellipse cx="13.2" cy="11.6" fill="#ccc" opacity=".4" rx="3.3" ry="2.8"/><g opacity=".1"><path d="m29.5 13.7c-2.1-1.9-5-3.8-7-4.7s-3.6-1.4-5.2-1.4c-1.6 0-3.2.5-5.2 1.4s-4.9 2.8-7 4.7c-2.5 2.3-4.9 7.6-.2 12 3.4 3.2 8.1 3.6 12.4 3.6 4.3 0 9-.4 12.4-3.6 4.7-4.4 2.4-9.7-.2-12z" fill="url(#d)"/><path d="m30.1 11.9c-2.1-2-5.1-3.9-7.2-4.8-2-.9-3.7-1.4-5.3-1.5-1.6 0-3.3.6-5.3 1.5-2.1.9-5 2.8-7.2 4.8-2.6 2.3-5 7.8-.2 12.4 3.5 3.3 8.3 3.7 12.7 3.7 4.4 0 9.2-.4 12.7-3.7 4.8-4.6 2.3-10.1-.2-12.4z" fill="url(#e)"/><g clip-path="url(#f)"><circle cx="-34.2" cy="89.7" fill="url(#g)" r="97"/><circle cx="-40.8" cy="96.3" fill="url(#h)" r="97"/><circle cx="-47.7" cy="103.2" fill="url(#i)" r="97"/></g><ellipse cx="13.2" cy="11.6" fill="url(#j)" rx="3.3" ry="2.8"/></g></svg>