<svg fill="none" height="35" viewBox="0 0 35 35" width="35" xmlns="http://www.w3.org/2000/svg" xmlns:xlink="http://www.w3.org/1999/xlink"><radialGradient id="a" cx="0" cy="0" gradientTransform="matrix(24.28216057 3.67911602 -3.67911602 24.28216057 13.96 6.54868)" gradientUnits="userSpaceOnUse" r="1"><stop offset="0" stop-color="#d4ff6a"/><stop offset=".08" stop-color="#d6fe65"/><stop offset=".17" stop-color="#dcfc56"/><stop offset=".27" stop-color="#e6f83e"/><stop offset=".37" stop-color="#f4f21c"/><stop offset=".38" stop-color="#f5f219"/><stop offset=".51" stop-color="#fbf009"/><stop offset=".57" stop-color="#fe0"/><stop offset=".63" stop-color="#fcea01"/><stop offset=".69" stop-color="#f4df06"/><stop offset=".75" stop-color="#e7cb0d"/><stop offset=".81" stop-color="#d4b018"/><stop offset=".87" stop-color="#bb8e25"/><stop offset=".9" stop-color="#a87230"/></radialGradient><linearGradient id="b"><stop offset="0" stop-color="#9fb863"/><stop offset=".08" stop-color="#a0b75e"/><stop offset=".17" stop-color="#a2b54f"/><stop offset=".27" stop-color="#a7b037"/><stop offset=".37" stop-color="#acab15"/><stop offset=".38" stop-color="#adaa12"/><stop offset=".48" stop-color="#a19a0a"/><stop offset=".57" stop-color="#928800"/><stop offset=".64" stop-color="#8f8401"/><stop offset=".71" stop-color="#847903"/><stop offset=".77" stop-color="#736506"/><stop offset=".84" stop-color="#5b4a0a"/><stop offset=".9" stop-color="#3b2710"/></linearGradient><radialGradient id="c" cx="0" cy="0" gradientTransform="matrix(31.45113891 4.7653251 -4.7653251 31.45113891 11.3149 2.31285)" gradientUnits="userSpaceOnUse" r="1" xlink:href="#b"/><radialGradient id="d" cx="0" cy="0" gradientTransform="matrix(31.45113891 4.7653251 -4.7653251 31.45113891 11.315 2.31285)" gradientUnits="userSpaceOnUse" r="1" xlink:href="#b"/><radialGradient id="e" cx="0" cy="0" gradientTransform="matrix(31.45113891 4.7653251 -4.7653251 31.45113891 11.3151 2.31285)" gradientUnits="userSpaceOnUse" r="1" xlink:href="#b"/><path d="m21.4528 6.04534s-17.08606.84973-19.2893 9.13486c-2.2032465 8.2851 18.4306 16.4965 27.597 12.3096 8.8595-4.0471-2.9523-18.08168-5.8217-21.06997-.4678-.48727-1.4709-.45119-2.486-.37449z" fill="url(#a)"/><path d="m21.576 28.5245c-.8858-4.1749-3.295-8.1889-7.7948-12.633-2.6228-2.5897-4.72831-4.2516-7.26091-5.89385-1.54002.93245-2.83641 2.08295-3.65454 3.49815 2.32332 1.8203 4.48958 3.8326 6.47589 6.0157 2.15366 2.3792 4.56736 4.9539 6.36906 7.9136 1.9161.5506 3.8799.9187 5.8653 1.0994z" fill="url(#c)"/><path d="m23.9388 6.41983c-.4678-.48727-1.4709-.45119-2.486-.37449 0 0-.5369.02708-1.4302.11731 1.8184 1.15599 3.5418 2.45498 5.1539 3.88465 3.3267 3.0169 6.4954 8.2204 7.6429 14.024 1.4709-5.7555-6.5796-15.25573-8.8806-17.65147z" fill="url(#d)"/><path d="m30.8614 26.8641c-.7655-5.375-3.8862-10.6357-8.1693-15.2768-1.8137-1.96563-4.4862-3.72071-6.8218-4.82459-1.8377.33863-3.6474.81419-5.4141 1.42271 2.3852 1.31142 5.3088 3.30858 7.8204 6.18108 3.4319 3.9102 7.1346 8.7754 8.1317 14.0632 1.1542-.1538 2.2807-.4702 3.3462-.9399.3874-.174.758-.3835 1.1069-.6257z" fill="url(#e)"/></svg>