<svg fill="none" height="35" viewBox="0 0 35 35" width="35" xmlns="http://www.w3.org/2000/svg" xmlns:xlink="http://www.w3.org/1999/xlink"><linearGradient id="a" gradientUnits="userSpaceOnUse" x1="20.5112" x2="23.5371" y1="14.4128" y2="4.39621"><stop offset=".2" stop-color="#e39a41"/><stop offset=".24" stop-color="#e59b38"/><stop offset=".3" stop-color="#eb9e21"/><stop offset=".33" stop-color="#efa00f"/><stop offset=".44" stop-color="#f2b10c"/><stop offset=".64" stop-color="#fbdc03"/><stop offset=".71" stop-color="#fe0"/><stop offset=".76" stop-color="#f4f21c"/><stop offset=".83" stop-color="#e6f83e"/><stop offset=".89" stop-color="#dcfc56"/><stop offset=".95" stop-color="#d6fe65"/><stop offset="1" stop-color="#d4ff6a"/></linearGradient><linearGradient id="b"><stop offset="0" stop-color="#d4ff6a"/><stop offset=".1" stop-color="#d6fe65"/><stop offset=".22" stop-color="#dcfc56"/><stop offset=".35" stop-color="#e6f83e"/><stop offset=".49" stop-color="#f4f21c"/><stop offset=".59" stop-color="#fe0"/><stop offset=".68" stop-color="#feea03"/><stop offset=".77" stop-color="#fadf0c"/><stop offset=".86" stop-color="#f3cb1b"/><stop offset=".94" stop-color="#eab030"/><stop offset="1" stop-color="#e39a41"/></linearGradient><radialGradient id="c" cx="0" cy="0" gradientTransform="matrix(-10.6887 0 0 -10.6887 13.6858 20.5566)" gradientUnits="userSpaceOnUse" r="1" xlink:href="#b"/><linearGradient id="d"><stop offset="0" stop-color="#fe0"/><stop offset=".25" stop-color="#f5d017"/><stop offset=".55" stop-color="#ebb32e"/><stop offset=".81" stop-color="#e5a03c"/><stop offset="1" stop-color="#e39a41"/></linearGradient><linearGradient id="e" gradientUnits="userSpaceOnUse" x1="9.65591" x2="9.65591" xlink:href="#d" y1="23.5601" y2="19.5679"/><linearGradient id="f" gradientUnits="userSpaceOnUse" x1="7852.12" x2="7852.12" xlink:href="#d" y1="4012.06" y2="3827.9"/><linearGradient id="g"><stop offset="0" stop-color="#e39a41"/><stop offset=".44" stop-color="#f2c61f"/><stop offset=".8" stop-color="#fbe308"/><stop offset="1" stop-color="#fe0"/></linearGradient><linearGradient id="h" gradientUnits="userSpaceOnUse" x1="7.30279" x2="8.50272" xlink:href="#g" y1="27.8546" y2="25.6547"/><linearGradient id="i" gradientUnits="userSpaceOnUse" x1="-5305.78" x2="-5305.78" xlink:href="#g" y1="2384.67" y2="2325.58"/><radialGradient id="j" cx="0" cy="0" gradientTransform="matrix(-2.36483 0 0 -2.36483 8.44077 16.2073)" gradientUnits="userSpaceOnUse" r="1"><stop offset="0" stop-color="#fe0"/><stop offset=".23" stop-color="#feea03"/><stop offset=".44" stop-color="#fadf0c"/><stop offset=".65" stop-color="#f3cb1b"/><stop offset=".86" stop-color="#eab030"/><stop offset="1" stop-color="#e39a41"/></radialGradient><linearGradient id="k" gradientUnits="userSpaceOnUse" x1="-18667.2" x2="-19937.3" xlink:href="#b" y1="-865.864" y2="-1249.54"/><linearGradient id="l" gradientUnits="userSpaceOnUse" x1="12.5443" x2="5.80562" y1="13.428" y2="13.428"><stop offset="0" stop-color="#d4ff6a"/><stop offset=".06" stop-color="#d6fe65"/><stop offset=".14" stop-color="#dcfc56"/><stop offset=".22" stop-color="#e6f83e"/><stop offset=".31" stop-color="#f4f21c"/><stop offset=".36" stop-color="#fe0"/><stop offset=".42" stop-color="#fbe209"/><stop offset=".57" stop-color="#f1c321"/><stop offset=".73" stop-color="#e9ac33"/><stop offset=".87" stop-color="#e59f3d"/><stop offset="1" stop-color="#e39a41"/></linearGradient><linearGradient id="m" gradientUnits="userSpaceOnUse" x1="-40139.1" x2="-40139.1" xlink:href="#b" y1="10701.1" y2="9515.42"/><path d="m30.9888 8.98251s-4.995-1.05678-6.3876 3.55079c-1.3926 4.6075-3.2044.4485-3.6717-.438-.5472-1.0368-2.5081-3.27484-6.7505-2.83686 0 0 .4321-3.01416 3.0694-3.82788 2.6372-.81372 5.5105 1.46305 5.5105 1.46305s2.5562-2.65838 4.9633-1.67558 3.269 2.64429 3.2666 3.76448z" fill="url(#a)"/><path d="m2.28195 14.769c.78436-.9547 2.45642-1.159 2.86504-.6823.21775.2771.33714.6187.33934.9711.2193-.1787.45522-.336.70452-.4697 1.74016-.9217 6.19155-1.6121 7.24015-.5871 1.0743 1.0486 2.9671.1268 4.4502 1.3891 1.0485.8924 1.7977 1.6544 2.7124.3757.3176-.4417.529-.9509.6176-1.4878.0886-.5368.052-1.0869-.1069-1.6073-.135-.3981-.0763-1.4091.5871-1.6439s1.7155.2477 2.1746 1.1965c.4239.8736 2.1136 4.5254 1.2623 9.5051-.8513 4.9798-6.5579 6.9278-8.783 7.5889-2.2251.661-5.2181 1.0743-7.62288.6657-2.40476-.4086-2.66073-1.4842-2.09712-2.0983.56362-.6141 1.20238.256 2.04545.6905.84308.4344 3.12105.6657 3.73515-.0247s1.126-1.254.5378-2.993c-.5883-1.739.3522-3.8455.4086-4.9316.0563-1.0862-1.1507-1.739-2.4048-1.4584-1.25402.2806-.8947 1.4583-3.91358.9722-3.01886-.4861-3.83727-.7925-3.81144-1.5088.0223-.2166.0765-.4287.16087-.6294-.08645-.0277-.17115-.0607-.25363-.0986-.59297-.2865-1.63213-2.1781-.84777-3.1339z" fill="url(#c)"/><path d="m10.7949 20.0293c.1796.4991-.1433 2.123-.88889 3.2432-.74561 1.1201-1.34915-1.321-1.43957-2.2709-.09041-.95 1.92686-2.0913 2.32846-.9723z" fill="url(#e)"/><path d="m6.0548 20.627c.12563.8349-.2595 2.8604-.68456 3.3324s-.87478.2842-1.18242-.7327c-.30764-1.0168-.52134-2.5057-.35226-3.1703s2.00671-.8478 2.21924.5706z" fill="url(#f)"/><path d="m8.2141 28.0538c-.32173-.027-1.18946-.209-.96518-.9546.22427-.7456 1.04503-1.409 1.26813-1.5053.22309-.0963.39101.4697.42858 1.1143.03758.6446-.03053 1.4032-.73153 1.3456z" fill="url(#h)"/><path d="m11.4641 28.5352c-.4415.0987-.9159-.0399-1.0991-.6704-.1831-.6306.1727-1.867.6717-1.9328.499-.0657.8278 1.2916.9123 1.685.0846.3934.0646.7961-.4849.9182z" fill="url(#i)"/><path d="m11.017 16.5396c.0575.8678-.4415 1.712-2.1136 1.786-1.67205.074-3.09518-1.0861-3.05291-2.0854.04227-.9992 1.09788-2.2462 2.30026-2.1593s2.74645.6646 2.86625 2.4587z" fill="url(#j)"/><path d="m26.4714 14.2265-4.267 4.7919s-1.5829-.256-1.712 1.6532c-.1045 1.5453 1.6755 2.0807 2.6443 1.5934.2738-.1268.5068-.3276.6727-.5796.166-.252.2583-.5454.2666-.847l8.9239 1.1589s-.0282-5.1735-6.5285-7.7708z" fill="url(#k)"/><path d="m12.5443 10.9692s-.3205 2.177-.4802 3.1046c0 0-5.11716 1.2505-6.1164 1.8106 0 0-.32056-.4403 0-1.4795 0 .0024 3.39812-2.117 6.5966-3.4357z" fill="url(#l)"/><path d="m13.5037 28.9239c-.3041.3241-.9898.8525-2.6948.7503-1.70488-.1021-3.0012-.2724-3.85367-.8219-.85246-.5496-.546-1.3644.37457-1.8787s1.29162.546 1.91042.7503c.61881.2043 2.65958.4098 3.06938.2348.4098-.1749-.0681-1.8787-.4779-2.7288s.1374-3.3089.7162-4.4678c0 0-.7503-.1362-1.227-.6141-.6329.5145-1.38244.8657-2.18284 1.0227-1.29161.2348-3.75743-.7163-4.8142-.6822-1.05678.034-2.18283-.4086-2.28499-1.6369-.10215-1.2282 1.29162-1.1601 2.79694-.5119s3.5132.9323 4.10029.9323c.5871 0 1.2916-.8536 2.2169-.8877.9253-.034 2.2861.6141 2.7969 2.1136.2537.7456-.6822 3.3089-.5789 4.0932.1034.7844 1.1555 3.242.1327 4.3328z" fill="url(#m)"/><g fill="#7d5d22"><path d="m9.17098 16.1463c.01644.2865-.12564.566-.60001.5871-.47438.0211-.88183-.3523-.86774-.6893s.31234-.7421.65403-.7139.78201.2208.81372.8161z"/><path d="m3.66608 17.1784c.35226.1984 1.07908-.3969 1.16597-.6176.0869-.2208-.30176-.4216-.58709-.2208s-.8372.6916-.57888.8384z"/></g></svg>