<svg enable-background="new 0 0 35 35" width="35" height="35" viewBox="0 0 35 35" xmlns="http://www.w3.org/2000/svg" xmlns:xlink="http://www.w3.org/1999/xlink"><linearGradient id="a" gradientUnits="userSpaceOnUse" x1="15.4572" x2="15.4572" y1="31.8981" y2="2.6575"><stop offset="0" stop-color="#ffd500"/><stop offset=".3276" stop-color="#ff0"/><stop offset="1" stop-color="#cca000"/></linearGradient><linearGradient id="b" gradientUnits="userSpaceOnUse" x1="3.7537" x2="32.211" y1="22.9793" y2="12.6217"><stop offset="0" stop-color="#f700ff"/><stop offset="1" stop-color="#0080ff"/></linearGradient><linearGradient id="c"><stop offset="0" stop-color="#ff0"/><stop offset="1" stop-color="#cca000"/></linearGradient><linearGradient id="d" gradientUnits="userSpaceOnUse" x1="9.6687" x2="9.6687" xlink:href="#c" y1="29.4225" y2="20.3149"/><linearGradient id="e" gradientUnits="userSpaceOnUse" x1="4.0614" x2="4.0614" xlink:href="#c" y1="24.7149" y2="21.4193"/><linearGradient id="f" gradientUnits="userSpaceOnUse" x1="10.1843" x2="10.1843" xlink:href="#c" y1="24.2619" y2="20.9319"/><linearGradient id="g"><stop offset="0" stop-color="#ff0"/><stop offset="1" stop-color="#edba00"/></linearGradient><linearGradient id="h" gradientUnits="userSpaceOnUse" x1="8.2236" x2="8.2236" xlink:href="#g" y1="27.6521" y2="30.0737"/><linearGradient id="i" gradientUnits="userSpaceOnUse" x1="11.5092" x2="11.5092" xlink:href="#g" y1="27.7809" y2="30.2228"/><linearGradient id="j" gradientUnits="userSpaceOnUse" x1="24.3984" x2="29.6513" y1="25.5053" y2="14.2406"><stop offset="0" stop-color="#ffc800"/><stop offset=".3056" stop-color="#ff0"/><stop offset=".9976" stop-color="#cca000"/></linearGradient><radialGradient id="k" cx="7.7131" cy="16.7165" gradientUnits="userSpaceOnUse" r="2.7919"><stop offset="0" stop-color="#ff0"/><stop offset="1" stop-color="#f0cc00"/></radialGradient><linearGradient id="l" gradientUnits="userSpaceOnUse" x1="7.743" x2="7.743" xlink:href="#c" y1="17.5612" y2="15.4981"/><linearGradient id="m" gradientUnits="userSpaceOnUse" x1="7.7866" x2="7.7866" xlink:href="#c" y1="16.2383" y2="10.2741"/><linearGradient id="n" gradientUnits="userSpaceOnUse" x1="8.6955" x2="8.6955" y1="32.3425" y2="18.2095"><stop offset="0" stop-color="#edd900"/><stop offset="1" stop-color="#e6b400"/></linearGradient><clipPath id="o"><path d="m21.8 19.6c.6-1.1 1.9-6 2-6.6 3-.5 8.1 1.3 10.2 5.8-1.5.2-8.4 2.2-9.6 2.7-.2 1.1-.9 2.1-1.8 2.4-1.4.4-2.9-.1-2.7-2 .1-1.5 1.3-2.1 1.9-2.3z"/></clipPath><path d="m11.1 31.4c8.7 2.2 14.5-4.3 14.8-8.5.2-2.8.2-9-1.6-12.9-.1-1.7 2.3-4.5 5.2-5-1.3-3-6.7-3.5-8.9.2-2.1-2-7.5-.5-6.6 4.1 1.6-.9 5.5-.1 6.6 1.6 0 0 .3 3.5-1.4 3.4-1.2-1-2.7-.9-3.8-.1-.1-.2-.6-.6-1.3-1.1s-1.8-.3-2.2-.1c-.5.2-2.1 1.1-2.5 1.5s-4.7 0-4.7 0c-.3-.5-1.2-1-2.2-.6s-1 1.9-.9 2.5c0 .8.4 1.6 1 1.9z" fill="url(#a)"/><path d="m11.1 31.4c8.7 2.2 14.5-4.3 14.8-8.5.2-2.8.2-9-1.6-12.9-.1-1.7 2.3-4.5 5.2-5-1.3-3-6.7-3.5-8.9.2-2.1-2-7.5-.5-6.6 4.1 1.6-.9 5.5-.1 6.6 1.6 0 0 .3 3.5-1.4 3.4-1.2-1-2.7-.9-3.8-.1-.1-.2-.6-.6-1.3-1.1s-1.8-.3-2.2-.1c-.5.2-2.1 1.1-2.5 1.5s-4.7 0-4.7 0c-.3-.5-1.2-1-2.2-.6s-1 1.9-.9 2.5c0 .8.4 1.6 1 1.9z" fill="url(#b)" opacity=".1"/><path d="m5 21.7c-1.8 2-2.1 7 2.6 7.6 4.8.6 7.7-.7 7.8-1.5.2-.8-.6-6.6-1.5-7.3-.8-.6-8.2.4-8.9 1.2z" fill="url(#d)"/><path d="m5 21.7c-1.8 2-2.1 7 2.6 7.6 4.8.6 7.7-.7 7.8-1.5.2-.8-.6-6.6-1.5-7.3-.8-.6-8.2.4-8.9 1.2z" fill="#cca000" opacity=".46"/><path d="m2.7 21.4c-.1.6.5 2.6.7 3 .3.4.6.4.9 0 .3-.3 1-2.3 1.1-2.8" fill="url(#e)"/><path d="m8.8 21.4c.1.6 1.1 2.4 1.5 2.7s.7.2.9-.2.4-2.5.3-3" fill="url(#f)"/><path d="m9.4 29.8c0-.5-.8-1.8-1.1-2s-.6-.2-.8.1-.5 1.8-.5 2.1" fill="url(#h)"/><path d="m12.8 29.9c0-.5-.8-1.7-1.1-2-.3-.2-.6-.2-.8.1s-.6 1.8-.6 2.2" fill="url(#i)"/><path d="m21.8 19.6c.6-1.1 1.9-6 2-6.6 3-.5 8.1 1.3 10.2 5.8-1.5.2-8.4 2.2-9.6 2.7-.2 1.1-.9 2.1-1.8 2.4-1.4.4-2.9-.1-2.7-2 .1-1.5 1.3-2.1 1.9-2.3z" fill="url(#j)"/><path d="m5.5 15.1c1-1.1 3.1-1.6 4.3-.2s1 3 .1 3.9-3 1-4.2.1c-1.2-1.1-1-2.9-.2-3.8z" fill="url(#k)"/><path d="m6.9 15.9c.4-.4 1.2-.6 1.6-.1s.4 1.2 0 1.5c-.3.3-1.2.4-1.6 0s-.3-1.1 0-1.4z" fill="url(#l)"/><path d="m6.9 15.9c.4-.4 1.2-.6 1.6-.1s.4 1.2 0 1.5c-.3.3-1.2.4-1.6 0s-.3-1.1 0-1.4z" fill="#cca000" opacity=".3"/><path d="m5 16.2c-.3-.3-.4-1.7-.4-1.9.7-.8 5.7-3.9 6.1-4.1.3.5.2 3.4.1 3.7-.5.3-5.4 2.3-5.8 2.3z" fill="url(#m)"/><path d="m10.9 32.3c-1 0-1.9-.1-2.6-.2h-.2c-.9-.1-1.6-.9-1.6-1.9.1-.9.9-1.6 1.9-1.6h.3c.7.1 2.3.2 3.2.1.7-.1 1.4-.2 1.1-2.1-.2-1.2-.4-2.7-.5-4.3 0-.2-.1-.4-.4-.6-.2-.2-.5-.2-.7-.1-1.8.6-6.1.7-9.1-.1-.9-.2-1.5-1.2-1.2-2.1.2-.9 1.2-1.5 2.1-1.2 2.5.7 6.1.5 7.1.2 1.2-.4 2.6-.2 3.8.6 1.1.8 1.8 2 1.9 3.2.1 1.4.2 2.8.4 3.9.2 1.6.3 5.3-3.9 6-.5.2-1.1.2-1.6.2z" fill="url(#n)"/><g fill="#ccc"><ellipse cx="3" cy="15.4" opacity=".7" rx=".9" ry=".7"/><path d="m16.2 16.7c0-.8.8-1.5 1.7-1.5.2 0 .3 0 .5.1-.2-.4-.7-.8-1.3-.8-.8 0-1.5.6-1.5 1.3 0 .4.2.8.6.9 0 .1 0 .1 0 0z" opacity=".7"/><path d="m18.8 5.4c.4 0 .8.1 1.2.2-.5-.5-1.3-.8-2.2-.8-1.7 0-3 1.2-3 2.6 0 .3.1.6.2.8.3-1.6 1.9-2.8 3.8-2.8z" opacity=".4"/><g clip-path="url(#o)"><path d="m28.5 13.2-4.6 5.3 3.1-5.7z" opacity=".4"/><path d="m32.9 16.3-6.5 2.7 5.3-3.8z" opacity=".4"/></g></g></svg>