<svg fill="none" height="30" viewBox="0 0 30 30" width="30" xmlns="http://www.w3.org/2000/svg"><path d="m27 4-2.6548 9.8922-1.4381-1.4289-13.60612 13.5194-.99557-.9892 3.98229-3.9569-.6637-.6595-3.98231 3.9569-.99557-.9892 3.98228-3.9569-.77433-.7694-3.98228 3.9569-.99557-.9893 13.60608-13.5193-1.438-1.42888z" fill="#cff622"/><path d="m2 4 9.9557 2.63792-1.438 1.42888 13.6061 13.5193-.9956.9893-3.9823-3.9569-.6637.7694 3.9823 3.9569-.9956.9892-3.9822-3.9569-.7744.6595 3.9823 3.9569-.9956.9892-13.6061-13.5194-1.43805 1.4289z" fill="#fff"/></svg>