<svg width="25" height="22" viewBox="0 0 25 22" fill="none" xmlns="http://www.w3.org/2000/svg">
<path d="M24.9999 0L22.345 9.89228L20.907 8.4634L7.30074 21.9828L6.30516 20.9936L10.2875 17.0367L9.62375 16.3772L5.64144 20.3341L4.64586 19.3449L8.62817 15.388L7.85384 14.6186L3.87152 18.5755L2.87595 17.5863L16.4822 4.06683L15.0441 2.63794L24.9999 0Z" fill="#CFF622"/>
<path d="M0 0L9.95578 2.63794L8.51772 4.06683L22.124 17.5863L21.1284 18.5755L17.1461 14.6186L16.4823 15.388L20.4647 19.3449L19.4691 20.3341L15.4868 16.3772L14.7124 17.0367L18.6947 20.9936L17.6992 21.9828L4.09293 8.4634L2.65487 9.89228L0 0Z" fill="white"/>
</svg>
