<svg fill="none" height="35" viewBox="0 0 35 35" width="35" xmlns="http://www.w3.org/2000/svg"><path d="m18.2956 35-13.26818-5.2296.19079-15.2497 13.07739 4.4676z" fill="#2333cb"/><path d="m16.7094 32.5978-10.47757-4.0469v-11.6292l10.47757 4.048z" fill="#28282e"/><path d="m18.2955 35 11.0177-5.802.1908-14.6773-11.2085 4.4676z" fill="#0d119e"/><path d="m19.5632 32.5978 8.4834-4.5618.1897-11.1143-8.6731 4.048z" fill="#1a1a1f"/><path clip-rule="evenodd" d="m14.6314 29.7417c-.0187-.0132-.0409-.0205-.0638-.021-.0228-.0005-.0453.0058-.0646.0181-.0192.0124-.0344.0302-.0434.0512-.0091.0209-.0117.0442-.0075.0666.0038.0536.0226.105.0543.1483s.0751.0768.125.0965c.0186.0132.0408.0206.0637.0211s.0454-.0058.0646-.0182c.0193-.0123.0344-.0301.0435-.0511.009-.021.0117-.0442.0075-.0667-.0037-.0536-.0225-.105-.0542-.1484-.0318-.0433-.0751-.0767-.1251-.0964zm-1.2069-.4471c-.0186-.0132-.0408-.0205-.0637-.021-.0228-.0005-.0453.0058-.0646.0181-.0192.0124-.0344.0302-.0435.0511-.009.021-.0117.0443-.0075.0667.0039.0537.0227.1052.0544.1487s.075.0772.1249.0973c.0191.0107.0408.016.0626.0154.0219-.0007.0432-.0073.0616-.0191s.0333-.0284.043-.048.0139-.0414.0121-.0632c-.0036-.0538-.0223-.1054-.054-.149-.0318-.0435-.0752-.0771-.1253-.097zm-3.6101-1.3367c-.01868-.0132-.04086-.0205-.06372-.021-.02287-.0005-.04536.0058-.06461.0181-.01926.0124-.03439.0302-.04347.0511-.00908.021-.01168.0442-.00749.0667.00385.0537.02269.1052.05439.1487s.07498.0772.1249.0973c.01913.0103.04067.0153.06238.0144.02171-.0008.04279-.0074.06107-.0191.01829-.0118.03312-.0282.04294-.0475.00981-.0194.01428-.0411.01292-.0627-.00359-.0538-.02234-.1054-.05407-.149-.03174-.0435-.07516-.0771-.12524-.097zm-1.20683-.4471c-.01867-.0132-.04086-.0205-.06372-.021s-.04536.0058-.06461.0181c-.01925.0124-.03439.0302-.04347.0511-.00908.021-.01168.0443-.00749.0667.00386.0537.0227.1052.0544.1487s.07497.0772.12489.0973c.01868.0132.04087.0205.06373.021s.04536-.0058.06461-.0181c.01925-.0124.03439-.0302.04346-.0512.00908-.0209.0117-.0442.00751-.0666-.00386-.0537-.02271-.1052-.05441-.1487s-.07498-.0772-.1249-.0973zm5.40203 2.6033c-.0191-.0107-.0407-.016-.0626-.0154-.0219.0007-.0431.0073-.0616.0191-.0184.0118-.0333.0284-.043.048s-.0139.0414-.0121.0632c.0038.0536.0226.105.0543.1483s.0751.0768.125.0965c.0186.0132.0408.0206.0637.0211.0228.0005.0453-.0058.0646-.0182.0192-.0123.0344-.0301.0435-.0511.009-.021.0117-.0442.0075-.0667-.004-.0533-.0228-.1045-.0543-.1478-.0314-.0432-.0743-.0768-.1239-.097zm-4.80895-1.7804c-.01868-.0132-.04087-.0205-.06373-.021s-.04536.0058-.06461.0182c-.01925.0123-.03438.0301-.04346.0511s-.0117.0442-.00751.0667c.00359.0537.02234.1054.05407.1489.03174.0435.07516.0772.12524.097.09999.0368.17929-.0138.17929-.1149-.00349-.0536-.02206-.1052-.05358-.1487s-.0747-.0772-.12456-.0973zm5.43185.2069c-.0191-.0107-.0407-.016-.0626-.0153-.0218.0006-.0431.0072-.0615.019s-.0333.0284-.043.048-.0139.0415-.0122.0633c.0038.0535.0227.1049.0544.1482s.075.0768.1249.0966c.0187.0132.0409.0205.0637.021.0229.0005.0454-.0058.0647-.0181.0192-.0124.0343-.0302.0434-.0512s.0117-.0442.0075-.0667c-.004-.0533-.0227-.1045-.0542-.1477-.0315-.0433-.0744-.0769-.1239-.0971zm-1.2068-.4459c-.0187-.0128-.0407-.0198-.0634-.0202-.0226-.0003-.0449.0061-.0639.0184-.0191.0123-.034.0299-.0431.0507-.009.0207-.0117.0437-.0078.066.0037.0536.0223.1051.0538.1486s.0746.0772.1244.0974c.1.0356.1793-.015.1793-.115-.0034-.0536-.0219-.1052-.0534-.1488-.0316-.0435-.0748-.0772-.1248-.0971zm-.6126-.2299c-.0187-.0128-.0408-.0198-.0634-.0201s-.0449.006-.0639.0183c-.0191.0123-.034.0299-.0431.0507-.009.0208-.0117.0437-.0078.066.0036.0535.0222.1048.0537.1482.0316.0433.0747.0768.1245.0966.1.0368.1793-.0137.1793-.1149-.0038-.0526-.0222-.1032-.053-.146-.0309-.0428-.073-.0762-.1217-.0965zm-.5862-.2172c-.0191-.0107-.0407-.016-.0626-.0154-.0218.0007-.0431.0072-.0615.019s-.0333.0284-.043.048-.0139.0415-.0122.0633c.0038.0536.0226.1049.0544.1483.0317.0433.075.0767.1249.0965.0187.0132.0409.0205.0637.021.0229.0006.0454-.0058.0646-.0181.0193-.0123.0344-.0301.0435-.0511s.0117-.0442.0075-.0667c-.0044-.053-.0233-.1037-.0548-.1465-.0314-.0428-.0741-.076-.1233-.096zm-1.2022-.4448c-.0187-.0132-.0409-.0205-.0637-.0211-.0229-.0005-.0454.0058-.0647.0182-.0192.0123-.0343.0301-.0434.0511s-.0117.0442-.0075.0667c.0038.0537.0227.1052.0544.1487s.075.0772.1249.0973c.1.0367.1793-.0138.1793-.115-.0039-.0532-.0227-.1042-.0542-.1473s-.0744-.0765-.124-.0963zm-.6115-.2299c-.1-.0368-.1793.0138-.1793.1149.0036.0538.0224.1054.0541.1489.0317.0436.0751.0772.1252.0971.0187.0128.0408.0198.0634.0201.0227.0003.0449-.006.0639-.0183.0191-.0123.034-.0299.0431-.0507.009-.0208.0117-.0437.0078-.066-.0043-.0526-.0232-.1029-.0544-.1453-.0313-.0424-.0737-.0753-.1226-.095zm-.59765-.2207c-.01868-.0132-.04086-.0205-.06372-.021-.02287-.0005-.04536.0058-.06461.0181-.01925.0124-.03439.0302-.04347.0512s-.01169.0442-.00751.0667c.00367.0535.02247.105.0542.1483.03174.0434.07513.0768.12511.0965.01868.0132.04087.0205.06373.021s.04535-.0058.06461-.0182c.01925-.0123.03438-.0301.04346-.0511s.01168-.0442.00749-.0667c-.00501-.052-.02429-.1017-.05572-.1434-.03144-.0418-.0738-.0741-.12242-.0933zm-1.20568-.4471c-.01867-.0132-.04086-.0205-.06372-.021s-.04536.0058-.06461.0181c-.01925.0124-.03439.0302-.04347.0512-.00907.021-.01169.0442-.0075.0666.00385.0537.02271.1052.05441.1487s.07497.0772.12489.0973c.01868.0132.04087.0205.06373.021.02286.0006.04536-.0058.06461-.0181s.03439-.0301.04347-.0511c.00907-.021.01168-.0442.00749-.0667-.00479-.0526-.02393-.1028-.05535-.1451-.03143-.0424-.07391-.0753-.12279-.0951zm6.60993 3.0447c-.0186-.0132-.0408-.0205-.0637-.0211-.0228-.0005-.0453.0058-.0646.0182-.0192.0123-.0344.0301-.0435.0511-.009.021-.0117.0442-.0075.0667.0037.0536.0225.105.0542.1484.0318.0433.0752.0768.1251.0964.0187.0132.0409.0205.0638.021.0228.0006.0453-.0058.0646-.0181.0192-.0123.0344-.0301.0434-.0511.0091-.021.0117-.0442.0075-.0667-.0046-.0525-.0237-.1026-.0551-.1448-.0315-.0422-.0741-.0749-.123-.0943zm-1.2068-.4471c-.0187-.0132-.0409-.0205-.0637-.0211-.0229-.0005-.0454.0058-.0646.0182-.0193.0123-.0344.0301-.0435.0511s-.0117.0442-.0075.0667c.0039.0537.0227.1052.0544.1487s.075.0772.1249.0973c.0191.0107.0407.016.0626.0153.0219-.0006.0431-.0072.0615-.019.0185-.0118.0333-.0284.043-.048.0098-.0196.014-.0415.0122-.0633-.0045-.0526-.0236-.1029-.055-.1453-.0315-.0424-.0741-.0753-.1231-.0949zm-1.1953-.4379c-.0187-.0128-.0408-.0199-.0634-.0202-.0227-.0003-.0449.0061-.0639.0184-.0191.0123-.034.0299-.0431.0507-.009.0207-.0117.0437-.0078.066.0035.0535.022.1049.0536.1483.0315.0433.0747.0768.1246.0965.1.0368.1793-.0138.1793-.1149-.0034-.0537-.0221-.1053-.0539-.1487-.0318-.0433-.0753-.0767-.1254-.0961zm-2.3999-.8896c-.1-.0368-.1793.0138-.1793.1149.0036.0537.0223.1054.0541.1489.0317.0435.0751.0772.1252.0971.0187.0128.0408.0198.0634.0201.0227.0003.0449-.0061.0639-.0184.019-.0122.034-.0299.0431-.0506.009-.0208.0117-.0438.0078-.0661-.0039-.054-.0231-.1057-.0552-.1492-.0322-.0436-.076-.0771-.1264-.0967zm-1.20911-.4471c-.01868-.0132-.04087-.0206-.06373-.0211s-.04536.0058-.06461.0182c-.01925.0123-.03439.0301-.04346.0511-.00908.021-.01169.0442-.0075.0667.00386.0537.02271.1052.05441.1487s.07497.0772.12489.0973c.01913.0102.04067.0152.06237.0144.02171-.0008.04279-.0075.06108-.0192s.03311-.0281.04293-.0475.01428-.041.01292-.0627c-.00388-.0541-.02314-.106-.05551-.1496-.03238-.0436-.07653-.077-.12724-.0963zm-1.18155-.4379c-.01868-.0132-.04086-.0206-.06372-.0211-.02287-.0005-.04536.0058-.06461.0182-.01925.0123-.03438.0301-.04345.0511-.00908.021-.0117.0442-.00751.0667.00359.0537.02234.1054.05407.1489.03174.0435.07515.0772.12522.0971.01868.0131.04088.0205.06374.021s.04536-.0058.06461-.0182c.01925-.0123.03437-.0301.04345-.0511s.0117-.0442.00751-.0667c-.00415-.054-.02352-.1058-.05586-.1494-.03233-.0435-.07632-.077-.12689-.0965zm4.79056-.6058c-.0187-.0128-.0408-.0198-.0634-.0201-.0227-.0003-.0449.0061-.0639.0184-.0191.0122-.034.0299-.0431.0506-.009.0208-.0117.0438-.0078.0661.0036.0534.0222.1048.0537.1481.0316.0433.0747.0769.1245.0967.1.0368.1793-.0138.1793-.1149-.0038-.0536-.0227-.105-.0544-.1483s-.075-.0768-.1249-.0966zm-.5862-.2172c-.0191-.0103-.0407-.0153-.0624-.0144-.0217.0008-.0428.0074-.061.0191-.0183.0118-.0332.0282-.043.0475-.0098.0194-.0143.0411-.0129.0627.0038.0536.0226.105.0544.1483.0317.0433.075.0768.1249.0966.0187.0132.0409.0205.0637.021.0229.0005.0454-.0058.0646-.0182.0193-.0123.0344-.0301.0435-.0511s.0117-.0442.0075-.0667c-.0044-.0538-.0238-.1054-.0561-.1487-.0324-.0433-.0762-.0766-.1266-.0961zm-.6149-.2299c-.0187-.0132-.0409-.0205-.0637-.021-.0229-.0005-.0454.0058-.0646.0182-.0193.0123-.0344.0301-.0435.0511s-.0117.0442-.0075.0667c.0036.0537.0223.1054.0541.1489.0317.0435.0751.0772.1252.097.0187.0132.0409.0206.0637.0211.0229.0005.0454-.0058.0646-.0182.0193-.0123.0344-.0301.0435-.0511s.0117-.0442.0075-.0667c-.0046-.0537-.0241-.105-.0564-.148-.0323-.0431-.0761-.0763-.1263-.0957zm-.5873-.2172c-.0187-.0132-.0409-.0205-.0638-.021-.0228-.0005-.0453.0058-.0646.0181-.0192.0124-.0343.0302-.0434.0512-.0091.0209-.0117.0442-.0075.0666.0036.0538.0223.1054.054.149.0318.0435.0752.0771.1253.097.1.0368.1793-.0138.1793-.1149-.0043-.0538-.0238-.1052-.0561-.1483-.0324-.0431-.0763-.0762-.1267-.0954zm-.6115-.2299c-.1-.0367-.1793.0138-.1793.115.0036.0537.0223.1054.0541.1489.0317.0435.0751.0772.1252.097.0187.0128.0408.0199.0634.0202.0227.0003.0449-.0061.0639-.0184s.034-.0299.0431-.0507c.009-.0207.0117-.0437.0078-.066-.005-.053-.0246-.1035-.0567-.1459-.0321-.0425-.0753-.0751-.1249-.0943zm3.5998 2.5286c-.0187-.0132-.0409-.0205-.0637-.021-.0229-.0005-.0454.0058-.0646.0181-.0193.0124-.0344.0302-.0435.0512s-.0117.0442-.0075.0667c.0037.0536.0225.105.0542.1483.0317.0434.0751.0768.1251.0965.0187.0132.0409.0205.0637.021.0229.0005.0454-.0058.0646-.0181.0193-.0124.0344-.0302.0435-.0512s.0117-.0442.0075-.0667c-.0058-.0521-.026-.1016-.0582-.143-.0323-.0414-.0754-.0731-.1245-.0914zm-.5873-.2172c-.0187-.0128-.0407-.0198-.0634-.0201-.0226-.0004-.0449.006-.0639.0183-.0191.0123-.034.0299-.0431.0507-.009.0208-.0117.0437-.0078.066.0035.0535.022.1049.0536.1483.0315.0433.0747.0768.1246.0966.1.0367.1793-.0138.1793-.115-.0058-.0521-.026-.1017-.0582-.1431-.0323-.0413-.0754-.073-.1246-.0914zm-.6126-.2299c-.0187-.0128-.0408-.0198-.0634-.0201-.0227-.0003-.0449.0061-.0639.0183-.0191.0123-.034.03-.0431.0507-.009.0208-.0117.0438-.0078.0661.0034.0536.0219.1052.0534.1488.0316.0435.0748.0772.1248.0971.1.0368.1793-.0138.1793-.1149-.0059-.0515-.0256-.1005-.0572-.1416s-.0738-.0728-.1221-.0917zm-.5862-.2172c-.0187-.0132-.0409-.0205-.0637-.021-.0229-.0005-.0454.0058-.0646.0181-.0193.0124-.0344.0302-.0435.0511-.0091.021-.0117.0443-.0075.0667.0036.0538.0223.1054.0541.149.0317.0435.0751.0771.1252.097.0187.0132.0409.0205.0637.021.0229.0005.0454-.0058.0646-.0181.0193-.0124.0344-.0302.0435-.0512.0091-.0209.0117-.0442.0075-.0666-.0064-.0519-.0268-.101-.059-.1421s-.075-.0726-.1237-.0913zm-.6149-.2299c-.0187-.0132-.0409-.0205-.0637-.021-.0229-.0005-.0454.0058-.0646.0181-.0193.0124-.0344.0302-.0435.0512s-.0117.0442-.0075.0667c.0039.0536.0227.1051.0544.1486s.075.0772.1249.0973c.0187.0132.0409.0205.0637.0211.0229.0005.0454-.0058.0646-.0182.0193-.0123.0344-.0301.0435-.0511s.0117-.0442.0075-.0667c-.0068-.0514-.0273-.1-.0595-.1407s-.0748-.0719-.1232-.0903zm-1.1988-.4436c-.1-.0368-.1793.0138-.1793.1149.0036.0538.0223.1054.0541.1489.0317.0436.0751.0772.1252.0971.0187.0128.0408.0198.0634.0201.0227.0003.0449-.0061.0639-.0183.019-.0123.034-.03.0431-.0507.009-.0208.0117-.0438.0078-.0661-.0063-.0514-.0266-.1001-.0586-.1408s-.0746-.0719-.123-.0902zm-.59765-.2207c-.01867-.0132-.04087-.0205-.06374-.021-.02286-.0005-.04534.0058-.06459.0181-.01925.0124-.03439.0302-.04347.0511-.00908.021-.01169.0443-.0075.0667.00366.0536.02246.1051.0542.1484.03173.0433.07512.0768.1251.0964.01868.0132.04087.0206.06373.0211s.04536-.0058.06461-.0182c.01925-.0123.03439-.0301.04346-.0511.00905-.021.01165-.0442.0075-.0667-.00662-.0513-.02713-.0999-.05934-.1404s-.07489-.0714-.12341-.0895zm-.61146-.2299c-.01913-.0103-.04066-.0153-.06237-.0144-.0217.0008-.0428.0074-.06109.0192-.01828.0117-.03311.0281-.04293.0475-.00982.0193-.01427.041-.01291.0627.0038.0535.02265.1049.05437.1482s.07502.0768.12493.0966c.01867.0132.04086.0205.06372.021s.04536-.0058.06461-.0181c.01925-.0124.03439-.0302.04347-.0512s.01169-.0442.0075-.0667c-.00736-.0508-.02819-.0987-.06033-.1387s-.07441-.0707-.12242-.0888zm4.22161.9494c-.0187-.0128-.0407-.0198-.0634-.0201-.0226-.0004-.0449.006-.0639.0183-.0191.0123-.034.0299-.0431.0507-.009.0208-.0117.0437-.0078.066.0035.0535.022.1049.0536.1483.0315.0433.0747.0768.1246.0965.1.0368.1793-.0137.1793-.1149-.0068-.051-.0274-.0992-.0596-.1393s-.0748-.0706-.1232-.0883zm-.6126-.2299c-.0187-.0128-.0408-.0198-.0634-.0201-.0227-.0003-.0449.0061-.0639.0183-.0191.0123-.034.03-.0431.0507-.009.0208-.0117.0438-.0078.0661.0034.0536.0219.1052.0534.1488.0316.0435.0748.0772.1248.0971.1.0368.1793-.0138.1793-.1149-.007-.0503-.0274-.0978-.0589-.1376s-.0731-.0705-.1204-.0888zm-.5862-.2172c-.0187-.0132-.0409-.0205-.0637-.021-.0229-.0005-.0454.0058-.0646.0181-.0193.0124-.0344.0302-.0435.0511-.0091.021-.0117.0443-.0075.0667.0036.0538.0223.1054.0541.149.0317.0435.0751.0771.1252.097.0187.0132.0409.0205.0637.021.0229.0005.0454-.0058.0646-.0181.0193-.0124.0344-.0302.0435-.0512.0091-.0209.0117-.0442.0075-.0666-.0076-.0506-.0285-.0983-.0606-.1381s-.0743-.0703-.1221-.0884zm-.6149-.2299c-.0187-.0132-.0409-.0205-.0637-.021-.0229-.0005-.0454.0058-.0646.0181-.0193.0124-.0344.0302-.0435.0512s-.0117.0442-.0075.0667c.0039.0536.0227.1051.0544.1486s.075.0772.1249.0973c.0187.0132.0409.0205.0637.0211.0229.0005.0454-.0059.0646-.0182.0193-.0123.0344-.0301.0435-.0511s.0117-.0442.0075-.0667c-.0079-.0502-.029-.0974-.0611-.1367-.0321-.0394-.0741-.0696-.1216-.0874zm-.5873-.2172c-.0187-.0132-.0409-.0205-.0638-.021-.0228-.0005-.0453.0058-.0646.0181-.0192.0124-.0343.0302-.0434.0511-.0091.021-.0117.0443-.0075.0667.0038.0537.0227.1052.0544.1487s.0749.0772.1249.0973c.1.0368.1793-.0138.1793-.1149-.0077-.0503-.0287-.0976-.0609-.137-.0321-.0394-.0742-.0695-.1219-.0872zm-1.20915-.4483c-.01913-.0102-.04067-.0152-.06238-.0144-.0217.0008-.0428.0075-.06108.0192-.01829.0117-.0331.0281-.04292.0475-.00982.0193-.01429.041-.01292.0627.0038.0535.02264.1049.05436.1482s.07504.0768.12494.0966c.01868.0132.04087.0205.06373.021s.04536-.0058.06461-.0181c.01925-.0124.03439-.0302.04346-.0512.00905-.0209.01165-.0442.0075-.0666-.00812-.05-.02929-.097-.06139-.1361-.03209-.0392-.07395-.0691-.12136-.0869zm5.40195.5609c.0187.0132.0409.0205.0638.0211.0228.0005.0453-.0058.0646-.0182.0192-.0123.0344-.0301.0434-.0511.0091-.021.0117-.0442.0075-.0667-.0038-.0537-.0227-.1052-.0544-.1487s-.0749-.0772-.1249-.0973c-.0186-.0132-.0408-.0205-.0637-.021s-.0453.0058-.0646.0181c-.0192.0124-.0344.0302-.0435.0512-.009.021-.0117.0442-.0075.0667-.001.057.0152.1129.0463.1607.0311.0477.0759.085.1284.1071zm-1.2068-.4471c.0187.0132.0409.0205.0637.0211.0229.0005.0454-.0058.0646-.0182.0193-.0123.0344-.0301.0435-.0511s.0117-.0442.0075-.0667c-.0038-.0537-.0227-.1052-.0544-.1487s-.075-.0772-.1249-.0973c-.0191-.0103-.0407-.0152-.0624-.0144s-.0428.0074-.0611.0192c-.0182.0117-.0331.0281-.0429.0475-.0098.0193-.0143.041-.0129.0627-.001.057.0151.1129.0463.1607.0311.0477.0759.085.1284.1071zm-.5862-.2172c.0187.0132.0409.0205.0638.021.0228.0005.0453-.0058.0646-.0181.0192-.0124.0344-.0302.0434-.0511.0091-.021.0117-.0443.0075-.0667-.0036-.0536-.0224-.1051-.0542-.1484-.0317-.0433-.0751-.0768-.1251-.0964-.0186-.0132-.0408-.0206-.0637-.0211s-.0454.0058-.0646.0182c-.0193.0123-.0344.0301-.0435.0511-.009.021-.0117.0442-.0075.0667-.0009.0568.0153.1126.0464.1602.0312.0475.0759.0846.1283.1064zm-.6126-.2299c.0187.0132.0409.0205.0638.0211.0228.0005.0453-.0058.0646-.0182.0192-.0123.0343-.0301.0434-.0511s.0117-.0442.0075-.0667c-.0038-.0537-.0227-.1052-.0544-.1487s-.075-.0772-.1249-.0973c-.0187-.0132-.0408-.0205-.0637-.021s-.0454.0058-.0646.0181c-.0193.0124-.0344.0302-.0435.0512s-.0117.0442-.0075.0667c-.0012.0582.0154.1154.0477.1639.0322.0485.0786.086.1328.1073zm-1.2022-.4448c.1.0368.1793-.0138.1793-.1149-.0036-.0538-.0223-.1054-.0541-.1489-.0317-.0436-.0751-.0772-.1252-.0971-.0187-.0132-.0409-.0205-.0637-.021-.0229-.0005-.0454.0058-.0646.0181-.0193.0124-.0344.0302-.0435.0512s-.0117.0442-.0075.0667c-.0014.0575.0145.1141.0457.1624.0311.0484.0761.0863.129.1088zm-.5862-.2172c.0187.0132.0409.0205.0638.021.0228.0005.0453-.0058.0646-.0181.0192-.0124.0343-.0302.0434-.0511.0091-.021.0117-.0443.0075-.0667-.0038-.0537-.0227-.1052-.0544-.1487s-.0749-.0772-.1249-.0973c-.0186-.0132-.0408-.0205-.0637-.021s-.0454.0058-.0646.0181c-.0193.0124-.0344.0302-.0435.0512-.009.0209-.0117.0442-.0075.0666-.0014.0575.0146.1141.0457.1625.0312.0484.0761.0863.129.1088zm-.6126-.2299c.0191.0107.0407.016.0626.0154.0219-.0007.0431-.0072.0616-.019.0184-.0119.0332-.0284.0429-.048.0098-.0196.014-.0415.0122-.0633-.0038-.0536-.0226-.1049-.0543-.1483-.0318-.0433-.0751-.0767-.125-.0965-.0187-.0132-.0409-.0205-.0637-.0211-.0229-.0005-.0454.0059-.0646.0182-.0193.0123-.0344.0301-.0435.0511s-.0117.0442-.0075.0667c-.003.0589.0121.1172.0434.1672.0312.0499.0771.0891.1313.1121zm-.5965-.2218c.01868.0132.04087.0205.06373.021s.04536-.0058.06461-.0181c.01925-.0124.03438-.0302.04346-.0511.00908-.021.0117-.0443.0075-.0667-.00386-.0537-.02271-.1052-.05441-.1487s-.07497-.0772-.12489-.0973c-.01913-.0103-.04067-.0153-.06238-.0144-.0217.0008-.0428.0074-.06108.0191-.01829.0118-.0331.0282-.04292.0475-.00982.0194-.01429.0411-.01292.0627-.00193.0578.01375.1148.04495.1634.0312.0487.07645.0867.12975.109zm-.61261-.2299c.09999.0368.1793-.0138.1793-.1149-.00359-.0538-.02234-.1054-.05407-.1489-.03173-.0436-.07516-.0772-.12523-.0971-.01909-.0107-.04071-.016-.06258-.0153-.02186.0006-.04313.0072-.06155.019s-.03327.0284-.04299.048-.01393.0415-.01218.0633c-.00312.0587.01198.1169.04326.1667.03127.0498.07719.0887.13145.1114zm-1.18038-.4367c.01867.0132.04086.0205.06372.021s.04536-.0058.06461-.0181c.01925-.0124.03437-.0302.04345-.0512s.0117-.0442.00751-.0667c-.00359-.0537-.02234-.1054-.05407-.1489-.03174-.0435-.07515-.0772-.12522-.097-.01868-.0132-.04088-.0205-.06374-.0211-.02287-.0005-.04536.0059-.06461.0182s-.03438.0301-.04346.0511c-.00907.021-.01169.0442-.0075.0667-.00279.0587.01245.1168.04369.1665.03123.0497.07696.0887.13101.1117zm5.40199 2.6148c.0187.0132.0409.0205.0637.021.0229.0005.0454-.0058.0646-.0182.0193-.0123.0344-.0301.0435-.0511s.0117-.0442.0075-.0667c-.0038-.0535-.0227-.1049-.0544-.1482s-.075-.0768-.1249-.0966c-.0187-.0132-.0409-.0205-.0637-.021-.0229-.0005-.0454.0058-.0647.0181-.0192.0124-.0343.0302-.0434.0512s-.0117.0442-.0075.0667c-.003.0586.0123.1168.0438.1664s.0777.0883.132.1105zm-1.1988-.4437c.0187.0132.0409.0205.0637.021.0229.0006.0454-.0058.0646-.0181.0193-.0123.0344-.0302.0435-.0511.0091-.021.0117-.0442.0075-.0667-.0039-.0537-.0227-.1052-.0544-.1487s-.075-.0772-.1249-.0973c-.0187-.0132-.0409-.0205-.0637-.021-.0229-.0005-.0454.0058-.0646.0181-.0193.0124-.0344.0302-.0435.0512-.0091.0209-.0117.0442-.0075.0666-.003.0589.0123.1173.0437.1671.0315.0498.0777.0886.1322.1111zm-.616-.2299c.0999.0368.1792-.0138.1792-.1149-.0035-.0537-.0223-.1054-.054-.1489-.0318-.0435-.0752-.0772-.1252-.0971-.0187-.0132-.0409-.0205-.0638-.021-.0228-.0005-.0453.0058-.0646.0182-.0192.0123-.0344.0301-.0435.0511-.009.021-.0116.0442-.0075.0667-.0031.0591.0121.1179.0435.1681.0315.0502.0777.0894.1324.1123zm-.5862-.2172c.0187.0132.0408.0205.0637.021.0229.0006.0454-.0058.0646-.0181.0193-.0123.0344-.0301.0435-.0511s.0117-.0442.0075-.0667c-.0039-.0537-.0227-.1052-.0544-.1487s-.075-.0772-.1249-.0973c-.0187-.0132-.0409-.0205-.0638-.021-.0228-.0005-.0453.0058-.0646.0181-.0192.0124-.0343.0302-.0434.0512s-.0117.0442-.0075.0667c-.0032.0591.012.1178.0435.168.0314.0502.0777.0895.1323.1124zm-.6126-.2299c.019.0107.0407.016.0625.0154.0219-.0007.0432-.0072.0616-.019s.0333-.0284.043-.048.0139-.0415.0122-.0633c-.0038-.0535-.0227-.1049-.0544-.1482-.0317-.0434-.075-.0768-.1249-.0966-.0187-.0132-.0409-.0205-.0638-.021-.0228-.0006-.0453.0058-.0646.0181-.0192.0124-.0344.0301-.0434.0511-.0091.021-.0117.0442-.0075.0667-.0037.0596.0113.1188.0428.1695.0315.0506.078.0902.133.1133zm-.59655-.2218c.01868.0132.04087.0205.06373.021.02286.0006.04536-.0058.06461-.0181s.03438-.0301.04346-.0511.01165-.0442.00749-.0667c-.00366-.0536-.02244-.1051-.05418-.1484s-.07512-.0768-.12511-.0964c-.01868-.0132-.04086-.0205-.06372-.0211-.02286-.0005-.04536.0058-.06461.0182-.01925.0123-.03439.0301-.04347.0511s-.01169.0442-.0075.0667c-.00402.0596.0108.119.04235.1697.03156.0508.07825.0903.1335.113zm5.40195-.4149c.0187.0132.0409.0205.0638.021.0228.0005.0453-.0058.0646-.0181.0192-.0124.0344-.0302.0434-.0512.0091-.0209.0117-.0442.0075-.0666-.0038-.0537-.0227-.1052-.0544-.1487s-.0749-.0772-.1249-.0973c-.0191-.0103-.0406-.0153-.0623-.0145-.0217.0009-.0428.0075-.0611.0192-.0183.0118-.0331.0282-.0429.0475-.0099.0194-.0143.0411-.013.0627-.0041.06.0107.1197.0425.1707s.0789.0906.1345.1132zm-.5861-.2172c.0186.0132.0408.0205.0637.021s.0454-.0058.0646-.0182c.0193-.0123.0344-.0301.0435-.0511.009-.021.0117-.0442.0075-.0667-.0037-.0536-.0225-.105-.0542-.1483-.0318-.0434-.0751-.0768-.1251-.0965-.0187-.0132-.0409-.0205-.0638-.021-.0228-.0005-.0453.0058-.0646.0181-.0192.0124-.0344.0302-.0434.0512-.0091.021-.0117.0442-.0075.0666-.004.0598.011.1193.0428.17.0318.0508.0787.0902.1342.1128zm-.6207-.2299c.0191.0103.0407.0153.0624.0144.0217-.0008.0428-.0074.0611-.0191.0183-.0118.0331-.0282.0429-.0475.0098-.0194.0143-.0411.0129-.0627-.0038-.0536-.0226-.105-.0544-.1483-.0317-.0433-.075-.0768-.1249-.0966-.0187-.0132-.0409-.0205-.0637-.021-.0229-.0005-.0454.0058-.0646.0182-.0193.0123-.0344.0301-.0435.0511s-.0117.0442-.0075.0667c-.0038.0599.0112.1194.0429.1703.0318.051.0787.0907.1341.1136zm-.5862-.2172c.0191.0107.0408.016.0626.0153.0219-.0006.0432-.0072.0616-.019s.0332-.0284.043-.048c.0097-.0196.0139-.0415.0121-.0633-.0038-.0535-.0226-.1049-.0543-.1482-.0318-.0433-.0751-.0768-.125-.0966-.0186-.0132-.0408-.0205-.0637-.021s-.0454.0058-.0646.0181c-.0193.0124-.0344.0302-.0435.0512-.009.0209-.0117.0442-.0075.0667-.004.06.0109.1198.0426.171.0318.0511.0788.091.1344.114zm-3.6101-1.3367c.01913.0103.04066.0152.06237.0144.0217-.0008.0428-.0074.06108-.0192.01829-.0117.03312-.0281.04294-.0475.00982-.0193.01427-.041.0129-.0627-.00379-.0535-.02263-.1049-.05435-.1482s-.07503-.0768-.12494-.0966c-.01868-.0132-.04086-.0205-.06372-.021-.02287-.0005-.04536.0058-.06461.0181-.01925.0124-.03439.0302-.04347.0512s-.01169.0442-.0075.0666c-.00383.0599.01118.1195.04293.1704.03174.0509.07862.0906.13407.1135zm-.6126-.2299c.09999.0368.17929-.0138.17929-.1149-.00339-.0537-.02207-.1053-.05385-.1487-.03177-.0434-.0753-.0767-.12544-.0962-.01868-.0132-.04088-.0205-.06374-.021s-.04536.0058-.06461.0182c-.01925.0123-.03437.0301-.04345.0511s-.0117.0442-.00751.0667c-.00486.0603.00969.1206.04153.1721s.07932.0915.13548.1141zm-.59423-.2195c.01868.0132.04087.0205.06373.021s.04536-.0058.06461-.0182c.01925-.0123.03439-.0301.04347-.0511.00907-.021.01168-.0442.00749-.0667-.00386-.0537-.0227-.1052-.0544-.1486-.0317-.0435-.07498-.0772-.1249-.0973-.01867-.0132-.04086-.0206-.06372-.0211s-.04536.0058-.06461.0182c-.01925.0123-.03439.0301-.04347.0511-.00907.021-.01169.0442-.0075.0667-.00458.0604.01009.1208.04188.1724s.07908.0918.13512.1149zm-.58617-.2173c.01868.0132.04087.0205.06373.0211.02286.0005.04536-.0058.06461-.0182.01925-.0123.03439-.0301.04347-.0511.00907-.021.01168-.0442.00749-.0667-.00386-.0537-.02271-.1052-.05441-.1487s-.07497-.0772-.12489-.0973c-.01867-.0132-.04087-.0205-.06373-.021-.02287-.0005-.04535.0058-.0646.0182-.01925.0123-.03439.0301-.04347.0511-.00907.021-.01169.0442-.0075.0667-.00458.0604.01009.1208.04188.1724s.07908.0918.13512.1149zm7.1961 3.8826c.0187.0132.0409.0205.0638.021.0228.0005.0453-.0058.0646-.0181.0192-.0124.0344-.0302.0434-.0512.0091-.021.0117-.0442.0075-.0667-.0038-.0536-.0227-.1052-.0544-.1486-.0317-.0435-.0749-.0772-.1249-.0973-.0186-.0132-.0408-.0205-.0637-.0211-.0228-.0005-.0453.0058-.0646.0182-.0192.0123-.0344.0301-.0435.0511-.009.021-.0117.0442-.0075.0667-.0049.0605.0096.121.0414.1727.0319.0517.0794.0918.1356.1146zm-.5861-.2173c.0186.0132.0408.0206.0637.0211s.0454-.0058.0646-.0182c.0193-.0123.0344-.0301.0435-.0511.009-.021.0117-.0442.0075-.0667-.0039-.0537-.0227-.1052-.0544-.1487s-.075-.0772-.1249-.0973c-.0187-.0132-.0409-.0205-.0638-.021-.0228-.0005-.0453.0058-.0646.0182-.0192.0123-.0344.0301-.0434.0511-.0091.021-.0117.0442-.0075.0667-.005.0605.0095.121.0414.1727.0318.0516.0793.0918.1356.1146zm-.6207-.2298c.0187.0132.0409.0205.0637.021.0229.0005.0454-.0058.0646-.0182.0193-.0123.0344-.0301.0435-.0511s.0117-.0442.0075-.0667c-.0039-.0536-.0227-.1052-.0544-.1486-.0317-.0435-.075-.0772-.1249-.0973-.0191-.0103-.0407-.0153-.0624-.0145-.0217.0009-.0428.0075-.061.0192-.0183.0117-.0332.0281-.043.0475s-.0143.041-.0129.0627c-.0049.0605.0096.121.0414.1727s.0794.0918.1356.1146zm-.5862-.2173c.0187.0132.0409.0206.0638.0211.0228.0005.0453-.0058.0646-.0182.0192-.0123.0344-.0301.0434-.0511.0091-.021.0117-.0442.0075-.0667-.0036-.0536-.0224-.105-.0542-.1484-.0317-.0433-.0751-.0767-.1251-.0964-.0186-.0132-.0408-.0205-.0637-.021-.0229-.0006-.0454.0058-.0646.0181-.0193.0123-.0344.0301-.0435.0511-.009.021-.0117.0442-.0075.0667-.0046.0603.01.1206.0418.172.0318.0515.0792.0915.1352.1142zm-.6126-.2298c.0187.0132.0409.0205.0638.021.0228.0005.0453-.0058.0646-.0182.0192-.0123.0343-.0301.0434-.0511s.0117-.0442.0075-.0667c-.0038-.0536-.0227-.1052-.0544-.1486-.0317-.0435-.075-.0772-.1249-.0973-.0187-.0132-.0408-.0205-.0637-.0211-.0229-.0005-.0454.0058-.0646.0182-.0193.0123-.0344.0301-.0435.0511s-.0117.0442-.0075.0667c-.0049.0617.0102.1233.0432.1757.0329.0524.0819.0928.1396.1151zm-.5861-.2173c.0186.0132.0408.0206.0637.0211.0228.0005.0453-.0058.0646-.0182.0192-.0123.0344-.0301.0435-.0511.009-.021.0117-.0442.0075-.0667-.0039-.0537-.0227-.1052-.0544-.1487s-.075-.0772-.1249-.0973c-.0187-.0132-.0409-.0205-.0638-.021-.0228-.0005-.0453.0058-.0646.0182-.0192.0123-.0344.0301-.0434.0511-.0091.021-.0117.0442-.0075.0667-.0054.061.0089.1221.0408.1744.0318.0523.0795.0931.1362.1164zm-1.2023-.4448c.0187.0132.0409.0205.0638.0211.0228.0005.0453-.0058.0646-.0182.0192-.0123.0344-.0301.0434-.0511.0091-.021.0117-.0442.0075-.0667-.0038-.0537-.0227-.1052-.0544-.1487s-.075-.0772-.1249-.0973c-.0186-.0132-.0408-.0205-.0637-.021s-.0454.0058-.0646.0182c-.0193.0123-.0344.0301-.0435.0511-.009.021-.0117.0442-.0075.0667-.0053.061.009.1221.0408.1744.0319.0523.0796.0931.1362.1164zm-.6126-.2298c.0191.0103.0407.0152.0624.0144s.0428-.0074.0611-.0192c.0183-.0117.0331-.0281.0429-.0475.0098-.0193.0143-.041.0129-.0627-.0038-.0535-.0226-.1049-.0543-.1482-.0318-.0433-.0751-.0768-.125-.0966-.0187-.0132-.0409-.0205-.0637-.021-.0229-.0005-.0454.0058-.0646.0181-.0193.0124-.0344.0302-.0435.0512s-.0117.0442-.0075.0667c-.0058.0613.0082.123.0401.1757.0319.0528.0799.0939.1369.1173zm-.5965-.2219c.01868.0132.04087.0206.06373.0211s.04536-.0058.06461-.0182c.01925-.0123.03438-.0301.04346-.0511s.0117-.0442.00749-.0667c-.00385-.0537-.02269-.1052-.05439-.1487s-.07498-.0772-.1249-.0973c-.01913-.0102-.04067-.0152-.06238-.0144-.0217.0008-.04278.0074-.06107.0192-.01829.0117-.03311.0281-.04293.0475-.00982.0193-.01429.041-.01292.0627-.00781.0625.00533.1259.03736.1801.03202.0543.08113.0965.13964.1199zm-.6126-.2298c.09999.0367.17929-.0138.17929-.115-.00359-.0537-.02234-.1054-.05407-.1489-.03174-.0435-.07515-.0772-.12522-.097-.01868-.0132-.04088-.0205-.06374-.0211-.02286-.0005-.04536.0058-.06461.0182-.01925.0123-.03437.0301-.04345.0511s-.0117.0442-.00751.0667c-.00781.0625.00532.1259.03735.1802s.08114.0964.13966.1198zm-.59423-.2196c.01909.0107.04072.016.06258.0154.02186-.0007.04314-.0072.06155-.019.01842-.0118.03329-.0284.043-.048.00972-.0196.01392-.0415.01217-.0633-.0038-.0535-.02263-.1049-.05436-.1482-.03172-.0434-.07503-.0768-.12494-.0966-.01867-.0132-.04086-.0205-.06372-.021-.02286-.0006-.04536.0058-.06461.0181s-.03439.0301-.04347.0511c-.00907.021-.01169.0442-.0075.0667-.00662.062.00706.1244.03899.1779.03192.0534.08036.0951.13801.1187zm-.58617-.2172c.01909.0107.04071.016.06258.0154.02186-.0007.04313-.0073.06155-.0191s.03329-.0284.043-.048c.00972-.0195.01392-.0414.01217-.0632-.0038-.0536-.02265-.105-.05437-.1483s-.07502-.0768-.12493-.0965c-.01867-.0132-.04087-.0206-.06373-.0211-.02287-.0005-.04535.0058-.0646.0182-.01925.0123-.03439.0301-.04347.0511-.00907.021-.01169.0442-.0075.0667-.00663.0619.00706.1243.03899.1778.03192.0535.08036.0952.13801.1187zm7.1938 2.0999c.0187.0132.0409.0205.0638.021.0228.0005.0453-.0058.0646-.0181.0192-.0124.0344-.0302.0434-.0512.0091-.0209.0117-.0442.0075-.0666-.0038-.0537-.0227-.1052-.0544-.1487s-.0749-.0772-.1249-.0973c-.0186-.0132-.0408-.0205-.0637-.021-.0228-.0006-.0453.0058-.0646.0181-.0192.0123-.0344.0301-.0435.0511-.009.021-.0117.0442-.0075.0667.0039.0537.0227.1052.0544.1487s.075.0772.1249.0973zm-.5861-.2172c.0186.0132.0408.0205.0637.021s.0454-.0058.0646-.0182c.0193-.0123.0344-.0301.0435-.0511.009-.021.0117-.0442.0075-.0667-.0039-.0537-.0227-.1052-.0544-.1486-.0317-.0435-.075-.0772-.1249-.0973-.0187-.0132-.0409-.0206-.0638-.0211-.0228-.0005-.0453.0058-.0646.0182-.0192.0123-.0344.0301-.0434.0511-.0091.021-.0117.0442-.0075.0667.0036.0539.0224.1056.0541.1493s.0751.0776.1252.0978zm-.6207-.2299c.0187.0132.0409.0205.0637.021.0229.0005.0454-.0058.0646-.0181.0193-.0124.0344-.0302.0435-.0512s.0117-.0442.0075-.0666c-.0039-.0537-.0227-.1052-.0544-.1487s-.075-.0772-.1249-.0973c-.0191-.0107-.0407-.016-.0626-.0154-.0218.0007-.0431.0073-.0615.0191s-.0333.0284-.043.048c-.0097.0195-.0139.0414-.0122.0632.0034.054.022.1059.0538.1496.0317.0438.0753.0776.1255.0975zm-.5862-.2172c.0187.0131.0409.0205.0638.021.0228.0005.0453-.0058.0646-.0182.0192-.0123.0344-.0301.0434-.0511.0091-.021.0117-.0442.0075-.0667-.0038-.0537-.0227-.1052-.0544-.1487-.0317-.0434-.0749-.0771-.1249-.0972-.0191-.0103-.0406-.0153-.0623-.0145s-.0428.0075-.0611.0192-.0331.0281-.0429.0475c-.0099.0194-.0143.041-.013.0627.0034.054.0221.1058.0538.1496.0318.0437.0753.0776.1255.0975zm-.6126-.2299c.0187.0132.0409.0205.0638.021.0228.0005.0453-.0058.0646-.0181.0192-.0124.0343-.0302.0434-.0512.0091-.0209.0117-.0442.0075-.0667-.0038-.0536-.0227-.1051-.0544-.1486s-.075-.0772-.1249-.0973c-.0187-.0132-.0408-.0205-.0637-.021-.0229-.0006-.0454.0058-.0646.0181-.0193.0123-.0344.0302-.0435.0511-.0091.021-.0117.0442-.0075.0667.0035.0552.0228.1081.0557.1526.0328.0444.0777.0784.1294.098zm-2.401-.8896c.0187.0132.0409.0205.0638.021.0228.0005.0453-.0058.0646-.0181.0192-.0124.0343-.0302.0434-.0512s.0117-.0442.0075-.0667c-.0038-.0535-.0226-.1049-.0543-.1482-.0318-.0433-.0751-.0768-.125-.0966-.0187-.0132-.0409-.0205-.0637-.021-.0229-.0005-.0454.0058-.0646.0181-.0193.0124-.0344.0302-.0435.0512s-.0117.0442-.0075.0667c.0028.0544.0212.1068.053.151s.0757.0784.1263.0984zm-.5965-.2207c.01868.0132.04086.0205.06373.021.02286.0006.04535-.0058.06461-.0181.01925-.0124.03438-.0302.04346-.0511.00908-.021.0117-.0442.00751-.0667-.00386-.0537-.02271-.1052-.05441-.1487s-.07498-.0772-.1249-.0973c-.01908-.0107-.04071-.016-.06257-.0154-.02187.0007-.04314.0073-.06155.0191-.01842.0118-.03329.0284-.04301.048-.00971.0196-.01391.0414-.01216.0632.00274.0546.02108.1072.05286.1516.03179.0445.07568.0788.12643.099zm-.6126-.2299c.09999.0368.17929-.0138.17929-.1149-.00359-.0538-.02234-.1054-.05407-.1489-.03174-.0436-.07515-.0772-.12522-.0971-.01868-.0132-.04088-.0205-.06374-.021s-.04535.0058-.0646.0182c-.01925.0123-.03438.0301-.04346.0511s-.0117.0442-.00751.0667c.00209.0551.02014.1085.05197.1536s.07607.0799.12734.1004zm-.59423-.2195c.01909.0107.04071.016.06258.0154.02186-.0007.04315-.0073.06156-.0191.01842-.0118.03328-.0284.04299-.048.00972-.0196.01393-.0414.01218-.0632-.0038-.0536-.02265-.105-.05437-.1483s-.07503-.0768-.12494-.0965c-.01867-.0132-.04086-.0206-.06372-.0211s-.04536.0058-.06461.0182c-.01925.0123-.03439.0301-.04347.0511s-.01168.0442-.00749.0667c.00259.0549.02085.1079.05263.1527s.07573.0796.12666.1001zm-.58617-.2172c.01909.0107.04071.016.06258.0153.02186-.0006.04313-.0072.06155-.019.01841-.0118.03329-.0284.043-.048.00972-.0196.01392-.0415.01217-.0633-.0038-.0535-.02264-.1049-.05436-.1482s-.07503-.0768-.12494-.0966c-.01867-.0132-.04086-.0205-.06372-.021s-.04536.0058-.06461.0181c-.01925.0124-.03439.0302-.04347.0512s-.01169.0442-.0075.0667c.00258.0548.02085.1078.05262.1526.03178.0449.07575.0796.12668.1002zm7.2099 1.4746c.0187.0132.0409.0205.0638.021.0228.0005.0453-.0058.0646-.0181.0192-.0123.0344-.0302.0434-.0511.0091-.021.0117-.0442.0075-.0667-.0038-.0537-.0227-.1052-.0544-.1487s-.0749-.0772-.1249-.0973c-.0191-.0107-.0407-.016-.0625-.0153-.0219.0006-.0432.0072-.0616.019s-.0333.0284-.043.048-.0139.0414-.0122.0632c.0036.0538.0224.1054.0541.149.0317.0435.0752.0771.1252.097zm-.5861-.5747c-.0192-.0103-.0407-.0153-.0624-.0144-.0217.0008-.0428.0074-.0611.0192-.0183.0117-.0331.0281-.0429.0475-.0098.0193-.0143.041-.0129.0627.0038.0535.0226.1049.0543.1482s.0751.0768.125.0966c.0186.0132.0408.0205.0637.021.0228.0005.0453-.0058.0646-.0181.0192-.0124.0344-.0302.0435-.0512.009-.021.0116-.0442.0075-.0667-.0044-.0543-.0241-.1063-.0569-.1498-.0327-.0436-.0772-.0769-.1282-.0961zm-.6207-.2298c-.0187-.0132-.0409-.0206-.0637-.0211-.0229-.0005-.0454.0058-.0646.0182-.0193.0123-.0344.0301-.0435.0511s-.0117.0442-.0075.0667c.0037.0536.0225.105.0542.1484.0317.0433.0751.0767.1251.0964.0187.0132.0409.0205.0637.021.0229.0005.0454-.0058.0646-.0181.0193-.0124.0344-.0302.0435-.0511.0091-.021.0117-.0443.0075-.0667-.0043-.0542-.024-.1061-.0568-.1495-.0327-.0433-.0773-.0764-.1282-.0953zm-.5862-.2173c-.0186-.0132-.0408-.0205-.0637-.021s-.0454.0058-.0646.0181c-.0193.0124-.0344.0302-.0435.0512-.009.021-.0117.0442-.0075.0667.0039.0536.0227.1051.0544.1486s.075.0772.1249.0973c.0192.0103.0407.0153.0624.0145.0217-.0009.0428-.0075.0611-.0192s.0331-.0281.0429-.0475.0143-.041.0129-.0627c-.004-.0544-.0236-.1065-.0564-.1501s-.0775-.0769-.1286-.0959zm-.6126-.2298c-.0191-.0107-.0407-.016-.0626-.0154-.0218.0006-.0431.0072-.0615.019s-.0333.0284-.043.048-.0139.0415-.0122.0633c.0038.0535.0227.1049.0544.1482.0317.0434.075.0768.1249.0966.0187.0132.0409.0205.0638.021.0228.0005.0453-.0058.0646-.0181.0192-.0124.0343-.0302.0434-.0511.0091-.021.0117-.0443.0075-.0667-.0051-.054-.0255-.1054-.0586-.1484-.0332-.0429-.0778-.0755-.1287-.0942zm-2.4067-.8851c-.0187-.0131-.0409-.0205-.0638-.021-.0228-.0005-.0453.0058-.0646.0182-.0192.0123-.0344.0301-.0434.0511-.0091.021-.0117.0442-.0075.0667.0038.0537.0227.1052.0544.1487.0317.0434.0749.0772.1249.0972.0186.0132.0408.0206.0637.0211s.0453-.0058.0646-.0182c.0193-.0123.0344-.0301.0435-.0511.009-.021.0116-.0442.0075-.0667-.0036-.0537-.0224-.1054-.0541-.1489s-.0752-.0772-.1252-.0971zm-.59656-.2206c-.01868-.0132-.04086-.0205-.06373-.0211-.02286-.0005-.04535.0058-.0646.0182-.01926.0123-.03438.0301-.04346.0511-.00907.021-.01169.0442-.0075.0667.00366.0536.02246.105.0542.1484.03173.0433.0751.0768.12509.0964.01868.0132.04088.0205.06374.021.02286.0006.04536-.0058.06461-.0181s.03437-.0301.04345-.0511c.00906-.021.01166-.0442.00746-.0667-.00354-.0538-.02229-.1054-.05403-.1489-.03173-.0436-.07516-.0772-.12523-.0971zm-.6126-.2299c-.01869-.0128-.04073-.0198-.06338-.0201-.02265-.0004-.04489.006-.06392.0183s-.03403.0299-.04307.0507c-.00905.0208-.01174.0437-.00778.066.00357.0535.02219.1049.05371.1482.03153.0433.07467.0768.12444.0967.09999.0367.1793-.0138.1793-.115-.00381-.0532-.0227-.1043-.05445-.1473-.03174-.0429-.07505-.0759-.12485-.0952zm-.59423-.2207c-.01867-.0132-.04086-.0205-.06372-.021s-.04536.0058-.06461.0181c-.01925.0124-.03437.0302-.04345.0512s-.0117.0442-.00751.0667c.00386.0536.02271.1051.05441.1486s.07496.0772.12488.0973c.01868.0132.04088.0205.06374.0211.02286.0005.04536-.0059.06461-.0182s.03438-.0301.04345-.0511c.00908-.021.0117-.0442.00751-.0667-.00427-.0533-.02331-.1043-.05498-.1474-.03168-.043-.07474-.0764-.12433-.0963zm-.58617-.2172c-.01868-.0132-.04086-.0205-.06372-.021s-.04536.0058-.06461.0181c-.01925.0124-.03439.0302-.04347.0511-.00908.021-.01168.0443-.00749.0667.00386.0537.02271.1052.05441.1487s.07496.0772.12488.0973c.01868.0132.04087.0205.06373.021s.04536-.0058.06461-.0181c.01925-.0124.03438-.0302.04346-.0512.00908-.0209.0117-.0442.00751-.0666-.00427-.0533-.02331-.1043-.05498-.1474-.03168-.043-.07474-.0764-.12433-.0963z" fill="#dbdbdb" fill-rule="evenodd"/><path clip-rule="evenodd" d="m26.9546 26.6717c-.0485.0283-.0893.0681-.119.1157-.0296.0477-.0472.1019-.0511.1579 0 .0988.0759.1368.1701.085.0483-.0282.0891-.0677.1187-.1151.0296-.0475.0473-.1015.0514-.1573-.0011-.1-.077-.1379-.1701-.0862zm-1.1494.6322c-.0483.0282-.089.0677-.1187.1152-.0296.0474-.0472.1014-.0514.1572 0 .0988.0759.1379.1701.0862.048-.0289.0884-.0688.118-.1163.0296-.0476.0474-.1015.0521-.1573.0035-.0988-.0735-.1367-.1701-.085zm-3.4273 1.8895c-.0482.0284-.0887.068-.1181.1154-.0294.0475-.0469.1013-.0509.157 0 .0989.0759.1379.169.0862.0484-.0283.0893-.068.1189-.1157.0297-.0476.0472-.1018.0512-.1578.0034-.0989-.0759-.1368-.1667-.0851zm-1.1494.631c-.0481.0288-.0886.0686-.1182.1162s-.0474.1015-.0519.1574c0 .0988.077.1368.1701.085.0485-.0283.0893-.068.119-.1157.0296-.0476.0472-.1018.0511-.1578.0081-.0989-.0678-.1368-.1621-.0851zm5.1284-2.2251c-.0484.0283-.0893.068-.1189.1157-.0297.0476-.0472.1018-.0512.1578 0 .0989.0759.1368.1701.0851.0484-.0282.0891-.0678.1187-.1152.0297-.0475.0473-.1014.0514-.1572.0081-.1-.0678-.138-.162-.0862zm-4.5641 2.5171c-.0485.0283-.0893.068-.1189.1157-.0297.0476-.0472.1018-.0512.1578 0 .0989.0759.1368.1701.0851.0485-.0283.0893-.068.119-.1157.0296-.0477.0472-.1019.0511-.1579.0081-.0988-.0655-.1368-.162-.085zm5.1618-4.6469c-.0485.0283-.0893.068-.119.1157-.0296.0477-.0472.1019-.0511.1579 0 .0988.077.1367.1701.085.0485-.0283.0893-.068.119-.1157.0296-.0477.0472-.1018.0511-.1578.0012-.0989-.0747-.1368-.1701-.0851zm-1.1494.631c-.0481.0287-.0887.0685-.1183.1161s-.0473.1016-.0518.1575c0 .0988.0759.1367.1701.085.0484-.0282.0891-.0677.1187-.1152.0297-.0474.0473-.1014.0514-.1572.0058-.0988-.0701-.1379-.1643-.0862zm-.5815.3207c-.0482.0287-.0888.0685-.1184.1161s-.0473.1016-.0517.1574c0 .0989.0758.1368.1701.0851.0483-.0282.089-.0677.1187-.1152.0296-.0475.0473-.1014.0514-.1572.0057-.0989-.0701-.1379-.1632-.0862zm-.5563.308c-.0484.0282-.0891.0677-.1187.1152-.0297.0474-.0473.1014-.0514.1572 0 .0988.0758.1379.1701.0851.0483-.0282.089-.0678.1187-.1152.0296-.0475.0473-.1014.0514-.1572.0057-.0989-.0667-.1368-.1644-.0851zm-1.1413.6287c-.0484.0282-.0891.0677-.1187.1152-.0297.0474-.0473.1014-.0514.1572 0 .1.077.1379.1701.0862.0484-.0283.0893-.068.1189-.1157.0297-.0477.0472-.1018.0512-.1578.0057-.0989-.0747-.1368-.1644-.0851zm-.5747.3207c-.0483.0282-.0891.0677-.1187.1152-.0297.0474-.0473.1014-.0514.1572 0 .0988.0758.1379.1701.0862.0481-.0288.0886-.0686.1182-.1162s.0474-.1015.0519-.1574c0-.0988-.0747-.1367-.1701-.0839zm-.5666.3126c-.0484.0282-.0891.0677-.1187.1152-.0297.0474-.0473.1014-.0515.1572 0 .0988.0759.1379.1702.0851.0483-.0282.089-.0678.1186-.1152.0297-.0475.0473-.1014.0515-.1572 0-.0989-.0771-.1368-.1701-.0851zm-1.1494.631c-.0483.0282-.0891.0677-.1187.1152-.0296.0474-.0473.1014-.0514.1572 0 .1.0758.1379.1701.0862.0481-.0287.0886-.0686.1182-.1162.0296-.0475.0474-.1015.0519-.1573.0046-.0989-.0724-.1368-.1655-.0851zm6.2732-2.8631c-.0485.0283-.0893.0681-.119.1157-.0296.0477-.0472.1019-.0511.1579 0 .0988.0758.1368.1701.085.0485-.0283.0893-.068.1189-.1156.0297-.0477.0473-.1019.0512-.1579.0046-.0988-.0724-.1368-.1655-.0851zm-1.1494.6322c-.0483.0282-.089.0677-.1187.1152-.0296.0474-.0472.1014-.0514.1572 0 .0988.0759.1379.1701.085.0484-.0281.0891-.0677.1187-.1151.0297-.0475.0473-.1015.0514-.1572.0081-.0989-.0678-.1368-.162-.0851zm-1.1378.6275c-.0484.0282-.0891.0678-.1187.1152-.0297.0475-.0473.1014-.0514.1572 0 .0989.0758.138.1701.0862.0481-.0286.0887-.0684.1183-.116s.0474-.1016.0518-.1575c.008-.0988-.0678-.1368-.1609-.0851zm-2.2781 1.2563c-.0484.0283-.0893.068-.1189.1157-.0297.0477-.0472.1018-.0512.1578 0 .0989.0759.1368.1701.0851.0481-.0288.0887-.0686.1183-.1162.0295-.0475.0473-.1015.0518-.1574.0081-.0988-.0666-.1367-.162-.085zm-1.1493.6333c-.0483.0282-.0891.0677-.1187.1152-.0297.0474-.0473.1014-.0514.1572 0 .0988.077.1368.1701.085.0483-.0282.0891-.0677.1187-.1151.0296-.0475.0473-.1015.0514-.1573.0092-.0988-.0667-.1379-.1609-.085zm-1.1206.6172c-.0485.0283-.0894.068-.119.1157-.0297.0477-.0472.1018-.0511.1578 0 .0989.0758.1368.1701.0851.0483-.0282.089-.0677.1187-.1152.0296-.0475.0472-.1014.0514-.1572.0092-.0931-.0667-.1379-.1609-.0862zm4.5572-4.8859c-.0484.0282-.0891.0677-.1187.1152-.0297.0474-.0473.1014-.0514.1572 0 .0988.0758.1367.1701.085.0483-.0282.089-.0677.1187-.1152.0296-.0474.0472-.1014.0514-.1572-.0012-.0988-.077-.1368-.1701-.085zm-.5563.3068c-.0483.0282-.0891.0678-.1187.1152-.0297.0475-.0473.1015-.0514.1573 0 .0988.0758.1379.1701.0862.0481-.0288.0886-.0686.1182-.1162s.0474-.1015.0519-.1574c-.0012-.0988-.0736-.1368-.1713-.0851zm-.5839.3219c-.0483.0282-.0891.0677-.1187.1152-.0296.0474-.0473.1014-.0514.1572 0 .1.0758.1379.1701.0862.0481-.0288.0886-.0686.1182-.1162s.0474-.1015.0519-.1574c-.0011-.0988-.0782-.1368-.1713-.0873zm-.5574.3068c-.0485.0284-.0894.0681-.119.1157-.0296.0477-.0472.1019-.0511.1579 0 .0988.077.1368.1701.085.0484-.0283.0893-.068.1189-.1156.0297-.0477.0472-.1019.0512-.1579-.0012-.0988-.0816-.1368-.1713-.0851zm-.5747.3207c-.0483.0282-.0891.0677-.1187.1152-.0297.0475-.0473.1014-.0514.1572 0 .1.0758.1379.1701.0862.0481-.0287.0886-.0686.1182-.1161.0296-.0476.0474-.1016.0519-.1574-.0069-.0989-.0816-.1403-.177-.0851zm3.4159-.6896c-.0485.0283-.0893.068-.119.1157-.0296.0477-.0472.1019-.0511.1579 0 .0988.0758.1367.1701.085.0483-.0282.089-.0677.1187-.1152.0296-.0474.0473-.1014.0514-.1572-.0069-.0942-.0828-.1333-.177-.0816zm-.5563.3069c-.0482.0287-.0887.0685-.1183.1161s-.0474.1016-.0518.1574c0 .0989.0758.1368.1701.0851.0483-.0282.0891-.0677.1187-.1152s.0473-.1014.0514-.1572c-.0069-.0943-.0828-.1333-.177-.0816zm-.5873.3276c-.0485.0283-.0894.068-.119.1156-.0296.0477-.0472.1019-.0511.1579 0 .0988.0758.1368.1701.0851.0483-.0282.089-.0678.1187-.1152.0296-.0475.0472-.1014.0514-.1572-.0012-.1012-.077-.1403-.1701-.0862zm-.5563.308c-.0483.0282-.0891.0677-.1187.1152-.0297.0474-.0473.1014-.0514.1572 0 .0988.0758.1379.1701.085.0483-.0282.089-.0677.1187-.1152.0296-.0474.0473-.1014.0514-.1572-.0012-.1011-.0736-.139-.1713-.0873zm-.5839.3218c-.0483.0282-.0891.0677-.1187.1152-.0296.0474-.0473.1014-.0514.1572 0 .0988.0758.1379.1701.0862.0481-.0288.0886-.0686.1182-.1162.0296-.0475.0474-.1015.0519-.1574-.0011-.1011-.0782-.1402-.1713-.0873zm-1.1379.6276c-.0483.0281-.089.0677-.1187.1151-.0296.0475-.0473.1014-.0514.1572 0 .0989.0759.138.1701.0862.0481-.0287.0887-.0685.1182-.1161.0296-.0476.0474-.1015.0519-.1574-.0011-.1011-.0758-.1391-.1712-.0874zm-.5666.3126c-.0483.0282-.0891.0677-.1187.1152-.0296.0474-.0473.1014-.0514.1572 0 .0988.0759.1379.1701.085.0483-.0282.0891-.0677.1187-.1152.0296-.0474.0473-.1014.0514-.1572-.0011-.1011-.0782-.139-.1712-.0873zm-.5816.3195c-.0481.0287-.0886.0686-.1182.1162-.0296.0475-.0474.1015-.0519.1573 0 .0989.077.1368.1701.0851.0483-.0282.0891-.0677.1187-.1152.0297-.0474.0473-.1014.0514-.1572-.0011-.1023-.077-.1368-.1712-.0885zm4.0078-2.8251c-.0484.0283-.0893.068-.1189.1157-.0297.0476-.0472.1018-.0512.1578 0 .0989.0759.1368.1701.0851.0484-.0282.0891-.0678.1187-.1152.0297-.0475.0473-.1014.0514-.1572-.0011-.1012-.077-.1402-.1712-.0885zm-.5815.3206c-.0485.0284-.0894.0681-.119.1157-.0296.0477-.0472.1019-.0511.1579 0 .0988.0758.1368.1701.085.0483-.0281.089-.0677.1187-.1151.0296-.0475.0472-.1015.0514-.1573-.0012-.1011-.077-.1402-.1701-.0885zm-.5563.3081c-.0483.0282-.0891.0677-.1187.1152-.0297.0474-.0473.1014-.0514.1572 0 .0988.0758.1367.1701.085.0483-.0282.089-.0677.1187-.1152.0296-.0474.0473-.1014.0514-.1572-.0012-.1011-.0736-.1402-.1713-.0873zm-.5839.3218c-.0483.0282-.0891.0677-.1187.1152-.0296.0474-.0473.1014-.0514.1572 0 .0988.0758.1379.1701.0862.048-.0289.0884-.0688.118-.1163.0295-.0476.0474-.1015.0521-.1573-.0011-.0999-.0782-.139-.1713-.0873zm-.5574.3069c-.0484.0282-.0891.0677-.1187.1152-.0297.0474-.0473.1014-.0514.1572 0 .0988.077.1379.1701.0862.0484-.0283.0893-.068.1189-.1157.0297-.0477.0472-.1019.0512-.1579-.0012-.1011-.0816-.139-.1713-.0873zm-1.1494.6333c-.0483.0282-.0891.0677-.1187.1152-.0296.0474-.0473.1014-.0514.1572 0 .0988.0759.1367.1701.085.0483-.0282.0891-.0677.1187-.1152.0296-.0474.0473-.1014.0514-.1572.0012-.1011-.0759-.1402-.1689-.0873zm5.125-4.2665c.0485-.0283.0893-.068.1189-.1156.0297-.0477.0473-.1019.0512-.1579 0-.0988-.0759-.1368-.1701-.0851-.0483.0282-.0891.0678-.1187.1152-.0296.0475-.0473.1014-.0514.1572.0011.0966.0758.1357.1712.0839zm-1.1494.631c.0484-.0282.0891-.0677.1187-.1151.0297-.0475.0473-.1015.0514-.1573 0-.0988-.0758-.1379-.1701-.0862-.0485.0284-.0893.0681-.1189.1157-.0297.0477-.0472.1019-.0512.1579.0058.0965.0816.1345.1759.0827zm-.5563.3069c.0484-.0282.0891-.0677.1188-.1152.0296-.0474.0472-.1014.0513-.1572 0-.0988-.077-.1379-.1701-.0862-.0481.0287-.0887.0685-.1183.1161s-.0473.1016-.0518.1575c.0058.0965.0816.1344.1724.0827zm-.5815.3207c.0483-.0282.089-.0677.1187-.1152.0296-.0474.0473-.1014.0514-.1572 0-.0988-.0759-.1379-.1701-.0862-.0485.0283-.0893.068-.119.1157-.0296.0477-.0472.1018-.0511.1578.0057.0966.0816.1345.1793.0828zm-1.1402.6275c.0485-.0283.0893-.068.119-.1156.0296-.0477.0472-.1019.0511-.1579 0-.0988-.0758-.1368-.1701-.0851-.0483.0282-.0891.0678-.1187.1152-.0296.0475-.0473.1014-.0514.1572.0046.0989.0816.138.1701.0862zm-.5563.3069c.0485-.0283.0893-.068.119-.1157.0296-.0476.0472-.1018.0511-.1578 0-.0989-.0758-.1368-.1701-.0851-.0483.0282-.0891.0678-.1187.1152-.0296.0475-.0473.1014-.0514.1572.0046.1.0805.1379.1747.0862zm-.5816.3207c.0485-.0283.0894-.068.119-.1157s.0472-.1019.0511-.1579c0-.0988-.0758-.1367-.1701-.085-.0483.0282-.089.0677-.1187.1152-.0296.0474-.0472.1014-.0514.1572.0046.0988.0816.1379.1747.0862zm-.5666.3115c.0483-.0282.0891-.0678.1187-.1152.0296-.0475.0473-.1014.0514-.1572 0-.0989-.0758-.1368-.1701-.0851-.0481.0284-.0886.0679-.1181.1154-.0294.0474-.0469.1013-.0509.157.0046.0989.0805.1379.1736.0851zm-.5747.3206c.0484-.0282.0891-.0677.1187-.1151.0297-.0475.0473-.1015.0514-.1573 0-.0999-.0758-.1379-.1701-.0862-.0484.0283-.0893.0681-.1189.1157-.0297.0477-.0472.1019-.0512.1579-.0011.0988.0747.1356.169.085zm-1.1206.6184c.0485-.0283.0893-.068.119-.1157.0296-.0477.0472-.1019.0511-.1578 0-.0989-.0758-.1368-.1701-.0851-.0485.0283-.0893.068-.119.1157-.0296.0477-.0472.1018-.0511.1578-.0012.0989.0747.1368.169.0851zm5.1238-2.2137c.0484-.0282.0891-.0677.1187-.1152.0297-.0474.0473-.1014.0514-.1572 0-.0988-.077-.1379-.1701-.085-.0483.0282-.089.0677-.1187.1152-.0296.0474-.0472.1014-.0514.1572.0035.0988.0793.1368.1701.085zm-1.139.6287c.0482-.0286.0888-.0684.1184-.116s.0473-.1016.0517-.1575c0-.0989-.0758-.1368-.1701-.0851-.0483.0282-.089.0678-.1187.1152-.0296.0475-.0473.1014-.0514.1572.0035.0989.0805.138.1736.0862zm-.585.3276c.0485-.0283.0893-.068.119-.1157.0296-.0477.0472-.1018.0511-.1578 0-.0989-.0758-.1368-.1701-.0851-.0483.0282-.0891.0677-.1187.1152-.0296.0474-.0473.1014-.0514.1572.0046.0931.0816.1322.1701.0862zm-.5563.3069c.0485-.0283.0893-.068.119-.1157.0296-.0477.0472-.1019.0511-.1579 0-.0988-.0758-.1367-.1701-.085-.0483.0282-.0891.0677-.1187.1152-.0296.0474-.0473.1014-.0514.1572.0046.0942.0805.1322.1747.0804zm-.5816.3207c.0485-.0284.0894-.0681.119-.1157.0296-.0477.0472-.1019.0511-.1579 0-.0988-.0758-.1368-.1701-.085-.0483.0281-.089.0677-.1187.1151-.0296.0475-.0472.1015-.0514.1573.0046.0942.0816.1321.1747.0804zm-.5666.3126c.0482-.0287.0887-.0685.1183-.1161s.0474-.1016.0518-.1575c0-.0988-.0758-.1367-.1701-.085-.0481.0283-.0886.0679-.1181.1153-.0294.0475-.0469.1014-.0509.1571.0046.0931.0805.1322.1736.0804zm5.1284-5.2445c.0485-.0284.0894-.0681.119-.1157.0296-.0477.0472-.1019.0512-.1579 0-.0988-.0759-.1368-.1702-.085-.048.0287-.0886.0685-.1182.1161s-.0473.1015-.0519.1574c.0046.0931.0793.1368.1747.0793zm-.5563.3068c.0484-.0282.0891-.0677.1188-.1152.0296-.0474.0472-.1014.0514-.1572 0-.1-.0759-.1379-.1702-.0862-.0484.0283-.0893.068-.1189.1157s-.0472.1019-.0512.1579c.0046.0931.0805.131.1759.0793zm-.5884.3241c.0483-.0281.0891-.0677.1187-.1151.0296-.0475.0473-.1015.0514-.1573 0-.0988-.0759-.1367-.1701-.085-.0483.0282-.0891.0677-.1187.1152-.0297.0474-.0473.1014-.0514.1572.0046.0931.0804.1322.1747.0805zm-.5563.3081c.048-.0289.0884-.0688.118-.1163.0295-.0476.0474-.1015.0521-.1573 0-.0988-.077-.1367-.1701-.085-.0483.0282-.0891.0677-.1187.1152-.0296.0474-.0473.1014-.0514.1572.0046.0931.0804.1322.1712.0804zm-3.4274 1.8895c.0485-.0283.0893-.068.119-.1157.0296-.0476.0472-.1018.0511-.1578 0-.0989-.0758-.1368-.1701-.0851-.0481.0284-.0886.068-.1181.1154-.0294.0474-.0469.1013-.0509.157.0046.0931.0805.1322.1736.0805zm-.5747.3195c.0484-.0282.0891-.0677.1187-.1151.0297-.0475.0473-.1015.0514-.1573 0-.0988-.0758-.1379-.1701-.085-.0483.0282-.089.0677-.1187.1152-.0296.0474-.0473.1014-.0514.1572-.0011.0919.0747.131.169.0793zm-.5643.3115c.0485-.0283.0893-.068.119-.1157.0296-.0476.0472-.1018.0511-.1578 0-.0989-.0759-.1368-.1701-.0851-.0481.0288-.0886.0686-.1182.1162s-.0474.1015-.0519.1574c-.0012.0931.0758.131.1689.0793zm-.5563.3069c.0483-.0282.0891-.0677.1187-.1152.0296-.0474.0473-.1014.0514-.1572 0-.0988-.0758-.1379-.1701-.0862-.0485.0283-.0893.068-.119.1157-.0296.0477-.0472.1019-.0511.1578-.0012.0931.0747.1311.169.0794zm6.8295-2.5481c.0485-.0283.0893-.068.119-.1157.0296-.0477.0471-.1019.0511-.1579 0-.0988-.0759-.1367-.1701-.085-.0483.0282-.0891.0677-.1187.1152-.0296.0474-.0473.1014-.0514.1572-.0012.0931.0735.1321.1689.0804zm-.5563.3069c.0485-.0284.0893-.0681.119-.1157.0296-.0477.0472-.1019.0511-.1579 0-.0988-.0759-.1368-.1701-.085-.0483.0281-.0891.0677-.1187.1151-.0296.0475-.0473.1015-.0514.1572-.0012.0943.0747.1322.1701.0805zm-.5885.3241c.0484-.0282.0891-.0678.1187-.1152.0297-.0475.0473-.1014.0514-.1572 0-.0989-.0758-.1379-.1701-.0862-.0484.0283-.0893.068-.1189.1157-.0297.0476-.0472.1018-.0512.1578-.0011.0931.0747.1265.169.0793zm-.5563.3068c.0484-.0281.0891-.0677.1187-.1151.0297-.0475.0473-.1015.0514-.1572 0-.0989-.077-.138-.1701-.0863-.0481.0287-.0887.0685-.1183.1161s-.0473.1016-.0518.1575c-.0011.0931.0747.131.1655.0793zm-.5815.3207c.0483-.0282.089-.0677.1187-.1152.0296-.0474.0472-.1014.0514-.1572 0-.0988-.0759-.1379-.1701-.0862-.0485.0283-.0894.068-.119.1157s-.0472.1019-.0511.1579c-.0012.0931.0747.131.1724.0793zm-.5575.3069c.0484-.0282.0891-.0677.1187-.1152.0297-.0474.0473-.1014.0514-.1572 0-.0988-.0758-.1379-.1701-.0851-.0483.0282-.089.0678-.1187.1152-.0296.0475-.0473.1015-.0514.1572-.0011.0931.0759.1311.169.0793zm-1.1401.6298c.0484-.0283.0893-.068.1189-.1156.0297-.0477.0472-.1019.0512-.1579 0-.0988-.0759-.1368-.1701-.0851-.0484.0282-.0891.0678-.1187.1152-.0297.0475-.0473.1014-.0514.1572-.0012.0931.0747.1322.1689.0805zm-.5816.3207c.0485-.0283.0893-.068.119-.1157.0296-.0476.0471-.1018.0511-.1578 0-.0989-.0759-.1368-.1701-.0851-.0483.0282-.0891.0677-.1187.1152-.0297.0475-.0473.1014-.0514.1572-.0012.0931.0758.1322.1689.0816zm-.5667.3115c.0484-.0282.0891-.0677.1188-.1152.0296-.0475.0472-.1014.0514-.1572 0-.0988-.0759-.1368-.1702-.0851-.0481.0284-.0886.068-.118.1154-.0294.0475-.0469.1014-.0509.157-.0012.0931.0747.1311.1678.0793zm-.5746.3207c.0483-.0282.089-.0678.1187-.1152.0296-.0475.0472-.1014.0514-.1572 0-.1-.0759-.138-.1701-.0862-.0485.0283-.0893.068-.119.1157-.0296.0476-.0472.1018-.0511.1578-.0069.0931.0689.131.1632.0793zm-.5644.3114c.0485-.0283.0893-.068.119-.1156.0296-.0477.0472-.1019.0511-.1579 0-.0989-.0758-.1368-.1701-.0851-.0483.0282-.089.0678-.1187.1152-.0296.0475-.0472.1014-.0514.1572-.0069.0943.0701.1322.1632.0805zm-.5563.3069c.0485-.0283.0894-.068.119-.1157.0297-.0476.0472-.1018.0511-.1578 0-.0989-.0758-.1368-.1701-.0851-.0484.0283-.0893.068-.1189.1157-.0297.0477-.0472.1019-.0512.1579-.0069.0942.069.131.1633.0793zm6.8295-4.3813c.0482-.0287.0888-.0685.1184-.1161s.0473-.1016.0517-.1575c0-.0988-.0758-.1368-.1701-.085-.0483.0282-.089.0677-.1187.1152-.0296.0474-.0472.1014-.0514.1572-.0069.0931.0678.1321.1632.0804zm-.5562.3068c.0484-.0283.0893-.068.1189-.1156.0296-.0477.0472-.1019.0512-.1579 0-.0988-.0759-.1368-.1701-.0851-.0484.0282-.0891.0678-.1188.1152-.0296.0475-.0472.1014-.0514.1572-.0069.0931.069.1322.1644.0805zm-.5885.3242c.0483-.0282.089-.0678.1187-.1152.0296-.0475.0473-.1014.0514-.1572 0-.1-.0759-.138-.1701-.0862-.0485.0283-.0893.068-.119.1157-.0296.0476-.0472.1018-.0511.1578-.0069.0931.0689.131.1632.0793zm-.5563.3068c.0483-.0282.0891-.0677.1187-.1151.0296-.0475.0473-.1015.0514-.1573 0-.0988-.077-.1379-.1701-.0862-.0485.0283-.0893.0681-.119.1157-.0296.0477-.0472.1019-.0511.1579-.0069.0896.0689.131.1597.0793zm-.585.315c.0483-.0282.089-.0678.1187-.1152.0296-.0475.0472-.1014.0514-.1572 0-.0989-.0759-.138-.1701-.0862-.0485.0283-.0894.068-.119.1157-.0296.0476-.0472.1018-.0511.1578-.0035.0989.0724.1368.1701.0851zm-2.2792 1.2574c.0481-.0287.0887-.0685.1183-.1161s.0474-.1016.0518-.1575c0-.0988-.0759-.1368-.1701-.085-.0483.0282-.0891.0677-.1187.1151-.0297.0475-.0473.1015-.0514.1573-.0035.0988.0735.1379.1666.0862zm-.5666.3114c.0483-.0282.089-.0677.1186-.1151.0297-.0475.0473-.1015.0515-.1573 0-.0988-.0759-.1379-.1701-.0862-.0479.029-.0881.0689-.1175.1165-.0294.0475-.047.1014-.0515.1571-.0035.0988.0724.1368.1655.085zm-.5747.3207c.0485-.0283.0893-.068.1189-.1157.0297-.0477.0472-.1018.0512-.1578 0-.0989-.0759-.1368-.1701-.0851-.0485.0283-.0893.068-.119.1157-.0296.0477-.0472.1019-.0511.1579-.0092.0988.0666.1367.1609.085zm-.5644.3115c.0485-.0283.0893-.068.119-.1157.0296-.0477.0472-.1019.0511-.1579 0-.0988-.0758-.1367-.1701-.085-.0483.0282-.089.0677-.1187.1152-.0296.0474-.0472.1014-.0514.1572-.0092.1034.0678.1379.1609.0862zm-.5563.3069c.0485-.0283.0894-.0681.119-.1157.0297-.0477.0472-.1019.0511-.1579 0-.0988-.0758-.1368-.1701-.085-.0484.0283-.0893.068-.1189.1157-.0297.0476-.0472.1018-.0512.1578-.0092.0989.0667.1402.161.0851zm6.8376-4.971c.0485-.0283.0893-.068.1189-.1157.0297-.0477.0472-.1019.0512-.1579 0-.0988-.0759-.1367-.1701-.085-.0483.0282-.0891.0677-.1187.1152-.0297.0474-.0473.1014-.0514.1572-.0092.0988.0666.1379.1609.0862zm-.5563-.0517c-.0483.0282-.0891.0677-.1187.1152-.0297.0474-.0473.1014-.0514.1572 0 .1.0758.1379.1701.0862.0481-.0288.0886-.0686.1182-.1162s.0474-.1015.0519-.1574c-.0092-.0988-.0862-.1368-.1793-.085zm-.5885.3241c-.0485.0283-.0893.068-.1189.1157-.0297.0476-.0472.1018-.0512.1578 0 .0989.0759.1368.1701.0851.0484-.0282.0891-.0677.1187-.1152.0297-.0475.0473-.1014.0514-.1572-.0092-.0989-.0862-.1379-.1793-.0862zm-.5574.3069c-.0481.0287-.0886.0685-.1182.1161s-.0474.1016-.0519.1574c0 .0989.077.1368.1701.0851.0483-.0282.089-.0678.1187-.1152.0296-.0475.0473-.1014.0514-.1572-.0092-.0989-.0851-.138-.1793-.0862zm-.5747.3206c-.0485.0283-.0893.0681-.119.1157-.0296.0477-.0472.1019-.0511.1579 0 .0988.0759.1368.1701.085.0483-.0282.0891-.0677.1187-.1151.0296-.0475.0473-.1015.0514-.1573-.0149-.0977-.0919-.1379-.1896-.0862zm-2.2941 1.2528c-.0483.0282-.0891.0678-.1187.1152-.0297.0475-.0473.1014-.0514.1572 0 .0989.0758.138.1701.0862.0481-.0286.0887-.0684.1183-.116s.0474-.1016.0518-.1575c0-.0943-.0793-.1322-.1701-.0851zm-.5666.3127c-.0484.0282-.0891.0677-.1188.1151-.0296.0475-.0472.1015-.0514.1573 0 .0988.0759.1367.1702.085.0483-.0282.089-.0677.1186-.1152.0297-.0474.0473-.1014.0515-.1572 0-.0942-.0759-.1333-.1701-.0804zm-.5747.3195c-.0485.0283-.0893.068-.119.1157-.0296.0476-.0472.1018-.0511.1578 0 .0989.0758.1368.1701.0851.0485-.0283.0893-.068.1189-.1157.0297-.0477.0472-.1019.0512-.1579-.0058-.0942-.0816-.1321-.1759-.0804zm-.5644.3115c-.0483.0282-.089.0677-.1187.1151-.0296.0475-.0472.1015-.0514.1573 0 .0988.0759.1379.1701.0862.0485-.0283.0894-.0681.119-.1157.0296-.0477.0472-.1019.0511-.1579-.0057-.0942-.0816-.1322-.1758-.0804zm-.5563.3068c-.0484.0283-.0893.0681-.1189.1157-.0297.0477-.0472.1019-.0512.1579 0 .0988.0759.1368.1701.085.0481-.0287.0887-.0685.1183-.1161.0295-.0476.0473-.1016.0519-.1574-.0012-.0943-.0828-.1322-.1759-.0805z" fill="#828282" fill-rule="evenodd"/><path d="m31.8707 15.5988s-3.9079 3.4607-4.4825 3.9228c-.5747.462-.0104 1.1057.4804.5942s4.7124-4.3745 4.7124-4.3745z" fill="#525151"/><path d="m23.57 17.2896s-2.6941 4.4687-3.1136 5.0824c-.4195.6138.3207 1.0586.6356.4242.3149-.6345 3.1998-5.5825 3.1998-5.5825z" fill="#525151"/><g fill="#727171"><path d="m17.9232 22.8041-16.9232-5.8077v-.9528l14.3463-5.2514 17.876 4.1112v.954zm11.4568-6.9904-13.6613-4.5307-11.07294 5.3755 13.09004 4.1503z"/><path d="m3.10909 16.608s3.81358 3.563 4.38481 4.0377-.0184 1.1057-.49538.5815c-.47698-.5241-4.59744-4.4951-4.59744-4.4951z"/><path d="m20.3093 19.979s-4.4526 2.7183-5.1089 3.07-.2046 1.0861.3678.6689 5.4158-3.4734 5.4158-3.4734z"/></g><path d="m17.9232 21.8513-16.9232-5.8077 14.3405-5.6318 17.876 4.4928z" fill="#9fa0a0"/><path d="m30.1166 14.8104-14.5083-3.6171-10.74652 4.5147 12.88892 4.4078z" fill="#28282e"/><path d="m17.529 16.3689-5.0755-1.9447.0712-8.86387 5.0043 1.37348z" fill="#2333cb"/><path d="m17.5289 16.3689 4.0963-2.1573.0713-8.65127-4.1676 1.37348z" fill="#0d119e"/><path d="m17.529 16.3689-5.0755-1.5631.0712-1.6447 5.0043 1.5631z" fill="#c1cf04"/><path d="m17.5289 16.3689 4.0963-1.7757.0713-1.4321-4.1676 1.5631z" fill="#968202"/><path d="m17.529 8.57854-5.0755-1.37347.0712-1.64474 5.0043 1.37348z" fill="#c1cf04"/><path d="m17.5289 8.57854 4.0963-1.58611.0713-1.4321-4.1676 1.37348z" fill="#968202"/><path d="m12.5246 5.56034 4.9641-4.21586.0402 5.58934z" fill="#2333cb"/><path d="m21.6965 5.56034-4.2078-4.21586.0403 5.58934z" fill="#0d119e"/><path d="m22.6629 4.96496-4.8445-4.70088c-.0475-.073853-.1112-.135852-.1863-.18125s-.1597-.07298212-.2471-.08063887c-.0875-.00765676-.1755.00481379-.2574.03646467-.0818.0316508-.1554.0816412-.2149.1461252-.0159.016913-.0305.034965-.0437.054016l-.0138.018387-.0195.027591c-.0525.026241-.1009.059919-.1437.099993l-4.8997 4.827312c-.0543.05335-.0975.11687-.1272.18693s-.0453.14528-.046.22138c-.0006.0761.0137.15158.0423.22213.0285.07055.0706.13479.124.18905.0533.05426.1169.09748.1869.12719.0701.02971.1453.04534.2214.04598s.1516-.01372.2221-.04225c.0706-.02853.1348-.07067.1891-.12403l4.163-4.09976.0367 5.51692c.0006.07607.0161.1513.0457.22138.0296.07007.0727.13364.1268.18705.0542.05342.1184.09565.1888.12427.0705.02862.146.04308.222.04255.0761-.00052.1513-.01603.2214-.04563s.1337-.07271.1871-.12688c.0534-.05416.0956-.11832.1242-.1888.0287-.07048.0431-.14592.0426-.22199l-.0368-5.47209 3.9331 3.81587c.0546.05283.119.09439.1896.12232.0707.02792.1461.04166.222.04044.076-.00123.1509-.01741.2206-.0476s.1328-.07381.1856-.12838c.0528-.05456.0944-.119.1223-.18962.0279-.07063.0417-.14606.0404-.222-.0012-.07593-.0174-.15089-.0476-.22057-.0301-.06969-.0738-.13275-.1283-.18557z" fill="#727171"/></svg>