<svg enable-background="new 0 0 35 35" width="35" height="35" viewBox="0 0 35 35" xmlns="http://www.w3.org/2000/svg" xmlns:xlink="http://www.w3.org/1999/xlink"><clipPath id="a"><path d="m6.7 29.7v-10.1l9.7 3.8v10z"/></clipPath><clipPath id="b"><path d="m6.5 29.6v-11.4l9.9 3.8-.1 11.4z"/></clipPath><clipPath id="c"><path d="m28.5 29.6-.1-11.4-9.8 3.8v11.4z"/></clipPath><linearGradient id="d"><stop offset="0" stop-color="#f30"/><stop offset="1" stop-color="#6fff00"/></linearGradient><linearGradient id="e" gradientUnits="userSpaceOnUse" x1="5.2775" x2="34.2886" xlink:href="#d" y1="29.0879" y2="18.5287"/><linearGradient id="f" gradientUnits="userSpaceOnUse" x1="6.698" x2="35.7091" xlink:href="#d" y1="32.9906" y2="22.4314"/><linearGradient id="g" gradientUnits="userSpaceOnUse" x1="5.3165" x2="34.3275" xlink:href="#d" y1="29.1948" y2="18.6356"/><linearGradient id="h" gradientUnits="userSpaceOnUse" x1="3.4839" x2="32.4949" xlink:href="#d" y1="24.1598" y2="13.6006"/><clipPath id="i"><path d="m6.7 29.7v-10.1l9.7 3.8v10z"/></clipPath><linearGradient id="j" gradientUnits="userSpaceOnUse" x1="5.1841" x2="34.1952" xlink:href="#d" y1="28.8311" y2="18.2719"/><linearGradient id="k" gradientUnits="userSpaceOnUse" x1="4.9305" x2="33.9416" xlink:href="#d" y1="28.1345" y2="17.5753"/><clipPath id="l"><path d="m6.5 29.6v-11.4l9.9 3.8-.1 11.4z"/></clipPath><linearGradient id="m" gradientUnits="userSpaceOnUse" x1="4.938" x2="33.9491" xlink:href="#d" y1="28.155" y2="17.5958"/><linearGradient id="n" gradientUnits="userSpaceOnUse" x1="3.2576" x2="32.2687" xlink:href="#d" y1="23.5381" y2="12.9789"/><linearGradient id="o" gradientUnits="userSpaceOnUse" x1="3.4407" x2="32.4518" xlink:href="#d" y1="24.0413" y2="13.4821"/><linearGradient id="p" gradientUnits="userSpaceOnUse" x1="3.6238" x2="32.6349" xlink:href="#d" y1="24.5444" y2="13.9852"/><linearGradient id="q" gradientUnits="userSpaceOnUse" x1="3.807" x2="32.8181" xlink:href="#d" y1="25.0475" y2="14.4884"/><linearGradient id="r" gradientUnits="userSpaceOnUse" x1="4.1732" x2="33.1843" xlink:href="#d" y1="26.0538" y2="15.4947"/><linearGradient id="s" gradientUnits="userSpaceOnUse" x1="4.3564" x2="33.3675" xlink:href="#d" y1="26.557" y2="15.9978"/><linearGradient id="t" gradientUnits="userSpaceOnUse" x1="4.5395" x2="33.5506" xlink:href="#d" y1="27.06" y2="16.5009"/><linearGradient id="u" gradientUnits="userSpaceOnUse" x1="4.7226" x2="33.7337" xlink:href="#d" y1="27.5632" y2="17.004"/><linearGradient id="v" gradientUnits="userSpaceOnUse" x1="3.5568" x2="32.5679" xlink:href="#d" y1="24.3603" y2="13.8011"/><linearGradient id="w" gradientUnits="userSpaceOnUse" x1="3.74" x2="32.7511" xlink:href="#d" y1="24.8635" y2="14.3043"/><linearGradient id="x" gradientUnits="userSpaceOnUse" x1="3.9231" x2="32.9342" xlink:href="#d" y1="25.3666" y2="14.8074"/><linearGradient id="y" gradientUnits="userSpaceOnUse" x1="4.6556" x2="33.6667" xlink:href="#d" y1="27.3792" y2="16.82"/><linearGradient id="z" gradientUnits="userSpaceOnUse" x1="4.8387" x2="33.8498" xlink:href="#d" y1="27.8822" y2="17.3231"/><linearGradient id="A" gradientUnits="userSpaceOnUse" x1="5.0219" x2="34.033" xlink:href="#d" y1="28.3854" y2="17.8262"/><linearGradient id="B" gradientUnits="userSpaceOnUse" x1="3.8562" x2="32.8673" xlink:href="#d" y1="25.1828" y2="14.6236"/><linearGradient id="C" gradientUnits="userSpaceOnUse" x1="4.0393" x2="33.0504" xlink:href="#d" y1="25.6859" y2="15.1268"/><linearGradient id="D" gradientUnits="userSpaceOnUse" x1="4.2224" x2="33.2335" xlink:href="#d" y1="26.189" y2="15.6299"/><linearGradient id="E" gradientUnits="userSpaceOnUse" x1="4.4056" x2="33.4167" xlink:href="#d" y1="26.6922" y2="16.133"/><linearGradient id="F" gradientUnits="userSpaceOnUse" x1="4.7718" x2="33.7829" xlink:href="#d" y1="27.6985" y2="17.1393"/><linearGradient id="G" gradientUnits="userSpaceOnUse" x1="4.955" x2="33.9661" xlink:href="#d" y1="28.2017" y2="17.6425"/><linearGradient id="H" gradientUnits="userSpaceOnUse" x1="5.1381" x2="34.1492" xlink:href="#d" y1="28.7047" y2="18.1455"/><linearGradient id="I" gradientUnits="userSpaceOnUse" x1="5.3212" x2="34.3323" xlink:href="#d" y1="29.2078" y2="18.6487"/><linearGradient id="J" gradientUnits="userSpaceOnUse" x1="4.1555" x2="33.1666" xlink:href="#d" y1="26.0052" y2="15.446"/><linearGradient id="K" gradientUnits="userSpaceOnUse" x1="4.5218" x2="33.5329" xlink:href="#d" y1="27.0115" y2="16.4523"/><linearGradient id="L" gradientUnits="userSpaceOnUse" x1="4.7049" x2="33.716" xlink:href="#d" y1="27.5146" y2="16.9554"/><linearGradient id="M" gradientUnits="userSpaceOnUse" x1="4.8881" x2="33.8992" xlink:href="#d" y1="28.0178" y2="17.4586"/><linearGradient id="N" gradientUnits="userSpaceOnUse" x1="5.2543" x2="34.2654" xlink:href="#d" y1="29.0241" y2="18.4649"/><linearGradient id="O" gradientUnits="userSpaceOnUse" x1="5.6205" x2="34.6316" xlink:href="#d" y1="30.0303" y2="19.4711"/><linearGradient id="P" gradientUnits="userSpaceOnUse" x1="5.0043" x2="34.0154" xlink:href="#d" y1="28.3371" y2="17.7779"/><linearGradient id="Q" gradientUnits="userSpaceOnUse" x1="5.1874" x2="34.1985" xlink:href="#d" y1="28.8402" y2="18.281"/><linearGradient id="R" gradientUnits="userSpaceOnUse" x1="5.3705" x2="34.3816" xlink:href="#d" y1="29.3434" y2="18.7842"/><linearGradient id="S" gradientUnits="userSpaceOnUse" x1="5.1203" x2="34.1314" xlink:href="#d" y1="28.656" y2="18.0968"/><linearGradient id="T" gradientUnits="userSpaceOnUse" x1="5.4866" x2="34.4977" xlink:href="#d" y1="29.6623" y2="19.1031"/><linearGradient id="U" gradientUnits="userSpaceOnUse" x1="5.6697" x2="34.6808" xlink:href="#d" y1="30.1654" y2="19.6063"/><linearGradient id="V" gradientUnits="userSpaceOnUse" x1="5.8529" x2="34.864" xlink:href="#d" y1="30.6686" y2="20.1094"/><linearGradient id="W" gradientUnits="userSpaceOnUse" x1="5.2365" x2="34.2476" xlink:href="#d" y1="28.9751" y2="18.4159"/><linearGradient id="X" gradientUnits="userSpaceOnUse" x1="5.4196" x2="34.4307" xlink:href="#d" y1="29.4782" y2="18.919"/><linearGradient id="Y" gradientUnits="userSpaceOnUse" x1="5.6027" x2="34.6138" xlink:href="#d" y1="29.9813" y2="19.4221"/><linearGradient id="Z" gradientUnits="userSpaceOnUse" x1="5.969" x2="34.9801" xlink:href="#d" y1="30.9876" y2="20.4285"/><linearGradient id="aa" gradientUnits="userSpaceOnUse" x1="6.1521" x2="35.1632" xlink:href="#d" y1="31.4908" y2="20.9316"/><linearGradient id="ab" gradientUnits="userSpaceOnUse" x1="6.3352" x2="35.3463" xlink:href="#d" y1="31.9938" y2="21.4346"/><linearGradient id="ac" gradientUnits="userSpaceOnUse" x1="5.3527" x2="34.3638" xlink:href="#d" y1="29.2944" y2="18.7352"/><linearGradient id="ad" gradientUnits="userSpaceOnUse" x1="5.7189" x2="34.73" xlink:href="#d" y1="30.3006" y2="19.7414"/><linearGradient id="ae" gradientUnits="userSpaceOnUse" x1="6.4515" x2="35.4626" xlink:href="#d" y1="32.3132" y2="21.7541"/><linearGradient id="af" gradientUnits="userSpaceOnUse" x1="6.8177" x2="35.8288" xlink:href="#d" y1="33.3194" y2="22.7603"/><linearGradient id="ag" gradientUnits="userSpaceOnUse" x1="5.8352" x2="34.8463" xlink:href="#d" y1="30.6199" y2="20.0608"/><linearGradient id="ah" gradientUnits="userSpaceOnUse" x1="6.9339" x2="35.945" xlink:href="#d" y1="33.6387" y2="23.0795"/><clipPath id="ai"><path d="m28.5 29.6-.1-11.4-9.8 3.8v11.4z"/></clipPath><linearGradient id="aj" gradientUnits="userSpaceOnUse" x1="6.3539" x2="35.365" xlink:href="#d" y1="32.0451" y2="21.4859"/><linearGradient id="ak" gradientUnits="userSpaceOnUse" x1="5.3803" x2="34.3914" xlink:href="#d" y1="29.3703" y2="18.8111"/><linearGradient id="al" gradientUnits="userSpaceOnUse" x1="5.3852" x2="34.3963" xlink:href="#d" y1="29.3837" y2="18.8245"/><linearGradient id="am" gradientUnits="userSpaceOnUse" x1="5.3901" x2="34.4012" xlink:href="#d" y1="29.3971" y2="18.8379"/><linearGradient id="an" gradientUnits="userSpaceOnUse" x1="5.3949" x2="34.406" xlink:href="#d" y1="29.4105" y2="18.8513"/><linearGradient id="ao" gradientUnits="userSpaceOnUse" x1="5.4047" x2="34.4158" xlink:href="#d" y1="29.4372" y2="18.8781"/><linearGradient id="ap" gradientUnits="userSpaceOnUse" x1="5.4096" x2="34.4207" xlink:href="#d" y1="29.4506" y2="18.8914"/><linearGradient id="aq" gradientUnits="userSpaceOnUse" x1="5.4144" x2="34.4255" xlink:href="#d" y1="29.464" y2="18.9048"/><linearGradient id="ar" gradientUnits="userSpaceOnUse" x1="5.4193" x2="34.4304" xlink:href="#d" y1="29.4774" y2="18.9182"/><linearGradient id="as" gradientUnits="userSpaceOnUse" x1="5.6805" x2="34.6916" xlink:href="#d" y1="30.1951" y2="19.6359"/><linearGradient id="at" gradientUnits="userSpaceOnUse" x1="5.6854" x2="34.6965" xlink:href="#d" y1="30.2085" y2="19.6493"/><linearGradient id="au" gradientUnits="userSpaceOnUse" x1="5.6903" x2="34.7014" xlink:href="#d" y1="30.2219" y2="19.6627"/><linearGradient id="av" gradientUnits="userSpaceOnUse" x1="5.7098" x2="34.7209" xlink:href="#d" y1="30.2754" y2="19.7162"/><linearGradient id="aw" gradientUnits="userSpaceOnUse" x1="5.7146" x2="34.7257" xlink:href="#d" y1="30.2888" y2="19.7296"/><linearGradient id="ax" gradientUnits="userSpaceOnUse" x1="5.7195" x2="34.7306" xlink:href="#d" y1="30.3022" y2="19.743"/><linearGradient id="ay" gradientUnits="userSpaceOnUse" x1="5.9808" x2="34.9919" xlink:href="#d" y1="31.0202" y2="20.461"/><linearGradient id="az" gradientUnits="userSpaceOnUse" x1="5.9857" x2="34.9968" xlink:href="#d" y1="31.0336" y2="20.4744"/><linearGradient id="aA" gradientUnits="userSpaceOnUse" x1="5.9906" x2="35.0017" xlink:href="#d" y1="31.047" y2="20.4878"/><linearGradient id="aB" gradientUnits="userSpaceOnUse" x1="5.9955" x2="35.0066" xlink:href="#d" y1="31.0604" y2="20.5012"/><linearGradient id="aC" gradientUnits="userSpaceOnUse" x1="6.0052" x2="35.0163" xlink:href="#d" y1="31.0871" y2="20.528"/><linearGradient id="aD" gradientUnits="userSpaceOnUse" x1="6.0101" x2="35.0212" xlink:href="#d" y1="31.1005" y2="20.5413"/><linearGradient id="aE" gradientUnits="userSpaceOnUse" x1="6.0149" x2="35.026" xlink:href="#d" y1="31.1139" y2="20.5547"/><linearGradient id="aF" gradientUnits="userSpaceOnUse" x1="6.0198" x2="35.0309" xlink:href="#d" y1="31.1273" y2="20.5681"/><linearGradient id="aG" gradientUnits="userSpaceOnUse" x1="6.2812" x2="35.2923" xlink:href="#d" y1="31.8453" y2="21.2861"/><linearGradient id="aH" gradientUnits="userSpaceOnUse" x1="6.2909" x2="35.302" xlink:href="#d" y1="31.8721" y2="21.3129"/><linearGradient id="aI" gradientUnits="userSpaceOnUse" x1="6.2958" x2="35.3069" xlink:href="#d" y1="31.8855" y2="21.3263"/><linearGradient id="aJ" gradientUnits="userSpaceOnUse" x1="6.3007" x2="35.3117" xlink:href="#d" y1="31.8989" y2="21.3397"/><linearGradient id="aK" gradientUnits="userSpaceOnUse" x1="6.3104" x2="35.3215" xlink:href="#d" y1="31.9256" y2="21.3664"/><linearGradient id="aL" gradientUnits="userSpaceOnUse" x1="6.3201" x2="35.3312" xlink:href="#d" y1="31.9524" y2="21.3932"/><linearGradient id="aM" gradientUnits="userSpaceOnUse" x1="6.5961" x2="35.6072" xlink:href="#d" y1="32.7106" y2="22.1514"/><linearGradient id="aN" gradientUnits="userSpaceOnUse" x1="6.601" x2="35.6121" xlink:href="#d" y1="32.724" y2="22.1648"/><linearGradient id="aO" gradientUnits="userSpaceOnUse" x1="6.6058" x2="35.6169" xlink:href="#d" y1="32.7374" y2="22.1782"/><linearGradient id="aP" gradientUnits="userSpaceOnUse" x1="6.8914" x2="35.9025" xlink:href="#d" y1="33.522" y2="22.9628"/><linearGradient id="aQ" gradientUnits="userSpaceOnUse" x1="6.9012" x2="35.9123" xlink:href="#d" y1="33.5488" y2="22.9896"/><linearGradient id="aR" gradientUnits="userSpaceOnUse" x1="6.906" x2="35.9171" xlink:href="#d" y1="33.5621" y2="23.003"/><linearGradient id="aS" gradientUnits="userSpaceOnUse" x1="6.9109" x2="35.922" xlink:href="#d" y1="33.5755" y2="23.0163"/><linearGradient id="aT" gradientUnits="userSpaceOnUse" x1="7.1867" x2="36.1978" xlink:href="#d" y1="34.3334" y2="23.7742"/><linearGradient id="aU" gradientUnits="userSpaceOnUse" x1="7.1916" x2="36.2027" xlink:href="#d" y1="34.3468" y2="23.7876"/><linearGradient id="aV" gradientUnits="userSpaceOnUse" x1="7.1965" x2="36.2076" xlink:href="#d" y1="34.3601" y2="23.801"/><linearGradient id="aW" gradientUnits="userSpaceOnUse" x1="7.2062" x2="36.2173" xlink:href="#d" y1="34.3869" y2="23.8277"/><linearGradient id="aX" gradientUnits="userSpaceOnUse" x1="7.2111" x2="36.2222" xlink:href="#d" y1="34.4003" y2="23.8411"/><linearGradient id="aY" gradientUnits="userSpaceOnUse" x1="7.216" x2="36.2271" xlink:href="#d" y1="34.4137" y2="23.8545"/><linearGradient id="aZ" gradientUnits="userSpaceOnUse" x1="7.4822" x2="36.4933" xlink:href="#d" y1="35.1451" y2="24.5859"/><linearGradient id="a0" gradientUnits="userSpaceOnUse" x1="7.4919" x2="36.503" xlink:href="#d" y1="35.1719" y2="24.6127"/><linearGradient id="a1" gradientUnits="userSpaceOnUse" x1="7.5114" x2="36.5225" xlink:href="#d" y1="35.2254" y2="24.6662"/><linearGradient id="a2" gradientUnits="userSpaceOnUse" x1="7.5212" x2="36.5323" xlink:href="#d" y1="35.2522" y2="24.693"/><linearGradient id="a3" gradientUnits="userSpaceOnUse" x1="7.7874" x2="36.7985" xlink:href="#d" y1="35.9836" y2="25.4244"/><linearGradient id="a4" gradientUnits="userSpaceOnUse" x1="7.8166" x2="36.8277" xlink:href="#d" y1="36.0639" y2="25.5047"/><linearGradient id="a5" gradientUnits="userSpaceOnUse" x1="2.6815" x2="31.6926" xlink:href="#d" y1="21.9553" y2="11.3961"/><linearGradient id="a6" gradientUnits="userSpaceOnUse" x1="4.5457" x2="33.5568" xlink:href="#d" y1="27.0772" y2="16.518"/><linearGradient id="a7" gradientUnits="userSpaceOnUse" x1="2.7326" x2="31.7437" xlink:href="#d" y1="22.0956" y2="11.5364"/><linearGradient id="a8" gradientUnits="userSpaceOnUse" x1="2.1757" x2="31.1868" xlink:href="#d" y1="20.5655" y2="10.0064"/><linearGradient id="a9" gradientUnits="userSpaceOnUse" x1="2.1491" x2="31.1602" xlink:href="#d" y1="20.4925" y2="9.9333"/><linearGradient id="ba" gradientUnits="userSpaceOnUse" x1="1.4435" x2="30.4546" xlink:href="#d" y1="18.5539" y2="7.9947"/><linearGradient id="bb" gradientUnits="userSpaceOnUse" x1=".8161" x2="29.8272" xlink:href="#d" y1="16.8301" y2="6.271"/><linearGradient id="bc" gradientUnits="userSpaceOnUse" x1="-.6365" x2="28.3746" xlink:href="#d" y1="12.8392" y2="2.2801"/><linearGradient id="bd" gradientUnits="userSpaceOnUse" x1=".1169" x2="29.128" xlink:href="#d" y1="14.909" y2="4.3499"/><linearGradient id="be" gradientUnits="userSpaceOnUse" x1=".4102" x2="29.4213" xlink:href="#d" y1="15.7149" y2="5.1557"/><linearGradient id="bf" gradientUnits="userSpaceOnUse" x1="-.2172" x2="28.7939" xlink:href="#d" y1="13.9912" y2="3.432"/><linearGradient id="bg" gradientUnits="userSpaceOnUse" x1="-.6294" x2="28.3817" xlink:href="#d" y1="12.8586" y2="2.2994"/><linearGradient id="bh" gradientUnits="userSpaceOnUse" x1="-1.0527" x2="27.9584" xlink:href="#d" y1="11.6957" y2="1.1365"/><linearGradient id="bi" gradientUnits="userSpaceOnUse" x1="-.9281" x2="28.083" xlink:href="#d" y1="12.038" y2="1.4788"/><linearGradient id="bj" gradientUnits="userSpaceOnUse" x1="-2.4551" x2="26.556" xlink:href="#d" y1="7.8427" y2="-2.7165"/><linearGradient id="bk" gradientUnits="userSpaceOnUse" x1="-1.6741" x2="27.337" xlink:href="#d" y1="9.9884" y2="-.5708"/><linearGradient id="bl" gradientUnits="userSpaceOnUse" x1="-1.0077" x2="28.0034" xlink:href="#d" y1="11.8192" y2="1.26"/><path d="m17.5 14.5-11.8 4.6v11.1l11.8 4.6 11.8-4.6v-11.1z" fill="#b3b3b3"/><path d="m29.3 19.1v11.1l-11.8 4.6v-11.2z" fill="#3b00ff"/><path d="m17.5 23.6v11.2l-11.8-4.6v-11.1z" fill="#5c00ff"/><path d="m17.5 14.5 11.8 4.6-11.8 4.5-11.8-4.5z" fill="#b3b3b3"/><path d="m28.2 20.5v9.1l-9.6 3.7v-9.1z" fill="#191919"/><path d="m16.4 24.2v9.1l-9.6-3.7v-9.1z" fill="#191919"/><g clip-path="url(#a)" enable-background="new"><path d="m11.5 25.6 1.2-.8-.4-.6 2.9.3-.8 2.7-.4-.5-1.2.8 1.5 2.1-1.3.8-1.5-2.1-1.5 1-1.3-1.8 1.5-1-1.2-1.6-.4.3-.8-3.3 2.9 1.9-.3.2zm4.9-2.2-9.7-3.7v10l9.7 3.7z" fill="#3f3f3f"/><path d="m15.2 24.6-2.9-.3.4.6-1.2.7-1.1-1.6.4-.3-2.9-1.9.8 3.3.4-.3 1.2 1.7-1.5.9 1.2 1.8 1.5-.9 1.6 2.1 1.2-.8-1.5-2.2 1.2-.7.4.6z" fill="#fff"/></g><g clip-path="url(#b)" enable-background="new"><path d="m9.1 29.8c-.1-.1-.3-.3-.3-.4 0-.2.1-.3.3-.2.1.1.3.3.3.4s-.1.2-.3.2m4.6 1.7c-.1-.1-.3-.3-.3-.4 0-.2.1-.3.3-.2.1.1.3.3.3.4 0 .2-.2.3-.3.2m-5.3-3c-.1-.1-.3-.3-.3-.4 0-.2.1-.3.3-.2.1.1.3.3.3.4-.1.2-.2.3-.3.2m1.5.6c-.1-.1-.3-.3-.3-.4 0-.2.1-.3.3-.2.1.1.3.3.3.4 0 .2-.2.3-.3.2m3 1.2c-.1-.1-.3-.3-.3-.4 0-.2.1-.3.3-.2.1.1.3.3.3.4s-.1.3-.3.2m1.6.6c-.1-.1-.3-.3-.3-.4 0-.2.1-.3.3-.2.1.1.3.3.3.4-.1.1-.2.2-.3.2m-5.4-3c-.1-.1-.3-.3-.3-.4 0-.2.1-.3.3-.2.1.1.3.3.3.4s-.1.3-.3.2m.8.3c-.1-.1-.3-.3-.3-.4 0-.2.1-.3.3-.2.1.1.3.3.3.4s-.2.3-.3.2m.8.3c-.1-.1-.3-.3-.3-.4 0-.2.1-.3.3-.2.1.1.3.3.3.4-.1.1-.2.2-.3.2m1.5.6c-.1-.1-.3-.3-.3-.4 0-.2.1-.3.3-.2.1.1.3.3.3.4-.1.1-.2.2-.3.2m.7.3c-.1-.1-.3-.3-.3-.4 0-.2.1-.3.3-.2.1.1.3.3.3.4s-.1.2-.3.2m.8.3c-.1-.1-.3-.3-.3-.4 0-.2.1-.3.3-.2.1.1.3.3.3.4s-.1.2-.3.2m-3.8-2.4c-.1-.1-.3-.3-.3-.4 0-.2.1-.3.3-.2.1.1.3.3.3.4s-.2.2-.3.2m1.5.5c-.1-.1-.3-.3-.3-.4 0-.2.1-.3.3-.2.1.1.3.3.3.4 0 .2-.1.3-.3.2m.8.3c-.1-.1-.3-.3-.3-.4 0-.2.1-.3.3-.2.1.1.3.3.3.4 0 .2-.2.3-.3.2m.7.3c-.1-.1-.3-.3-.3-.4 0-.2.1-.3.3-.2.1.1.3.3.3.4 0 .2-.1.3-.3.2m-2.2-1.8c-.1-.1-.3-.3-.3-.4 0-.2.1-.3.3-.2.1.1.3.3.3.4-.1.2-.2.3-.3.2m.7.3c-.1-.1-.3-.3-.3-.4 0-.2.1-.3.3-.2.1.1.3.3.3.4 0 .2-.1.3-.3.2m.8.3c-.1-.1-.3-.3-.3-.4 0-.2.1-.3.3-.2.1.1.3.3.3.4 0 .2-.2.3-.3.2m-3.8-2.4c-.1-.1-.3-.3-.3-.4 0-.2.1-.3.3-.2.1.1.3.3.3.4 0 .2-.2.3-.3.2m1.5.6c-.1-.1-.3-.3-.3-.4 0-.2.1-.3.3-.2.1.1.3.3.3.4s-.1.3-.3.2m.8.3c-.1-.1-.3-.3-.3-.4 0-.2.1-.3.3-.2.1.1.3.3.3.4-.1.1-.2.2-.3.2m.7.3c-.1-.1-.3-.3-.3-.4 0-.2.1-.3.3-.2.1.1.3.3.3.4s-.1.2-.3.2m1.6.6c-.1-.1-.3-.3-.3-.4 0-.2.1-.3.3-.2.1.1.3.3.3.4-.1.1-.2.2-.3.2m1.5.6c-.1-.1-.3-.3-.3-.4 0-.2.1-.3.3-.2.1.1.3.3.3.4-.1.1-.2.2-.3.2m-6.1-3.3c-.1-.1-.3-.3-.3-.4 0-.2.1-.3.3-.2.1.1.3.3.3.4s-.2.2-.3.2m.8.3c-.1-.1-.3-.3-.3-.4 0-.2.1-.3.3-.2.1.1.3.3.3.4-.1.1-.2.2-.3.2m.7.3c-.1-.1-.3-.3-.3-.4 0-.2.1-.3.3-.2.1.1.3.3.3.4s-.1.2-.3.2m.8.3c-.1-.1-.3-.3-.3-.4 0-.2.1-.3.3-.2.1.1.3.3.3.4-.1.1-.2.2-.3.2m1.5.5c-.1-.1-.3-.3-.3-.4 0-.2.1-.3.3-.2.1.1.3.3.3.4 0 .2-.2.3-.3.2m.8.3c-.1-.1-.3-.3-.3-.4 0-.2.1-.3.3-.2.1.1.3.3.3.4-.1.2-.2.3-.3.2m.7.3c-.1-.1-.3-.3-.3-.4 0-.2.1-.3.3-.2.1.1.3.3.3.4 0 .2-.1.3-.3.2m.8.3c-.1-.1-.3-.3-.3-.4 0-.2.1-.3.3-.2.1.1.3.3.3.4 0 .2-.2.3-.3.2m-6.1-3.3c-.1-.1-.3-.3-.3-.4 0-.2.1-.3.3-.2.1.1.3.3.3.4 0 .2-.2.3-.3.2m.8.3c-.2 0-.3-.2-.3-.4s.1-.3.3-.2c.1.1.3.3.3.4-.1.2-.2.3-.3.2m.7.3c-.1-.1-.3-.3-.3-.4 0-.2.1-.3.3-.2.1.1.3.3.3.4 0 .2-.1.3-.3.2m3.1 1.2c-.1-.1-.3-.3-.3-.4 0-.2.1-.3.3-.2.1.1.3.3.3.4-.1.1-.2.3-.3.2m.7.3c-.1-.1-.3-.3-.3-.4 0-.2.1-.3.3-.2.1.1.3.3.3.4s-.1.2-.3.2m.8.3c-.1-.1-.3-.3-.3-.4 0-.2.1-.3.3-.2.1.1.3.3.3.4s-.2.2-.3.2m-6.1-3.3c-.1-.1-.3-.3-.3-.4 0-.2.1-.3.3-.2.1.1.3.3.3.4 0 .2-.2.3-.3.2m.8.3c-.2-.1-.3-.3-.3-.4 0-.2.1-.3.3-.2.1.1.3.3.3.4-.1.2-.2.3-.3.2m.7.3c-.1-.1-.3-.3-.3-.4 0-.2.1-.3.3-.2.1.1.3.3.3.4s-.1.3-.3.2m.8.3c-.1-.1-.3-.3-.3-.4 0-.2.1-.3.3-.2.1.1.3.3.3.4-.1.1-.2.2-.3.2m1.5.6c-.1-.1-.3-.3-.3-.4 0-.2.1-.3.3-.2.1.1.3.3.3.4s-.1.2-.3.2m.8.3c-.1-.1-.3-.3-.3-.4 0-.2.1-.3.3-.2.1.1.3.3.3.4-.1.1-.2.2-.3.2m.7.3c-.1-.1-.3-.3-.3-.4 0-.2.1-.3.3-.2.1.1.3.3.3.4s-.1.2-.3.2m.8.3c-.1-.1-.3-.3-.3-.4 0-.2.1-.3.3-.2.1.1.3.3.3.4s-.2.2-.3.2m1.9-2.4-9.9-3.8v11.4l9.9 3.8z" fill="#292930"/><g fill="#999b8e"><path d="m8.4 21.3c-.1-.1-.3.1-.3.2 0 .2.1.4.3.4.1.1.3-.1.3-.2s-.2-.3-.3-.4"/><path d="m9.2 21.6c-.1-.1-.3.1-.3.2 0 .2.1.4.3.4.1.1.3-.1.3-.2-.1-.1-.2-.3-.3-.4"/><path d="m9.9 21.9c-.1-.1-.3.1-.3.2 0 .2.1.4.3.4.1.1.3-.1.3-.2s-.1-.3-.3-.4"/><path d="m10.7 22.2c-.1-.1-.3.1-.3.2 0 .2.1.4.3.4.1.1.3-.1.3-.2s-.2-.3-.3-.4"/><path d="m12.2 22.8c-.1-.1-.3.1-.3.2 0 .2.1.4.3.4.1.1.3-.1.3-.2 0-.2-.1-.4-.3-.4"/><path d="m13 23.1c-.1-.1-.3.1-.3.2 0 .2.1.4.3.4.1.1.3-.1.3-.2-.1-.2-.2-.4-.3-.4"/><path d="m13.7 23.4c-.1-.1-.3.1-.3.2 0 .2.1.4.3.4.1.1.3-.1.3-.2 0-.2-.1-.4-.3-.4"/><path d="m14.5 23.7c-.1-.1-.3.1-.3.2 0 .2.1.4.3.4.1.1.3-.1.3-.2 0-.2-.2-.4-.3-.4"/><path d="m8.4 22.3c-.1-.1-.3.1-.3.2 0 .2.1.4.3.4.1.1.3-.1.3-.2 0-.2-.2-.4-.3-.4"/><path d="m9.2 22.5c-.1-.1-.3.1-.3.2 0 .2.1.4.3.4.1.1.3-.1.3-.2-.1-.1-.2-.3-.3-.4"/><path d="m9.9 22.8c-.1-.1-.3.1-.3.2 0 .2.1.4.3.4.1.1.3-.1.3-.2s-.1-.3-.3-.4"/><path d="m13 24c-.1-.1-.3.1-.3.2 0 .2.1.4.3.4.1.1.3-.1.3-.2-.1-.1-.2-.3-.3-.4"/><path d="m13.7 24.3c-.1-.1-.3.1-.3.2 0 .2.1.4.3.4.1.1.3-.1.3-.2s-.1-.3-.3-.4"/><path d="m14.5 24.6c-.1-.1-.3.1-.3.2 0 .2.1.4.3.4.1.1.3-.1.3-.2 0-.2-.2-.4-.3-.4"/><path d="m8.4 23.2c-.1-.1-.3.1-.3.2 0 .2.1.4.3.4.1.1.3-.1.3-.2 0-.2-.2-.4-.3-.4"/><path d="m9.2 23.5c-.1-.1-.3.1-.3.2 0 .2.1.4.3.4.1.1.3-.1.3-.2-.1-.2-.2-.4-.3-.4"/><path d="m9.9 23.8c-.1-.1-.3.1-.3.2 0 .2.1.4.3.4.1.1.3-.1.3-.2 0-.2-.1-.4-.3-.4"/><path d="m10.7 24.1c-.1-.1-.3.1-.3.2 0 .2.1.4.3.4.1.1.3-.1.3-.2-.1-.2-.2-.4-.3-.4"/><path d="m12.2 24.6c-.1-.1-.3.1-.3.2 0 .2.1.4.3.4.1.1.3-.1.3-.2s-.2-.3-.3-.4"/><path d="m13 24.9c-.1-.1-.3.1-.3.2 0 .2.1.4.3.4.1.1.3-.1.3-.2-.1-.1-.2-.3-.3-.4"/><path d="m13.7 25.2c-.1-.1-.3.1-.3.2 0 .2.1.4.3.4.1.1.3-.1.3-.2s-.1-.3-.3-.4"/><path d="m14.5 25.5c-.1-.1-.3.1-.3.2 0 .2.1.4.3.4.1.1.3-.1.3-.2s-.2-.3-.3-.4"/><path d="m8.4 24.1c-.1-.1-.3.1-.3.2 0 .2.1.4.3.4.1.1.3-.1.3-.2s-.2-.3-.3-.4"/><path d="m9.9 24.7c-.1-.1-.3.1-.3.2 0 .2.1.4.3.4.1.1.3-.1.3-.2s-.1-.3-.3-.4"/><path d="m10.7 25c-.1-.1-.3.1-.3.2 0 .2.1.4.3.4.1.1.3-.1.3-.2-.1-.1-.2-.3-.3-.4"/><path d="m11.4 25.3c-.1-.1-.3.1-.3.2 0 .2.1.4.3.4.1.1.3-.1.3-.2 0-.2-.1-.4-.3-.4"/><path d="m13 25.9c-.1-.1-.3.1-.3.2 0 .2.1.4.3.4.1.1.3-.1.3-.2-.1-.2-.2-.4-.3-.4"/><path d="m14.5 26.5c-.1-.1-.3.1-.3.2 0 .2.1.4.3.4.1.1.3-.1.3-.2-.1-.2-.2-.4-.3-.4"/><path d="m10.7 25.9c-.1-.1-.3.1-.3.2 0 .2.1.4.3.4.1.1.3-.1.3-.2-.1-.1-.2-.3-.3-.4"/><path d="m11.4 26.2c-.1-.1-.3.1-.3.2 0 .2.1.4.3.4.1.1.3-.1.3-.2s-.1-.3-.3-.4"/><path d="m12.2 26.5c-.1-.1-.3.1-.3.2 0 .2.1.4.3.4.1.1.3-.1.3-.2s-.2-.3-.3-.4"/><path d="m9.9 26.6c-.1-.1-.3.1-.3.2 0 .2.1.4.3.4.1.1.3-.1.3-.2 0-.2-.1-.4-.3-.4"/><path d="m11.4 27.2c-.1-.1-.3.1-.3.2 0 .2.1.4.3.4.1.1.3-.1.3-.2 0-.2-.1-.4-.3-.4"/><path d="m12.2 27.4c-.1-.1-.3.1-.3.2 0 .2.1.4.3.4.1.1.3-.1.3-.2s-.2-.3-.3-.4"/><path d="m13 27.7c-.1-.1-.3.1-.3.2 0 .2.1.4.3.4.1.1.3-.1.3-.2-.1-.1-.2-.3-.3-.4"/><path d="m9.1 27.2c-.1-.1-.3.1-.3.2 0 .2.1.4.3.4.1.1.3-.1.3-.2s-.1-.3-.3-.4"/><path d="m9.9 27.5c-.1-.1-.3.1-.3.2 0 .2.1.4.3.4.1.1.3-.1.3-.2s-.2-.3-.3-.4"/><path d="m10.7 27.8c-.1-.1-.3.1-.3.2 0 .2.1.4.3.4.1.1.3-.1.3-.2-.1-.1-.2-.4-.3-.4"/><path d="m12.2 28.4c-.1-.1-.3.1-.3.2 0 .2.1.4.3.4.1.1.3-.1.3-.2-.1-.2-.2-.4-.3-.4"/><path d="m12.9 28.7c-.1-.1-.3.1-.3.2 0 .2.1.4.3.4.1.1.3-.1.3-.2 0-.2-.1-.4-.3-.4"/><path d="m13.7 29c-.1-.1-.3.1-.3.2 0 .2.1.4.3.4.1.1.3-.1.3-.2 0-.2-.1-.4-.3-.4"/><path d="m8.4 27.8c-.1-.1-.3.1-.3.2 0 .2.1.4.3.4.1.1.3-.1.3-.2-.1-.1-.2-.3-.3-.4"/><path d="m9.9 28.4c-.1-.1-.3.1-.3.2 0 .2.1.4.3.4.1.1.3-.1.3-.2s-.2-.3-.3-.4"/><path d="m12.9 29.6c-.1-.1-.3.1-.3.2 0 .2.1.4.3.4.1.1.3-.1.3-.2s-.1-.3-.3-.4"/><path d="m14.5 30.2c-.1-.1-.3.1-.3.2 0 .2.1.4.3.4.1.1.3-.1.3-.2-.1-.2-.2-.4-.3-.4"/><path d="m9.1 29.1c-.1-.1-.2 0-.2.2s.1.4.3.4c.1.1.3-.1.3-.2-.1-.2-.2-.4-.4-.4"/><path d="m13.7 30.8c-.1-.1-.3.1-.3.2 0 .2.1.4.3.4.1.1.3-.1.3-.2s-.2-.3-.3-.4"/></g></g><g clip-path="url(#c)" enable-background="new"><path d="m25.8 29.8c.1-.1.3-.3.3-.4 0-.2-.1-.3-.3-.2-.1.1-.3.3-.3.4.1.1.2.2.3.2m-4.6 1.7c.1-.1.3-.3.3-.4 0-.2-.1-.3-.3-.2-.1.1-.3.3-.3.4.1.2.2.3.3.2m5.4-3c.1-.1.3-.3.3-.4 0-.2-.1-.3-.3-.2-.1.1-.3.3-.3.4 0 .2.1.3.3.2m-1.5.6c.1-.1.3-.3.3-.4 0-.2-.1-.3-.3-.2-.1.1-.3.3-.3.4 0 .2.1.3.3.2m-3.1 1.2c.1-.1.3-.3.3-.4 0-.2-.1-.3-.3-.2-.1.1-.3.3-.3.4s.2.3.3.2m-1.5.6c.1-.1.3-.3.3-.4 0-.2-.1-.3-.3-.2-.1.1-.3.3-.3.4s.1.2.3.2m5.3-3c.1-.1.3-.3.3-.4 0-.2-.1-.3-.3-.2-.1.1-.3.3-.3.4s.2.3.3.2m-.8.3c.1-.1.3-.3.3-.4 0-.2-.1-.3-.3-.2-.1.1-.3.3-.3.4.1.1.2.3.3.2m-.7.3c.1-.1.3-.3.3-.4 0-.2-.1-.3-.3-.2-.1.1-.3.3-.3.4s.1.2.3.2m-1.5.6c.1-.1.3-.3.3-.4 0-.2-.1-.3-.3-.2-.1.1-.3.3-.3.4s.1.2.3.2m-.8.3c.1-.1.3-.3.3-.4 0-.2-.1-.3-.3-.2-.1.1-.3.3-.3.4s.2.2.3.2m-.8.3c.1-.1.3-.3.3-.4 0-.2-.1-.3-.3-.2-.1-.1-.2.1-.2.3s.1.3.2.3m3.8-2.4c.1-.1.3-.3.3-.4 0-.2-.1-.3-.3-.2-.1.1-.3.3-.3.4.1.1.2.2.3.2m-1.5.5c.1-.1.3-.3.3-.4 0-.2-.1-.3-.3-.2-.1.1-.3.3-.3.4.1.2.2.3.3.2m-.7.3c.1-.1.3-.3.3-.4 0-.2-.1-.3-.3-.2-.1.1-.3.3-.3.4 0 .2.1.3.3.2m-.8.3c.1-.1.3-.3.3-.4 0-.2-.1-.3-.3-.2-.1.1-.3.3-.3.4 0 .2.2.3.3.2m2.3-1.8c.1-.1.3-.3.3-.4 0-.2-.1-.3-.3-.2-.2 0-.3.2-.3.4s.1.3.3.2m-.8.3c.1-.1.3-.3.3-.4 0-.2-.1-.3-.3-.2-.1.1-.3.3-.3.4.1.2.2.3.3.2m-.7.3c.1-.1.3-.3.3-.4 0-.2-.1-.3-.3-.2-.1.1-.3.3-.3.4 0 .2.1.3.3.2m3.8-2.4c.1-.1.3-.3.3-.4 0-.2-.1-.3-.3-.2-.1.1-.3.3-.3.4 0 .2.1.3.3.2m-1.6.6c.1-.1.3-.3.3-.4 0-.2-.1-.3-.3-.2-.1.1-.3.3-.3.4.1.1.2.3.3.2m-.7.3c.1-.1.3-.3.3-.4 0-.2-.1-.3-.3-.2-.1.1-.3.3-.3.4s.1.2.3.2m-.8.3c.1-.1.3-.3.3-.4 0-.2-.1-.3-.3-.2-.1.1-.3.3-.3.4s.2.2.3.2m-1.5.6c.1-.1.3-.3.3-.4 0-.2-.1-.3-.3-.2-.1.1-.3.3-.3.4s.1.2.3.2m-1.5.6c.1-.1.3-.3.3-.4 0-.2-.1-.3-.3-.2-.1.1-.3.3-.3.4s.1.2.3.2m6.1-3.3c.1-.1.3-.3.3-.4 0-.2-.1-.3-.3-.2-.1.1-.3.3-.3.4s.1.2.3.2m-.8.3c.1-.1.3-.3.3-.4 0-.2-.1-.3-.3-.2-.1.1-.3.3-.3.4s.1.2.3.2m-.8.3c.1-.1.3-.3.3-.4 0-.2-.1-.3-.3-.2-.1.1-.3.3-.3.4.1.1.2.2.3.2m-.7.3c.1-.1.3-.3.3-.4 0-.2-.1-.3-.3-.2-.1.1-.3.3-.3.4s.1.2.3.2m-1.6.5c.1-.1.3-.3.3-.4 0-.2-.1-.3-.3-.2-.1.1-.3.3-.3.4.1.2.2.3.3.2m-.7.3c.1-.1.3-.3.3-.4 0-.2-.1-.3-.3-.2-.1.1-.3.3-.3.4 0 .2.1.3.3.2m-.8.3c.1-.1.3-.3.3-.4 0-.2-.1-.3-.3-.2-.1.1-.3.3-.3.4.1.2.2.3.3.2m-.7.3c.1-.1.3-.3.3-.4 0-.2-.1-.3-.3-.2-.1.1-.3.3-.3.4 0 .2.1.3.3.2m6.1-3.3c.1-.1.3-.3.3-.4 0-.2-.1-.3-.3-.2-.1.1-.3.3-.3.4 0 .2.1.3.3.2m-.8.3c.1-.1.3-.3.3-.4 0-.2-.1-.3-.3-.2-.1.1-.3.3-.3.4 0 .2.1.3.3.2m-.8.3c.1-.1.3-.3.3-.4 0-.2-.1-.3-.3-.2-.1.1-.3.3-.3.4.1.2.2.3.3.2m-3 1.2c.1-.1.3-.3.3-.4 0-.2-.1-.3-.3-.2-.1.1-.3.3-.3.4s.1.3.3.2m-.8.3c.1-.1.3-.3.3-.4 0-.2-.1-.3-.3-.2-.1.1-.3.3-.3.4.1.1.2.2.3.2m-.7.3c.1-.1.3-.3.3-.4 0-.2-.1-.3-.3-.2-.1.1-.3.3-.3.4s.1.2.3.2m6-3.3c.1-.1.3-.3.3-.4 0-.2-.1-.3-.3-.2-.1.1-.3.3-.3.4.1.2.2.3.3.2m-.7.3c.1-.1.3-.3.3-.4 0-.2-.1-.3-.3-.2-.1.1-.3.3-.3.4 0 .2.1.3.3.2m-.8.3c.1-.1.3-.3.3-.4 0-.2-.1-.3-.3-.2-.1.1-.3.3-.3.4.1.1.2.3.3.2m-.7.3c.1-.1.3-.3.3-.4 0-.2-.1-.3-.3-.2-.1.1-.3.3-.3.4s.1.2.3.2m-1.6.6c.1-.1.3-.3.3-.4 0-.2-.1-.3-.3-.2-.1.1-.3.3-.3.4.1.1.2.2.3.2m-.7.3c.1-.1.3-.3.3-.4 0-.2-.1-.3-.3-.2-.1.1-.3.3-.3.4s.1.2.3.2m-.8.3c.1-.1.3-.3.3-.4 0-.2-.1-.3-.3-.2-.1.1-.3.3-.3.4s.2.2.3.2m-.7.3c.1-.1.3-.3.3-.4 0-.2-.1-.3-.3-.2-.1.1-.3.3-.3.4s.1.2.3.2m-1.9-2.4 9.9-3.8.1 11.4-9.9 3.8z" fill="#161519"/><g fill="#5f7561"><path d="m26.5 21.3c.1-.1.3.1.3.2 0 .2-.1.4-.3.4-.1.1-.3-.1-.3-.2.1-.1.2-.3.3-.4"/><path d="m25.8 21.6c.1-.1.3.1.3.2 0 .2-.1.4-.3.4-.1.1-.3-.1-.3-.2s.1-.3.3-.4"/><path d="m25 21.9c.1-.1.3.1.3.2 0 .2-.1.4-.3.4-.1.1-.3-.1-.3-.2.1-.1.2-.3.3-.4"/><path d="m24.3 22.2c.1-.1.3.1.3.2 0 .2-.1.4-.3.4-.1.1-.3-.1-.3-.2s.1-.3.3-.4"/><path d="m22.7 22.8c.1-.1.3.1.3.2 0 .2-.1.4-.3.4-.1.1-.3-.1-.3-.2.1-.2.2-.4.3-.4"/><path d="m22 23.1c.1-.1.3.1.3.2 0 .2-.1.4-.3.4-.1.1-.3-.1-.3-.2 0-.2.1-.4.3-.4"/><path d="m21.2 23.4c.1-.1.3.1.3.2 0 .2-.1.4-.3.4-.1.1-.3-.1-.3-.2 0-.2.2-.4.3-.4"/><path d="m20.4 23.7c.1-.1.3.1.3.2 0 .2-.1.4-.3.4-.1.1-.3-.1-.3-.2.1-.2.2-.4.3-.4"/><path d="m26.5 22.3c.1-.1.3.1.3.2 0 .2-.1.4-.3.4-.1.1-.3-.1-.3-.2.1-.2.2-.4.3-.4"/><path d="m25.8 22.5c.1-.1.3.1.3.2 0 .2-.1.4-.3.4-.1.1-.3-.1-.3-.2s.1-.3.3-.4"/><path d="m25 22.8c.1-.1.3.1.3.2 0 .2-.1.4-.3.4-.1.1-.3-.1-.3-.2.1-.1.2-.3.3-.4"/><path d="m22 24c.1-.1.3.1.3.2 0 .2-.1.4-.3.4-.1.1-.3-.1-.3-.2s.1-.3.3-.4"/><path d="m21.2 24.3c.1-.1.3.1.3.2 0 .2-.1.4-.3.4-.1.1-.2 0-.2-.2 0-.1.1-.3.2-.4"/><path d="m20.5 24.6c.1-.1.3.1.3.2 0 .2-.1.4-.3.4-.1.1-.3-.1-.3-.2 0-.2.1-.4.3-.4"/><path d="m26.6 23.2c.1-.1.3.1.3.2 0 .2-.1.4-.3.4-.1.1-.3-.1-.3-.2 0-.2.1-.4.3-.4"/><path d="m25.8 23.5c.1-.1.3.1.3.2 0 .2-.1.4-.3.4-.1.1-.3-.1-.3-.2 0-.2.1-.4.3-.4"/><path d="m25 23.8c.1-.1.3.1.3.2 0 .2-.1.4-.3.4-.1.1-.3-.1-.3-.2.1-.2.2-.4.3-.4"/><path d="m24.3 24.1c.1-.1.3.1.3.2 0 .2-.1.4-.3.4-.1.1-.3-.1-.3-.2 0-.2.1-.4.3-.4"/><path d="m22.7 24.6c.1-.1.3.1.3.2 0 .2-.1.4-.3.4-.1.1-.3-.1-.3-.2.1-.1.2-.3.3-.4"/><path d="m22 24.9c.1-.1.3.1.3.2 0 .2-.1.4-.3.4-.1.1-.3-.1-.3-.2s.1-.3.3-.4"/><path d="m21.2 25.2c.1-.1.3.1.3.2 0 .2-.1.4-.3.4-.1.2-.2.1-.2-.1s.1-.4.2-.5"/><path d="m20.5 25.5c.1-.1.3.1.3.2 0 .2-.1.4-.3.4-.1.1-.3-.1-.3-.2s.1-.3.3-.4"/><path d="m26.6 24.1c.1-.1.3.1.3.2 0 .2-.1.4-.3.4-.1.1-.3-.1-.3-.2s.1-.3.3-.4"/><path d="m25 24.7c.1-.1.3.1.3.2 0 .2-.1.4-.3.4-.1.1-.3-.1-.3-.2.1-.1.2-.3.3-.4"/><path d="m24.3 25c.1-.1.3.1.3.2 0 .2-.1.4-.3.4-.1.1-.3-.1-.3-.2s.1-.3.3-.4"/><path d="m23.5 25.3c.1-.1.3.1.3.2 0 .2-.1.4-.3.4-.1.1-.3-.1-.3-.2 0-.2.2-.4.3-.4"/><path d="m22 25.9c.1-.1.3.1.3.2 0 .2-.1.4-.3.4-.1.1-.3-.1-.3-.2 0-.2.1-.4.3-.4"/><path d="m20.5 26.5c.1-.1.3.1.3.2 0 .2-.1.4-.3.4-.1.1-.3-.1-.3-.2 0-.2.1-.4.3-.4"/><path d="m24.3 25.9c.1-.1.3.1.3.2 0 .2-.1.4-.3.4-.1.1-.3-.1-.3-.2s.1-.3.3-.4"/><path d="m23.5 26.2c.1-.1.3.1.3.2 0 .2-.1.4-.3.4-.1.1-.3-.1-.3-.2.1-.1.2-.3.3-.4"/><path d="m22.8 26.5c.1-.1.3.1.3.2 0 .2-.1.4-.3.4-.1.1-.3-.1-.3-.2s.1-.3.3-.4"/><path d="m25 26.6c.1-.1.3.1.3.2 0 .2-.1.4-.3.4-.1.1-.3-.1-.3-.2.1-.2.2-.4.3-.4"/><path d="m23.5 27.2c.1-.1.3.1.3.2 0 .2-.1.4-.3.4-.1.1-.3-.1-.3-.2.1-.2.2-.4.3-.4"/><path d="m22.8 27.4c.1-.1.3.1.3.2 0 .2-.1.4-.3.4-.1.1-.3-.1-.3-.2s.1-.3.3-.4"/><path d="m22 27.7c.1-.1.3.1.3.2 0 .2-.1.4-.3.4-.1.1-.3-.1-.3-.2s.1-.3.3-.4"/><path d="m25.8 27.2c.1-.1.3.1.3.2 0 .2-.1.4-.3.4-.1.1-.3-.1-.3-.2s.2-.3.3-.4"/><path d="m25 27.5c.1-.1.3.1.3.2 0 .2-.1.4-.3.4-.1.1-.3-.1-.3-.2.1-.1.2-.3.3-.4"/><path d="m24.3 27.8c.1-.1.3.1.3.2 0 .2-.1.4-.3.4-.1.1-.3-.1-.3-.2s.1-.4.3-.4"/><path d="m22.8 28.4c.1-.1.3.1.3.2 0 .2-.1.4-.3.4-.1.1-.3-.1-.3-.2 0-.2.1-.4.3-.4"/><path d="m22 28.7c.1-.1.3.1.3.2 0 .2-.1.4-.3.4-.1.1-.3-.1-.3-.2 0-.2.2-.4.3-.4"/><path d="m21.2 29c.1-.1.3.1.3.2 0 .2-.1.4-.3.4-.1.1-.3-.1-.3-.2.1-.2.2-.4.3-.4"/><path d="m26.6 27.8c.1-.1.3.1.3.2 0 .2-.1.4-.3.4-.1.1-.3-.1-.3-.2s.1-.3.3-.4"/><path d="m25 28.4c.1-.1.3.1.3.2 0 .2-.1.4-.3.4-.1.1-.3-.1-.3-.2.1-.1.2-.3.3-.4"/><path d="m22 29.6c.1-.1.3.1.3.2 0 .2-.1.4-.3.4-.1.1-.3-.1-.3-.2s.2-.3.3-.4"/><path d="m20.5 30.2c.1-.1.3.1.3.2 0 .2-.1.4-.3.4-.1.1-.3-.1-.3-.2 0-.2.1-.4.3-.4"/><path d="m25.8 29.1c.1-.1.3.1.3.2 0 .2-.1.4-.3.4-.1.1-.3-.1-.3-.2.1-.2.2-.4.3-.4"/><path d="m21.2 30.8c.1-.1.3.1.3.2 0 .2-.1.4-.3.4-.1.1-.3-.1-.3-.2.1-.1.2-.3.3-.4"/></g></g><path d="m17.5 9-15.5 6v3.1l15.5 6 15.5-6v-3.1z" fill="#beb6cc"/><g enable-background="new"><path d="m33 15v3.1l-15.5 6v-3.2z" fill="#6e6993"/><path d="m17.5 20.9v3.2l-15.5-6v-3.1z" fill="#8f88a0"/><path d="m17.5 9 15.5 6-15.5 5.9-15.5-5.9z" fill="#beb6cc"/></g><path d="m17.5 10.4-11 4.5 11 4.5 11-4.5z" fill="#292930"/><g enable-background="new"><path d="m22.9 6.2v9l-5.4 2v-8.9z" fill="#6e6993"/><path d="m17.5 8.3v8.9l-5.4-2v-9z" fill="#8f88a0"/><path d="m17.5 4.2 5.4 2-5.4 2.1-5.4-2.1z" fill="#b3b3b3"/></g><g enable-background="new"><path d="m22.9 8.6v4.2l-5.4 2.1v-4.3z" fill="#3b00ff"/><path d="m17.5 10.6v4.3l-5.4-2.1v-4.2z" fill="#5c00ff"/><path d="m17.5 6.5 5.4 2.1-5.4 2-5.4-2z" fill="#7d7d7d"/></g><g enable-background="new"><path d="m22.9 6.3v2.4l-5.4 2.1v-2.5z" fill="#6e6993"/><path d="m17.5 8.3v2.5l-5.4-2.1v-2.4z" fill="#8f88a0"/><path d="m17.5 4.2 5.4 2.1-5.4 2-5.4-2z" fill="#beb6cc"/></g><path d="m17.5 2.3 4.4 3.6-4.4 1.7-4.4-1.7z" fill="#5c00ff"/><g fill="#8f88a0"><path d="m16.5 1.3h2v8h-2z"/><path d="m16.8.2h1.5v.7h-1.5z"/><path d="m10.4 3.1h8.5v2h-8.5z" transform="matrix(.6706 -.7418 .7418 .6706 1.8244 12.2014)"/><path d="m19.4-.2h2v8.5h-2z" transform="matrix(.7418 -.6706 .6706 .7418 2.5404 14.6906)"/></g><g opacity=".1"><path d="m17.5 14.5-11.8 4.6v11.1l11.8 4.6 11.8-4.6v-11.1z" fill="url(#e)"/><path d="m29.3 19.1v11.1l-11.8 4.6v-11.2z" fill="url(#f)"/><path d="m17.5 23.6v11.2l-11.8-4.6v-11.1z" fill="url(#g)"/><path d="m17.5 14.5 11.8 4.6-11.8 4.5-11.8-4.5z" fill="url(#h)"/><path d="m28.2 20.5v9.1l-9.6 3.7v-9.1z" fill="url(#f)"/><path d="m16.4 24.2v9.1l-9.6-3.7v-9.1z" fill="url(#g)"/><g clip-path="url(#i)"><path d="m11.5 25.6 1.2-.8-.4-.6 2.9.3-.8 2.7-.4-.5-1.2.8 1.5 2.1-1.3.8-1.5-2.1-1.5 1-1.3-1.8 1.5-1-1.2-1.6-.4.3-.8-3.3 2.9 1.9-.3.2zm4.9-2.2-9.7-3.7v10l9.7 3.7z" fill="url(#j)"/><path d="m15.2 24.6-2.9-.3.4.6-1.2.7-1.1-1.6.4-.3-2.9-1.9.8 3.3.4-.3 1.2 1.7-1.5.9 1.2 1.8 1.5-.9 1.6 2.1 1.2-.8-1.5-2.2 1.2-.7.4.6z" fill="url(#k)"/></g><g clip-path="url(#l)"><path d="m9.1 29.8c-.1-.1-.3-.3-.3-.4 0-.2.1-.3.3-.2.1.1.3.3.3.4s-.1.2-.3.2m4.6 1.7c-.1-.1-.3-.3-.3-.4 0-.2.1-.3.3-.2.1.1.3.3.3.4 0 .2-.2.3-.3.2m-5.3-3c-.1-.1-.3-.3-.3-.4 0-.2.1-.3.3-.2.1.1.3.3.3.4-.1.2-.2.3-.3.2m1.5.6c-.1-.1-.3-.3-.3-.4 0-.2.1-.3.3-.2.1.1.3.3.3.4 0 .2-.2.3-.3.2m3 1.2c-.1-.1-.3-.3-.3-.4 0-.2.1-.3.3-.2.1.1.3.3.3.4s-.1.3-.3.2m1.6.6c-.1-.1-.3-.3-.3-.4 0-.2.1-.3.3-.2.1.1.3.3.3.4-.1.1-.2.2-.3.2m-5.4-3c-.1-.1-.3-.3-.3-.4 0-.2.1-.3.3-.2.1.1.3.3.3.4s-.1.3-.3.2m.8.3c-.1-.1-.3-.3-.3-.4 0-.2.1-.3.3-.2.1.1.3.3.3.4s-.2.3-.3.2m.8.3c-.1-.1-.3-.3-.3-.4 0-.2.1-.3.3-.2.1.1.3.3.3.4-.1.1-.2.2-.3.2m1.5.6c-.1-.1-.3-.3-.3-.4 0-.2.1-.3.3-.2.1.1.3.3.3.4-.1.1-.2.2-.3.2m.7.3c-.1-.1-.3-.3-.3-.4 0-.2.1-.3.3-.2.1.1.3.3.3.4s-.1.2-.3.2m.8.3c-.1-.1-.3-.3-.3-.4 0-.2.1-.3.3-.2.1.1.3.3.3.4s-.1.2-.3.2m-3.8-2.4c-.1-.1-.3-.3-.3-.4 0-.2.1-.3.3-.2.1.1.3.3.3.4s-.2.2-.3.2m1.5.5c-.1-.1-.3-.3-.3-.4 0-.2.1-.3.3-.2.1.1.3.3.3.4 0 .2-.1.3-.3.2m.8.3c-.1-.1-.3-.3-.3-.4 0-.2.1-.3.3-.2.1.1.3.3.3.4 0 .2-.2.3-.3.2m.7.3c-.1-.1-.3-.3-.3-.4 0-.2.1-.3.3-.2.1.1.3.3.3.4 0 .2-.1.3-.3.2m-2.2-1.8c-.1-.1-.3-.3-.3-.4 0-.2.1-.3.3-.2.1.1.3.3.3.4-.1.2-.2.3-.3.2m.7.3c-.1-.1-.3-.3-.3-.4 0-.2.1-.3.3-.2.1.1.3.3.3.4 0 .2-.1.3-.3.2m.8.3c-.1-.1-.3-.3-.3-.4 0-.2.1-.3.3-.2.1.1.3.3.3.4 0 .2-.2.3-.3.2m-3.8-2.4c-.1-.1-.3-.3-.3-.4 0-.2.1-.3.3-.2.1.1.3.3.3.4 0 .2-.2.3-.3.2m1.5.6c-.1-.1-.3-.3-.3-.4 0-.2.1-.3.3-.2.1.1.3.3.3.4s-.1.3-.3.2m.8.3c-.1-.1-.3-.3-.3-.4 0-.2.1-.3.3-.2.1.1.3.3.3.4-.1.1-.2.2-.3.2m.7.3c-.1-.1-.3-.3-.3-.4 0-.2.1-.3.3-.2.1.1.3.3.3.4s-.1.2-.3.2m1.6.6c-.1-.1-.3-.3-.3-.4 0-.2.1-.3.3-.2.1.1.3.3.3.4-.1.1-.2.2-.3.2m1.5.6c-.1-.1-.3-.3-.3-.4 0-.2.1-.3.3-.2.1.1.3.3.3.4-.1.1-.2.2-.3.2m-6.1-3.3c-.1-.1-.3-.3-.3-.4 0-.2.1-.3.3-.2.1.1.3.3.3.4s-.2.2-.3.2m.8.3c-.1-.1-.3-.3-.3-.4 0-.2.1-.3.3-.2.1.1.3.3.3.4-.1.1-.2.2-.3.2m.7.3c-.1-.1-.3-.3-.3-.4 0-.2.1-.3.3-.2.1.1.3.3.3.4s-.1.2-.3.2m.8.3c-.1-.1-.3-.3-.3-.4 0-.2.1-.3.3-.2.1.1.3.3.3.4-.1.1-.2.2-.3.2m1.5.5c-.1-.1-.3-.3-.3-.4 0-.2.1-.3.3-.2.1.1.3.3.3.4 0 .2-.2.3-.3.2m.8.3c-.1-.1-.3-.3-.3-.4 0-.2.1-.3.3-.2.1.1.3.3.3.4-.1.2-.2.3-.3.2m.7.3c-.1-.1-.3-.3-.3-.4 0-.2.1-.3.3-.2.1.1.3.3.3.4 0 .2-.1.3-.3.2m.8.3c-.1-.1-.3-.3-.3-.4 0-.2.1-.3.3-.2.1.1.3.3.3.4 0 .2-.2.3-.3.2m-6.1-3.3c-.1-.1-.3-.3-.3-.4 0-.2.1-.3.3-.2.1.1.3.3.3.4 0 .2-.2.3-.3.2m.8.3c-.2 0-.3-.2-.3-.4s.1-.3.3-.2c.1.1.3.3.3.4-.1.2-.2.3-.3.2m.7.3c-.1-.1-.3-.3-.3-.4 0-.2.1-.3.3-.2.1.1.3.3.3.4 0 .2-.1.3-.3.2m3.1 1.2c-.1-.1-.3-.3-.3-.4 0-.2.1-.3.3-.2.1.1.3.3.3.4-.1.1-.2.3-.3.2m.7.3c-.1-.1-.3-.3-.3-.4 0-.2.1-.3.3-.2.1.1.3.3.3.4s-.1.2-.3.2m.8.3c-.1-.1-.3-.3-.3-.4 0-.2.1-.3.3-.2.1.1.3.3.3.4s-.2.2-.3.2m-6.1-3.3c-.1-.1-.3-.3-.3-.4 0-.2.1-.3.3-.2.1.1.3.3.3.4 0 .2-.2.3-.3.2m.8.3c-.2-.1-.3-.3-.3-.4 0-.2.1-.3.3-.2.1.1.3.3.3.4-.1.2-.2.3-.3.2m.7.3c-.1-.1-.3-.3-.3-.4 0-.2.1-.3.3-.2.1.1.3.3.3.4s-.1.3-.3.2m.8.3c-.1-.1-.3-.3-.3-.4 0-.2.1-.3.3-.2.1.1.3.3.3.4-.1.1-.2.2-.3.2m1.5.6c-.1-.1-.3-.3-.3-.4 0-.2.1-.3.3-.2.1.1.3.3.3.4s-.1.2-.3.2m.8.3c-.1-.1-.3-.3-.3-.4 0-.2.1-.3.3-.2.1.1.3.3.3.4-.1.1-.2.2-.3.2m.7.3c-.1-.1-.3-.3-.3-.4 0-.2.1-.3.3-.2.1.1.3.3.3.4s-.1.2-.3.2m.8.3c-.1-.1-.3-.3-.3-.4 0-.2.1-.3.3-.2.1.1.3.3.3.4s-.2.2-.3.2m1.9-2.4-9.9-3.8v11.4l9.9 3.8z" fill="url(#m)"/><path d="m8.4 21.3c-.1-.1-.3.1-.3.2 0 .2.1.4.3.4.1.1.3-.1.3-.2s-.2-.3-.3-.4" fill="url(#n)"/><path d="m9.2 21.6c-.1-.1-.3.1-.3.2 0 .2.1.4.3.4.1.1.3-.1.3-.2-.1-.1-.2-.3-.3-.4" fill="url(#o)"/><path d="m9.9 21.9c-.1-.1-.3.1-.3.2 0 .2.1.4.3.4.1.1.3-.1.3-.2s-.1-.3-.3-.4" fill="url(#p)"/><path d="m10.7 22.2c-.1-.1-.3.1-.3.2 0 .2.1.4.3.4.1.1.3-.1.3-.2s-.2-.3-.3-.4" fill="url(#q)"/><path d="m12.2 22.8c-.1-.1-.3.1-.3.2 0 .2.1.4.3.4.1.1.3-.1.3-.2 0-.2-.1-.4-.3-.4" fill="url(#r)"/><path d="m13 23.1c-.1-.1-.3.1-.3.2 0 .2.1.4.3.4.1.1.3-.1.3-.2-.1-.2-.2-.4-.3-.4" fill="url(#s)"/><path d="m13.7 23.4c-.1-.1-.3.1-.3.2 0 .2.1.4.3.4.1.1.3-.1.3-.2 0-.2-.1-.4-.3-.4" fill="url(#t)"/><path d="m14.5 23.7c-.1-.1-.3.1-.3.2 0 .2.1.4.3.4.1.1.3-.1.3-.2 0-.2-.2-.4-.3-.4" fill="url(#u)"/><path d="m8.4 22.3c-.1-.1-.3.1-.3.2 0 .2.1.4.3.4.1.1.3-.1.3-.2 0-.2-.2-.4-.3-.4" fill="url(#v)"/><path d="m9.2 22.5c-.1-.1-.3.1-.3.2 0 .2.1.4.3.4.1.1.3-.1.3-.2-.1-.1-.2-.3-.3-.4" fill="url(#w)"/><path d="m9.9 22.8c-.1-.1-.3.1-.3.2 0 .2.1.4.3.4.1.1.3-.1.3-.2s-.1-.3-.3-.4" fill="url(#x)"/><path d="m13 24c-.1-.1-.3.1-.3.2 0 .2.1.4.3.4.1.1.3-.1.3-.2-.1-.1-.2-.3-.3-.4" fill="url(#y)"/><path d="m13.7 24.3c-.1-.1-.3.1-.3.2 0 .2.1.4.3.4.1.1.3-.1.3-.2s-.1-.3-.3-.4" fill="url(#z)"/><path d="m14.5 24.6c-.1-.1-.3.1-.3.2 0 .2.1.4.3.4.1.1.3-.1.3-.2 0-.2-.2-.4-.3-.4" fill="url(#A)"/><path d="m8.4 23.2c-.1-.1-.3.1-.3.2 0 .2.1.4.3.4.1.1.3-.1.3-.2 0-.2-.2-.4-.3-.4" fill="url(#B)"/><path d="m9.2 23.5c-.1-.1-.3.1-.3.2 0 .2.1.4.3.4.1.1.3-.1.3-.2-.1-.2-.2-.4-.3-.4" fill="url(#C)"/><path d="m9.9 23.8c-.1-.1-.3.1-.3.2 0 .2.1.4.3.4.1.1.3-.1.3-.2 0-.2-.1-.4-.3-.4" fill="url(#D)"/><path d="m10.7 24.1c-.1-.1-.3.1-.3.2 0 .2.1.4.3.4.1.1.3-.1.3-.2-.1-.2-.2-.4-.3-.4" fill="url(#E)"/><path d="m12.2 24.6c-.1-.1-.3.1-.3.2 0 .2.1.4.3.4.1.1.3-.1.3-.2s-.2-.3-.3-.4" fill="url(#F)"/><path d="m13 24.9c-.1-.1-.3.1-.3.2 0 .2.1.4.3.4.1.1.3-.1.3-.2-.1-.1-.2-.3-.3-.4" fill="url(#G)"/><path d="m13.7 25.2c-.1-.1-.3.1-.3.2 0 .2.1.4.3.4.1.1.3-.1.3-.2s-.1-.3-.3-.4" fill="url(#H)"/><path d="m14.5 25.5c-.1-.1-.3.1-.3.2 0 .2.1.4.3.4.1.1.3-.1.3-.2s-.2-.3-.3-.4" fill="url(#I)"/><path d="m8.4 24.1c-.1-.1-.3.1-.3.2 0 .2.1.4.3.4.1.1.3-.1.3-.2s-.2-.3-.3-.4" fill="url(#J)"/><path d="m9.9 24.7c-.1-.1-.3.1-.3.2 0 .2.1.4.3.4.1.1.3-.1.3-.2s-.1-.3-.3-.4" fill="url(#K)"/><path d="m10.7 25c-.1-.1-.3.1-.3.2 0 .2.1.4.3.4.1.1.3-.1.3-.2-.1-.1-.2-.3-.3-.4" fill="url(#L)"/><path d="m11.4 25.3c-.1-.1-.3.1-.3.2 0 .2.1.4.3.4.1.1.3-.1.3-.2 0-.2-.1-.4-.3-.4" fill="url(#M)"/><path d="m13 25.9c-.1-.1-.3.1-.3.2 0 .2.1.4.3.4.1.1.3-.1.3-.2-.1-.2-.2-.4-.3-.4" fill="url(#N)"/><path d="m14.5 26.5c-.1-.1-.3.1-.3.2 0 .2.1.4.3.4.1.1.3-.1.3-.2-.1-.2-.2-.4-.3-.4" fill="url(#O)"/><path d="m10.7 25.9c-.1-.1-.3.1-.3.2 0 .2.1.4.3.4.1.1.3-.1.3-.2-.1-.1-.2-.3-.3-.4" fill="url(#P)"/><path d="m11.4 26.2c-.1-.1-.3.1-.3.2 0 .2.1.4.3.4.1.1.3-.1.3-.2s-.1-.3-.3-.4" fill="url(#Q)"/><path d="m12.2 26.5c-.1-.1-.3.1-.3.2 0 .2.1.4.3.4.1.1.3-.1.3-.2s-.2-.3-.3-.4" fill="url(#R)"/><path d="m9.9 26.6c-.1-.1-.3.1-.3.2 0 .2.1.4.3.4.1.1.3-.1.3-.2 0-.2-.1-.4-.3-.4" fill="url(#S)"/><path d="m11.4 27.2c-.1-.1-.3.1-.3.2 0 .2.1.4.3.4.1.1.3-.1.3-.2 0-.2-.1-.4-.3-.4" fill="url(#T)"/><path d="m12.2 27.4c-.1-.1-.3.1-.3.2 0 .2.1.4.3.4.1.1.3-.1.3-.2s-.2-.3-.3-.4" fill="url(#U)"/><path d="m13 27.7c-.1-.1-.3.1-.3.2 0 .2.1.4.3.4.1.1.3-.1.3-.2-.1-.1-.2-.3-.3-.4" fill="url(#V)"/><path d="m9.1 27.2c-.1-.1-.3.1-.3.2 0 .2.1.4.3.4.1.1.3-.1.3-.2s-.1-.3-.3-.4" fill="url(#W)"/><path d="m9.9 27.5c-.1-.1-.3.1-.3.2 0 .2.1.4.3.4.1.1.3-.1.3-.2s-.2-.3-.3-.4" fill="url(#X)"/><path d="m10.7 27.8c-.1-.1-.3.1-.3.2 0 .2.1.4.3.4.1.1.3-.1.3-.2-.1-.1-.2-.4-.3-.4" fill="url(#Y)"/><path d="m12.2 28.4c-.1-.1-.3.1-.3.2 0 .2.1.4.3.4.1.1.3-.1.3-.2-.1-.2-.2-.4-.3-.4" fill="url(#Z)"/><path d="m12.9 28.7c-.1-.1-.3.1-.3.2 0 .2.1.4.3.4.1.1.3-.1.3-.2 0-.2-.1-.4-.3-.4" fill="url(#aa)"/><path d="m13.7 29c-.1-.1-.3.1-.3.2 0 .2.1.4.3.4.1.1.3-.1.3-.2 0-.2-.1-.4-.3-.4" fill="url(#ab)"/><path d="m8.4 27.8c-.1-.1-.3.1-.3.2 0 .2.1.4.3.4.1.1.3-.1.3-.2-.1-.1-.2-.3-.3-.4" fill="url(#ac)"/><path d="m9.9 28.4c-.1-.1-.3.1-.3.2 0 .2.1.4.3.4.1.1.3-.1.3-.2s-.2-.3-.3-.4" fill="url(#ad)"/><path d="m12.9 29.6c-.1-.1-.3.1-.3.2 0 .2.1.4.3.4.1.1.3-.1.3-.2s-.1-.3-.3-.4" fill="url(#ae)"/><path d="m14.5 30.2c-.1-.1-.3.1-.3.2 0 .2.1.4.3.4.1.1.3-.1.3-.2-.1-.2-.2-.4-.3-.4" fill="url(#af)"/><path d="m9.1 29.1c-.1-.1-.2 0-.2.2s.1.4.3.4c.1.1.3-.1.3-.2-.1-.2-.2-.4-.4-.4" fill="url(#ag)"/><path d="m13.7 30.8c-.1-.1-.3.1-.3.2 0 .2.1.4.3.4.1.1.3-.1.3-.2s-.2-.3-.3-.4" fill="url(#ah)"/></g><g clip-path="url(#ai)"><path d="m25.8 29.8c.1-.1.3-.3.3-.4 0-.2-.1-.3-.3-.2-.1.1-.3.3-.3.4.1.1.2.2.3.2m-4.6 1.7c.1-.1.3-.3.3-.4 0-.2-.1-.3-.3-.2-.1.1-.3.3-.3.4.1.2.2.3.3.2m5.4-3c.1-.1.3-.3.3-.4 0-.2-.1-.3-.3-.2-.1.1-.3.3-.3.4 0 .2.1.3.3.2m-1.5.6c.1-.1.3-.3.3-.4 0-.2-.1-.3-.3-.2-.1.1-.3.3-.3.4 0 .2.1.3.3.2m-3.1 1.2c.1-.1.3-.3.3-.4 0-.2-.1-.3-.3-.2-.1.1-.3.3-.3.4s.2.3.3.2m-1.5.6c.1-.1.3-.3.3-.4 0-.2-.1-.3-.3-.2-.1.1-.3.3-.3.4s.1.2.3.2m5.3-3c.1-.1.3-.3.3-.4 0-.2-.1-.3-.3-.2-.1.1-.3.3-.3.4s.2.3.3.2m-.8.3c.1-.1.3-.3.3-.4 0-.2-.1-.3-.3-.2-.1.1-.3.3-.3.4.1.1.2.3.3.2m-.7.3c.1-.1.3-.3.3-.4 0-.2-.1-.3-.3-.2-.1.1-.3.3-.3.4s.1.2.3.2m-1.5.6c.1-.1.3-.3.3-.4 0-.2-.1-.3-.3-.2-.1.1-.3.3-.3.4s.1.2.3.2m-.8.3c.1-.1.3-.3.3-.4 0-.2-.1-.3-.3-.2-.1.1-.3.3-.3.4s.2.2.3.2m-.8.3c.1-.1.3-.3.3-.4 0-.2-.1-.3-.3-.2-.1-.1-.2.1-.2.3s.1.3.2.3m3.8-2.4c.1-.1.3-.3.3-.4 0-.2-.1-.3-.3-.2-.1.1-.3.3-.3.4.1.1.2.2.3.2m-1.5.5c.1-.1.3-.3.3-.4 0-.2-.1-.3-.3-.2-.1.1-.3.3-.3.4.1.2.2.3.3.2m-.7.3c.1-.1.3-.3.3-.4 0-.2-.1-.3-.3-.2-.1.1-.3.3-.3.4 0 .2.1.3.3.2m-.8.3c.1-.1.3-.3.3-.4 0-.2-.1-.3-.3-.2-.1.1-.3.3-.3.4 0 .2.2.3.3.2m2.3-1.8c.1-.1.3-.3.3-.4 0-.2-.1-.3-.3-.2-.2 0-.3.2-.3.4s.1.3.3.2m-.8.3c.1-.1.3-.3.3-.4 0-.2-.1-.3-.3-.2-.1.1-.3.3-.3.4.1.2.2.3.3.2m-.7.3c.1-.1.3-.3.3-.4 0-.2-.1-.3-.3-.2-.1.1-.3.3-.3.4 0 .2.1.3.3.2m3.8-2.4c.1-.1.3-.3.3-.4 0-.2-.1-.3-.3-.2-.1.1-.3.3-.3.4 0 .2.1.3.3.2m-1.6.6c.1-.1.3-.3.3-.4 0-.2-.1-.3-.3-.2-.1.1-.3.3-.3.4.1.1.2.3.3.2m-.7.3c.1-.1.3-.3.3-.4 0-.2-.1-.3-.3-.2-.1.1-.3.3-.3.4s.1.2.3.2m-.8.3c.1-.1.3-.3.3-.4 0-.2-.1-.3-.3-.2-.1.1-.3.3-.3.4s.2.2.3.2m-1.5.6c.1-.1.3-.3.3-.4 0-.2-.1-.3-.3-.2-.1.1-.3.3-.3.4s.1.2.3.2m-1.5.6c.1-.1.3-.3.3-.4 0-.2-.1-.3-.3-.2-.1.1-.3.3-.3.4s.1.2.3.2m6.1-3.3c.1-.1.3-.3.3-.4 0-.2-.1-.3-.3-.2-.1.1-.3.3-.3.4s.1.2.3.2m-.8.3c.1-.1.3-.3.3-.4 0-.2-.1-.3-.3-.2-.1.1-.3.3-.3.4s.1.2.3.2m-.8.3c.1-.1.3-.3.3-.4 0-.2-.1-.3-.3-.2-.1.1-.3.3-.3.4.1.1.2.2.3.2m-.7.3c.1-.1.3-.3.3-.4 0-.2-.1-.3-.3-.2-.1.1-.3.3-.3.4s.1.2.3.2m-1.6.5c.1-.1.3-.3.3-.4 0-.2-.1-.3-.3-.2-.1.1-.3.3-.3.4.1.2.2.3.3.2m-.7.3c.1-.1.3-.3.3-.4 0-.2-.1-.3-.3-.2-.1.1-.3.3-.3.4 0 .2.1.3.3.2m-.8.3c.1-.1.3-.3.3-.4 0-.2-.1-.3-.3-.2-.1.1-.3.3-.3.4.1.2.2.3.3.2m-.7.3c.1-.1.3-.3.3-.4 0-.2-.1-.3-.3-.2-.1.1-.3.3-.3.4 0 .2.1.3.3.2m6.1-3.3c.1-.1.3-.3.3-.4 0-.2-.1-.3-.3-.2-.1.1-.3.3-.3.4 0 .2.1.3.3.2m-.8.3c.1-.1.3-.3.3-.4 0-.2-.1-.3-.3-.2-.1.1-.3.3-.3.4 0 .2.1.3.3.2m-.8.3c.1-.1.3-.3.3-.4 0-.2-.1-.3-.3-.2-.1.1-.3.3-.3.4.1.2.2.3.3.2m-3 1.2c.1-.1.3-.3.3-.4 0-.2-.1-.3-.3-.2-.1.1-.3.3-.3.4s.1.3.3.2m-.8.3c.1-.1.3-.3.3-.4 0-.2-.1-.3-.3-.2-.1.1-.3.3-.3.4.1.1.2.2.3.2m-.7.3c.1-.1.3-.3.3-.4 0-.2-.1-.3-.3-.2-.1.1-.3.3-.3.4s.1.2.3.2m6-3.3c.1-.1.3-.3.3-.4 0-.2-.1-.3-.3-.2-.1.1-.3.3-.3.4.1.2.2.3.3.2m-.7.3c.1-.1.3-.3.3-.4 0-.2-.1-.3-.3-.2-.1.1-.3.3-.3.4 0 .2.1.3.3.2m-.8.3c.1-.1.3-.3.3-.4 0-.2-.1-.3-.3-.2-.1.1-.3.3-.3.4.1.1.2.3.3.2m-.7.3c.1-.1.3-.3.3-.4 0-.2-.1-.3-.3-.2-.1.1-.3.3-.3.4s.1.2.3.2m-1.6.6c.1-.1.3-.3.3-.4 0-.2-.1-.3-.3-.2-.1.1-.3.3-.3.4.1.1.2.2.3.2m-.7.3c.1-.1.3-.3.3-.4 0-.2-.1-.3-.3-.2-.1.1-.3.3-.3.4s.1.2.3.2m-.8.3c.1-.1.3-.3.3-.4 0-.2-.1-.3-.3-.2-.1.1-.3.3-.3.4s.2.2.3.2m-.7.3c.1-.1.3-.3.3-.4 0-.2-.1-.3-.3-.2-.1.1-.3.3-.3.4s.1.2.3.2m-1.9-2.4 9.9-3.8.1 11.4-9.9 3.8z" fill="url(#aj)"/><path d="m26.5 21.3c.1-.1.3.1.3.2 0 .2-.1.4-.3.4-.1.1-.3-.1-.3-.2.1-.1.2-.3.3-.4" fill="url(#ak)"/><path d="m25.8 21.6c.1-.1.3.1.3.2 0 .2-.1.4-.3.4-.1.1-.3-.1-.3-.2s.1-.3.3-.4" fill="url(#al)"/><path d="m25 21.9c.1-.1.3.1.3.2 0 .2-.1.4-.3.4-.1.1-.3-.1-.3-.2.1-.1.2-.3.3-.4" fill="url(#am)"/><path d="m24.3 22.2c.1-.1.3.1.3.2 0 .2-.1.4-.3.4-.1.1-.3-.1-.3-.2s.1-.3.3-.4" fill="url(#an)"/><path d="m22.7 22.8c.1-.1.3.1.3.2 0 .2-.1.4-.3.4-.1.1-.3-.1-.3-.2.1-.2.2-.4.3-.4" fill="url(#ao)"/><path d="m22 23.1c.1-.1.3.1.3.2 0 .2-.1.4-.3.4-.1.1-.3-.1-.3-.2 0-.2.1-.4.3-.4" fill="url(#ap)"/><path d="m21.2 23.4c.1-.1.3.1.3.2 0 .2-.1.4-.3.4-.1.1-.3-.1-.3-.2 0-.2.2-.4.3-.4" fill="url(#aq)"/><path d="m20.4 23.7c.1-.1.3.1.3.2 0 .2-.1.4-.3.4-.1.1-.3-.1-.3-.2.1-.2.2-.4.3-.4" fill="url(#ar)"/><path d="m26.5 22.3c.1-.1.3.1.3.2 0 .2-.1.4-.3.4-.1.1-.3-.1-.3-.2.1-.2.2-.4.3-.4" fill="url(#as)"/><path d="m25.8 22.5c.1-.1.3.1.3.2 0 .2-.1.4-.3.4-.1.1-.3-.1-.3-.2s.1-.3.3-.4" fill="url(#at)"/><path d="m25 22.8c.1-.1.3.1.3.2 0 .2-.1.4-.3.4-.1.1-.3-.1-.3-.2.1-.1.2-.3.3-.4" fill="url(#au)"/><path d="m22 24c.1-.1.3.1.3.2 0 .2-.1.4-.3.4-.1.1-.3-.1-.3-.2s.1-.3.3-.4" fill="url(#av)"/><path d="m21.2 24.3c.1-.1.3.1.3.2 0 .2-.1.4-.3.4-.1.1-.2 0-.2-.2 0-.1.1-.3.2-.4" fill="url(#aw)"/><path d="m20.5 24.6c.1-.1.3.1.3.2 0 .2-.1.4-.3.4-.1.1-.3-.1-.3-.2 0-.2.1-.4.3-.4" fill="url(#ax)"/><path d="m26.6 23.2c.1-.1.3.1.3.2 0 .2-.1.4-.3.4-.1.1-.3-.1-.3-.2 0-.2.1-.4.3-.4" fill="url(#ay)"/><path d="m25.8 23.5c.1-.1.3.1.3.2 0 .2-.1.4-.3.4-.1.1-.3-.1-.3-.2 0-.2.1-.4.3-.4" fill="url(#az)"/><path d="m25 23.8c.1-.1.3.1.3.2 0 .2-.1.4-.3.4-.1.1-.3-.1-.3-.2.1-.2.2-.4.3-.4" fill="url(#aA)"/><path d="m24.3 24.1c.1-.1.3.1.3.2 0 .2-.1.4-.3.4-.1.1-.3-.1-.3-.2 0-.2.1-.4.3-.4" fill="url(#aB)"/><path d="m22.7 24.6c.1-.1.3.1.3.2 0 .2-.1.4-.3.4-.1.1-.3-.1-.3-.2.1-.1.2-.3.3-.4" fill="url(#aC)"/><path d="m22 24.9c.1-.1.3.1.3.2 0 .2-.1.4-.3.4-.1.1-.3-.1-.3-.2s.1-.3.3-.4" fill="url(#aD)"/><path d="m21.2 25.2c.1-.1.3.1.3.2 0 .2-.1.4-.3.4-.1.2-.2.1-.2-.1s.1-.4.2-.5" fill="url(#aE)"/><path d="m20.5 25.5c.1-.1.3.1.3.2 0 .2-.1.4-.3.4-.1.1-.3-.1-.3-.2s.1-.3.3-.4" fill="url(#aF)"/><path d="m26.6 24.1c.1-.1.3.1.3.2 0 .2-.1.4-.3.4-.1.1-.3-.1-.3-.2s.1-.3.3-.4" fill="url(#aG)"/><path d="m25 24.7c.1-.1.3.1.3.2 0 .2-.1.4-.3.4-.1.1-.3-.1-.3-.2.1-.1.2-.3.3-.4" fill="url(#aH)"/><path d="m24.3 25c.1-.1.3.1.3.2 0 .2-.1.4-.3.4-.1.1-.3-.1-.3-.2s.1-.3.3-.4" fill="url(#aI)"/><path d="m23.5 25.3c.1-.1.3.1.3.2 0 .2-.1.4-.3.4-.1.1-.3-.1-.3-.2 0-.2.2-.4.3-.4" fill="url(#aJ)"/><path d="m22 25.9c.1-.1.3.1.3.2 0 .2-.1.4-.3.4-.1.1-.3-.1-.3-.2 0-.2.1-.4.3-.4" fill="url(#aK)"/><path d="m20.5 26.5c.1-.1.3.1.3.2 0 .2-.1.4-.3.4-.1.1-.3-.1-.3-.2 0-.2.1-.4.3-.4" fill="url(#aL)"/><path d="m24.3 25.9c.1-.1.3.1.3.2 0 .2-.1.4-.3.4-.1.1-.3-.1-.3-.2s.1-.3.3-.4" fill="url(#aM)"/><path d="m23.5 26.2c.1-.1.3.1.3.2 0 .2-.1.4-.3.4-.1.1-.3-.1-.3-.2.1-.1.2-.3.3-.4" fill="url(#aN)"/><path d="m22.8 26.5c.1-.1.3.1.3.2 0 .2-.1.4-.3.4-.1.1-.3-.1-.3-.2s.1-.3.3-.4" fill="url(#aO)"/><path d="m25 26.6c.1-.1.3.1.3.2 0 .2-.1.4-.3.4-.1.1-.3-.1-.3-.2.1-.2.2-.4.3-.4" fill="url(#aP)"/><path d="m23.5 27.2c.1-.1.3.1.3.2 0 .2-.1.4-.3.4-.1.1-.3-.1-.3-.2.1-.2.2-.4.3-.4" fill="url(#aQ)"/><path d="m22.8 27.4c.1-.1.3.1.3.2 0 .2-.1.4-.3.4-.1.1-.3-.1-.3-.2s.1-.3.3-.4" fill="url(#aR)"/><path d="m22 27.7c.1-.1.3.1.3.2 0 .2-.1.4-.3.4-.1.1-.3-.1-.3-.2s.1-.3.3-.4" fill="url(#aS)"/><path d="m25.8 27.2c.1-.1.3.1.3.2 0 .2-.1.4-.3.4-.1.1-.3-.1-.3-.2s.2-.3.3-.4" fill="url(#aT)"/><path d="m25 27.5c.1-.1.3.1.3.2 0 .2-.1.4-.3.4-.1.1-.3-.1-.3-.2.1-.1.2-.3.3-.4" fill="url(#aU)"/><path d="m24.3 27.8c.1-.1.3.1.3.2 0 .2-.1.4-.3.4-.1.1-.3-.1-.3-.2s.1-.4.3-.4" fill="url(#aV)"/><path d="m22.8 28.4c.1-.1.3.1.3.2 0 .2-.1.4-.3.4-.1.1-.3-.1-.3-.2 0-.2.1-.4.3-.4" fill="url(#aW)"/><path d="m22 28.7c.1-.1.3.1.3.2 0 .2-.1.4-.3.4-.1.1-.3-.1-.3-.2 0-.2.2-.4.3-.4" fill="url(#aX)"/><path d="m21.2 29c.1-.1.3.1.3.2 0 .2-.1.4-.3.4-.1.1-.3-.1-.3-.2.1-.2.2-.4.3-.4" fill="url(#aY)"/><path d="m26.6 27.8c.1-.1.3.1.3.2 0 .2-.1.4-.3.4-.1.1-.3-.1-.3-.2s.1-.3.3-.4" fill="url(#aZ)"/><path d="m25 28.4c.1-.1.3.1.3.2 0 .2-.1.4-.3.4-.1.1-.3-.1-.3-.2.1-.1.2-.3.3-.4" fill="url(#a0)"/><path d="m22 29.6c.1-.1.3.1.3.2 0 .2-.1.4-.3.4-.1.1-.3-.1-.3-.2s.2-.3.3-.4" fill="url(#a1)"/><path d="m20.5 30.2c.1-.1.3.1.3.2 0 .2-.1.4-.3.4-.1.1-.3-.1-.3-.2 0-.2.1-.4.3-.4" fill="url(#a2)"/><path d="m25.8 29.1c.1-.1.3.1.3.2 0 .2-.1.4-.3.4-.1.1-.3-.1-.3-.2.1-.2.2-.4.3-.4" fill="url(#a3)"/><path d="m21.2 30.8c.1-.1.3.1.3.2 0 .2-.1.4-.3.4-.1.1-.3-.1-.3-.2.1-.1.2-.3.3-.4" fill="url(#a4)"/></g><path d="m17.5 9-15.5 6v3.1l15.5 6 15.5-6v-3.1z" fill="url(#a5)"/><path d="m33 15v3.1l-15.5 6v-3.2z" fill="url(#a6)"/><path d="m17.5 20.9v3.2l-15.5-6v-3.1z" fill="url(#a7)"/><path d="m17.5 9 15.5 6-15.5 5.9-15.5-5.9z" fill="url(#a8)"/><path d="m17.5 10.4-11 4.5 11 4.5 11-4.5z" fill="url(#a9)"/><path d="m17.5 10.4-11 4.5 11 4.5 11-4.5z" fill="url(#a9)"/><path d="m22.9 6.2v9l-5.4 2v-8.9z" fill="url(#ba)"/><path d="m17.5 8.3v8.9l-5.4-2v-9z" fill="url(#bb)"/><path d="m17.5 4.2 5.4 2-5.4 2.1-5.4-2.1z" fill="url(#bc)"/><path d="m22.9 8.6v4.2l-5.4 2.1v-4.3z" fill="url(#ba)"/><path d="m17.5 10.6v4.3l-5.4-2.1v-4.2z" fill="url(#bb)"/><path d="m17.5 6.5 5.4 2.1-5.4 2-5.4-2z" fill="url(#bd)"/><path d="m22.9 6.3v2.4l-5.4 2.1v-2.5z" fill="url(#be)"/><path d="m17.5 8.3v2.5l-5.4-2.1v-2.4z" fill="url(#bf)"/><path d="m17.5 4.2 5.4 2.1-5.4 2-5.4-2z" fill="url(#bg)"/><path d="m17.5 2.3 4.4 3.6-4.4 1.7-4.4-1.7z" fill="url(#bh)"/><path d="m16.5 1.3h2v8h-2z" fill="url(#bi)"/><path d="m16.8.2h1.5v.7h-1.5z" fill="url(#bj)"/><path d="m12.5 7.9-1.4-1.4 5.7-6.3 1.4 1.4z" fill="url(#bk)"/><path d="m22.5 7.9-5.7-6.3 1.4-1.4 5.7 6.3z" fill="url(#bl)"/></g></svg>