<svg width="40" height="40" viewBox="0 0 40 40" fill="none" xmlns="http://www.w3.org/2000/svg">
<path d="M19.3858 35.048C18.8441 34.5469 18.2372 34.1213 17.5816 33.7826C16.8974 34.074 16.1625 34.2274 15.4189 34.2342C13.6741 34.2342 12.1821 33.3051 11.3311 31.6812C10.6083 30.3136 9.78333 29.5964 9.34296 29.5964C9.30046 29.5963 9.25828 29.6038 9.21848 29.6187C8.77254 29.7915 8.50869 30.0312 8.30059 30.8543L7.94755 32.259L6.95906 31.1999C6.52492 30.7163 6.28012 30.092 6.26972 29.4422C6.20655 28.0747 6.7045 26.984 7.79333 26.1125C8.29552 25.7027 8.86009 25.3759 9.46559 25.1445V25.1445C9.07163 24.9818 8.6676 24.8446 8.256 24.7338C4.19054 23.6023 3.48633 21.2035 3.61082 19.3975C3.65804 18.5021 3.9957 17.6465 4.5727 16.9602C5.1497 16.2739 5.93459 15.7943 6.80855 15.594C7.14231 15.5208 7.48324 15.4853 7.82492 15.4881C8.40314 15.4845 8.97784 15.5781 9.52505 15.7649C9.5139 15.371 9.49533 14.9697 9.46374 14.5553L9.34668 13.0466L10.848 13.1413C11.0895 13.1562 11.3274 13.1636 11.5541 13.1636H11.8161C11.7567 12.7095 11.7498 12.25 11.7956 11.7942C11.9573 10.0328 13.4474 8.5612 14.8373 8.01864C15.6418 7.70463 15.8889 7.25312 16.0116 6.6734L16.3832 4.9231L17.4237 6.37982C17.4943 6.4783 18.1205 7.38504 18.0852 8.4237C18.0507 8.97049 17.9038 9.5043 17.6538 9.99182C17.4038 10.4793 17.056 10.9101 16.6322 11.2573C16.6578 11.3441 16.696 11.4267 16.7455 11.5025C17.6895 10.849 18.5715 10.1101 19.3803 9.29514L20.2944 8.39026L21.2105 9.29514C22.0198 10.1107 22.9024 10.8502 23.8471 11.5044C23.897 11.4279 23.9358 11.3447 23.9623 11.2573C23.3064 10.7259 22.5501 9.68347 22.5074 8.4237C22.4721 7.39247 23.0983 6.48573 23.1707 6.37982L24.2112 4.9231L24.5829 6.6734C24.7074 7.25312 24.9545 7.70463 25.759 8.01864C27.1488 8.5612 28.639 10.0328 28.7988 11.7942C28.8446 12.25 28.8378 12.7095 28.7784 13.1636H29.0348C29.2633 13.1636 29.5012 13.1636 29.7446 13.1413L31.2459 13.0466L31.1288 14.5553C31.0979 14.9691 31.0774 15.3723 31.0675 15.7649C31.6154 15.5781 32.1907 15.4845 32.7695 15.4881C33.1112 15.4851 33.4521 15.5207 33.7859 15.594C34.6602 15.7939 35.4455 16.2734 36.0229 16.9597C36.6002 17.646 36.9382 18.5018 36.9855 19.3975C37.1118 21.2072 36.4076 23.6023 32.3403 24.7338C31.9287 24.8446 31.5247 24.9818 31.1307 25.1445C31.7362 25.3759 32.3008 25.7027 32.803 26.1125C33.8918 26.984 34.3898 28.0747 34.3266 29.4422C34.3174 30.0923 34.0724 30.7169 33.6372 31.1999L32.6487 32.259L32.2957 30.8543C32.0876 30.0312 31.8238 29.7915 31.3778 29.6187C31.3386 29.604 31.2971 29.5964 31.2552 29.5964C30.813 29.5964 29.988 30.3136 29.2652 31.6812C28.4086 33.3033 26.9166 34.2342 25.1774 34.2342C24.4338 34.2272 23.6989 34.0738 23.0146 33.7826C22.3578 34.1202 21.7501 34.5459 21.2086 35.048L20.2982 35.9343L19.3858 35.048ZM31.0768 17.5821C31.101 18.225 31.14 18.8363 31.1809 19.4198C31.5207 19.4135 31.8442 19.2725 32.0802 19.0277C32.14 18.9594 32.1837 18.8785 32.2082 18.791C32.2326 18.7036 32.2371 18.6118 32.2214 18.5223C32.1266 18.0151 31.4949 17.6676 31.0768 17.584V17.5821ZM9.51204 17.5821C9.0884 17.6676 8.46967 18.0151 8.37305 18.5205C8.35707 18.6098 8.3613 18.7015 8.38542 18.789C8.40953 18.8764 8.45292 18.9574 8.5124 19.0259C8.62882 19.1471 8.76803 19.2441 8.92204 19.3114C9.07605 19.3786 9.24182 19.4149 9.40985 19.4179C9.45816 18.84 9.48975 18.2362 9.51204 17.5858V17.5821Z" fill="#060627"/>
<path d="M23.8117 6.8332C23.9827 7.63589 24.3952 8.32895 25.471 8.75073C26.5468 9.17251 27.8865 10.3635 28.0128 11.8611C28.0953 12.5406 28.0196 13.2299 27.7917 13.8753C28.2041 13.9262 28.6193 13.9516 29.0348 13.9515C29.28 13.9515 29.5346 13.9515 29.7947 13.9273L30.3893 13.8902L30.3429 14.494C30.2304 16.2895 30.2571 18.091 30.4228 19.8824C30.4228 19.9828 30.4376 20.0831 30.4432 20.1816C30.618 20.2062 30.7943 20.2186 30.9709 20.2187C32.4573 20.2187 33.1634 19.2488 32.9962 18.3755C32.8104 17.3703 31.6324 16.7757 30.904 16.7757H30.8798C31.218 16.445 32.0318 16.2759 32.7695 16.2759C33.0499 16.2735 33.3297 16.3021 33.6038 16.3614C34.3164 16.5196 34.9571 16.9079 35.4272 17.4663C35.8973 18.0247 36.1706 18.7222 36.2051 19.4514C36.376 21.904 34.6443 23.2753 32.1378 23.9739C31.5477 24.127 30.9744 24.3386 30.4265 24.6056C30.3719 24.9741 30.2981 25.3394 30.2054 25.7C30.9807 25.8663 31.704 26.219 32.3124 26.7276C33.2414 27.4708 33.5908 28.3218 33.5406 29.405C33.5388 29.8683 33.3691 30.3152 33.0631 30.663C32.8364 29.7618 32.4796 29.1988 31.6639 28.8829C31.5339 28.8338 31.396 28.8086 31.257 28.8086C30.2945 28.8086 29.2652 29.9959 28.5703 31.3133C27.827 32.731 26.5784 33.4463 25.1737 33.4463C24.4562 33.4361 23.7494 33.2707 23.102 32.9614L22.9812 32.9038C22.1326 33.3136 21.3489 33.8457 20.6549 34.4831L20.2944 34.8325L19.9358 34.4831C19.2418 33.8457 18.458 33.3136 17.6095 32.9038L17.4924 32.9614C16.8442 33.2705 16.1369 33.4359 15.4188 33.4463C14.016 33.4463 12.7711 32.731 12.0241 31.3133C11.3292 29.9959 10.2998 28.8086 9.33737 28.8086C9.19774 28.8086 9.05927 28.8337 8.9286 28.8829C8.11291 29.1988 7.75615 29.7618 7.53133 30.663C7.22455 30.3156 7.0548 29.8684 7.0538 29.405C7.00178 28.3218 7.35852 27.4671 8.28198 26.7276C8.88962 26.2188 9.61227 25.8661 10.3872 25.7C10.2935 25.3389 10.2197 24.973 10.1661 24.6038C9.61883 24.3385 9.0469 24.1276 8.4585 23.9739C5.95011 23.2753 4.21838 21.904 4.38932 19.4514C4.42437 18.7224 4.69794 18.0252 5.16794 17.4669C5.63793 16.9086 6.27833 16.5202 6.99062 16.3614C7.2647 16.3021 7.54451 16.2735 7.82491 16.2759C8.56813 16.2759 9.37639 16.445 9.71642 16.7757H9.6904C8.9639 16.7757 7.79146 17.3703 7.60007 18.3755C7.43099 19.2488 8.13149 20.2187 9.62538 20.2187C9.80007 20.2186 9.97454 20.2062 10.1475 20.1816L10.1698 19.888C10.3351 18.0966 10.3618 16.2951 10.2497 14.4996L10.2032 13.8957L10.7978 13.9329C11.0561 13.9496 11.3106 13.957 11.5541 13.957C11.9715 13.9575 12.3885 13.9314 12.8027 13.879C12.5757 13.2341 12.5 12.5456 12.5816 11.8667C12.7191 10.3691 14.0457 9.17623 15.1234 8.7563C16.2011 8.33638 16.6099 7.64146 16.7827 6.83877C16.7827 6.83877 17.3252 7.59872 17.2992 8.39026C17.2639 9.43821 16.5894 10.2874 16.0989 10.6683C15.6084 11.0492 15.8518 11.8258 16.5894 12.5263C17.8069 11.7687 18.9296 10.8686 19.9339 9.84513L20.2944 9.48838L20.6567 9.84513C21.6606 10.8691 22.7834 11.7692 24.0013 12.5263C24.7445 11.8221 24.9953 11.0529 24.4936 10.6683C23.992 10.2836 23.3286 9.43821 23.2933 8.39026C23.2655 7.59872 23.808 6.83877 23.808 6.83877L23.8117 6.8332ZM24.6088 3L22.5278 5.91345C22.3847 6.11227 21.6768 7.17137 21.7196 8.43486C21.7196 8.52033 21.7196 8.6058 21.7363 8.68941L21.4037 8.36053L20.2888 7.26799L19.174 8.36239L18.8451 8.68569C18.8451 8.60394 18.8581 8.52033 18.86 8.43486C18.9046 7.17137 18.1948 6.11227 18.0517 5.91345L15.9837 3L15.2405 6.5006C15.1587 6.87222 15.0398 7.08404 14.5493 7.27542C12.9848 7.88673 11.2047 9.53483 11.0189 11.7125C11.0003 11.9336 10.9892 12.1454 10.9873 12.3517H10.9056L10.311 12.3145L8.49939 12.2012L8.63874 14.0091L8.68519 14.6129L8.69634 14.7542C8.4105 14.7164 8.12252 14.6972 7.83419 14.6966C7.43113 14.6936 7.02905 14.7366 6.63574 14.8248C5.59344 15.0603 4.65666 15.63 3.96804 16.4471C3.27941 17.2641 2.87667 18.2839 2.82112 19.351C2.75284 20.1071 2.85048 20.8689 3.10723 21.5833C3.36398 22.2977 3.77364 22.9475 4.30758 23.4871C5.08611 24.2768 6.16564 24.8992 7.5146 25.3452C7.44213 25.399 7.37154 25.4529 7.30279 25.5087C6.69241 25.9692 6.20645 26.5746 5.88884 27.2702C5.57124 27.9657 5.432 28.7295 5.48373 29.4924C5.50156 30.3296 5.82165 31.1321 6.3849 31.7518L8.36003 33.87L9.06052 31.0569C9.16457 30.6425 9.24633 30.4994 9.35409 30.4326C9.60122 30.5868 10.1178 31.0922 10.6287 32.0602C11.6265 33.9499 13.3712 35.0331 15.4188 35.0331C16.1342 35.0297 16.8436 34.904 17.5166 34.6615C17.9935 34.9274 18.4364 35.2499 18.8358 35.6221L19.1944 35.9715L20.2944 37.0454L21.3962 35.9715L21.7549 35.6221C22.1542 35.2494 22.5972 34.9262 23.0741 34.6597C23.7475 34.9028 24.4577 35.0285 25.1737 35.0313C27.2176 35.0313 28.9679 33.948 29.9657 32.0584C30.4766 31.0903 30.9932 30.5849 31.2384 30.4307C31.3462 30.5032 31.4243 30.6407 31.532 31.055L32.2399 33.8644L34.2169 31.7462C34.7798 31.1257 35.0992 30.3225 35.1162 29.4849C35.1685 28.7224 35.0297 27.9589 34.7124 27.2636C34.3951 26.5683 33.9093 25.9632 33.299 25.5031L33.0854 25.3396C34.438 24.8974 35.5157 24.2749 36.2924 23.4815C36.8263 22.9419 37.236 22.2922 37.4927 21.5778C37.7495 20.8634 37.8471 20.1015 37.7789 19.3454C37.7219 18.2817 37.3198 17.2655 36.6335 16.4507C35.9471 15.636 35.014 15.0672 33.9754 14.8303C33.5821 14.742 33.18 14.699 32.7769 14.7021C32.488 14.7027 32.1994 14.722 31.9129 14.7597L31.9241 14.6185L31.9705 14.0146L32.1099 12.2049L30.2983 12.3201L29.7018 12.3572H29.6256C29.6256 12.151 29.6126 11.9392 29.5922 11.7181C29.3934 9.54041 27.6189 7.8923 26.0526 7.28099C25.562 7.09519 25.4431 6.88708 25.3632 6.50618L24.62 3.00372L24.6088 3Z" fill="#060627"/>
<path d="M32.1266 23.9739C34.6332 23.2753 36.3649 21.904 36.1939 19.4513C36.1595 18.7222 35.8862 18.0247 35.4161 17.4663C34.946 16.9079 34.3052 16.5196 33.5926 16.3614C32.7695 16.1756 31.3462 16.3075 30.8687 16.7757C31.5933 16.7627 32.7899 17.3592 32.985 18.3755C33.1709 19.3473 32.2846 20.4361 30.4321 20.1816C30.4321 20.0831 30.4191 19.9828 30.4116 19.8824C30.246 18.091 30.2193 16.2895 30.3317 14.494L30.3782 13.8901L29.7836 13.9273C29.5235 13.944 29.2689 13.9515 29.0236 13.9515C28.6081 13.9516 28.193 13.9262 27.7806 13.8753C28.0085 13.2299 28.0841 12.5406 28.0017 11.8611C27.8661 10.3635 26.5375 9.17064 25.4599 8.75072C24.3822 8.3308 23.9734 7.63588 23.8006 6.83319C23.8006 6.83319 23.258 7.59314 23.2859 8.38468C23.3212 9.43263 23.9957 10.2818 24.4862 10.6627C24.9768 11.0436 24.7315 11.8221 23.9938 12.5207C22.776 11.7636 21.6532 10.8635 20.6493 9.83955L20.287 9.4828L19.9265 9.83955C18.9222 10.863 17.7994 11.7631 16.582 12.5207C15.8388 11.8147 15.5898 11.0473 16.0915 10.6627C16.5932 10.2781 17.2565 9.43263 17.2918 8.38468C17.3178 7.59314 16.7752 6.83319 16.7752 6.83319C16.6043 7.63588 16.1937 8.32894 15.116 8.75072C14.0383 9.1725 12.7116 10.3635 12.5741 11.8611C12.495 12.5405 12.5732 13.2291 12.8027 13.8734C12.3886 13.9258 11.9715 13.9519 11.5541 13.9515C11.3107 13.9515 11.0561 13.9515 10.7978 13.9273L10.2032 13.8901L10.2497 14.494C10.3619 16.2895 10.3352 18.091 10.1698 19.8824L10.1475 20.176C8.28944 20.4287 7.41242 19.3399 7.60009 18.37C7.7859 17.3536 8.98993 16.7571 9.71643 16.7702C9.23891 16.3019 7.81562 16.1607 6.99064 16.3558C6.27834 16.5146 5.63795 16.903 5.16795 17.4613C4.69795 18.0196 4.42439 18.7168 4.38934 19.4458C4.2184 21.8984 5.95012 23.2697 8.45852 23.9683C9.04692 24.122 9.61884 24.333 10.1661 24.5982C10.2197 24.9674 10.2935 25.3334 10.3872 25.6945C9.61032 25.8597 8.88566 26.2124 8.27643 26.722C7.3474 27.4652 6.99622 28.3162 7.04825 29.3995C7.04924 29.8629 7.21899 30.31 7.52576 30.6574C7.75059 29.7562 8.10734 29.1932 8.92304 28.8773C9.99328 28.4648 11.2233 29.8064 12.0186 31.3077C13.1204 33.398 15.3018 33.961 17.4869 32.9558L17.6039 32.8982C18.4525 33.308 19.2363 33.8401 19.9302 34.4776L20.2888 34.8269L20.6493 34.4776C21.3433 33.8401 22.1271 33.308 22.9756 32.8982L23.0964 32.9558C25.2796 33.961 27.461 33.398 28.5647 31.3077C29.3581 29.8027 30.59 28.4648 31.6584 28.8773C32.4741 29.1932 32.8308 29.7562 33.0575 30.6574C33.3635 30.3096 33.5332 29.8627 33.535 29.3995C33.5852 28.3162 33.2284 27.4615 32.3068 26.722C31.6963 26.2123 30.9704 25.8596 30.1924 25.6945C30.2851 25.3338 30.3589 24.9685 30.4135 24.6001C30.9623 24.3348 31.5361 24.1251 32.1266 23.9739V23.9739Z" fill="#F54910"/>
<path d="M12.0799 15.7129C12.1484 17.2099 12.1142 18.7098 11.9777 20.202C11.8086 22.5135 11.6767 24.34 12.6484 26.4786C13.6741 28.7362 15.5396 29.6373 17.3438 30.518C18.3657 31.0123 19.4193 31.5233 20.2963 32.2721C21.1751 31.5288 22.2287 31.0123 23.2487 30.518C25.0548 29.641 26.9203 28.7362 27.9459 26.4786C28.9177 24.34 28.7839 22.5135 28.6167 20.202C28.4785 18.7099 28.4437 17.2099 28.5127 15.7129C28.416 15.7129 28.3268 15.7129 28.2247 15.7129C25.3558 15.7129 22.9663 14.639 20.2963 12.1287C17.6262 14.639 15.2386 15.7129 12.3679 15.7129C12.2731 15.7167 12.1765 15.7167 12.0799 15.7129Z" fill="white"/>
<path d="M18.7169 29.7767C19.2988 30.24 19.8262 30.768 20.2888 31.3505C20.7515 30.7685 21.2788 30.2412 21.8608 29.7785C21.3297 29.6621 20.805 29.5182 20.2888 29.3475C19.7728 29.5183 19.2481 29.6615 18.7169 29.7767V29.7767Z" fill="#060627"/>
<path d="M18.0796 28.2698C17.7051 28.0413 17.3429 27.7932 16.9945 27.5266C16.9917 27.5351 16.9869 27.5427 16.9804 27.5489C16.9739 27.5551 16.966 27.5595 16.9573 27.5619C16.6299 27.671 16.2879 27.7299 15.9428 27.7365C15.7555 27.7356 15.5687 27.7157 15.3854 27.6771C15.4538 27.8568 15.5683 28.0155 15.7173 28.1371C15.8663 28.2587 16.0447 28.3391 16.2345 28.3701C16.4485 28.4139 16.6665 28.4351 16.8849 28.4333C17.2884 28.4289 17.6898 28.374 18.0796 28.2698V28.2698Z" fill="#060627"/>
<path d="M16.8904 27.4559C16.5258 27.1712 16.1766 26.8673 15.8443 26.5455C15.2962 26.5356 14.7496 26.484 14.2092 26.3912C14.2449 26.5849 14.3313 26.7657 14.4596 26.9152C14.5878 27.0647 14.7534 27.1775 14.9394 27.2422C15.5643 27.4645 16.2323 27.5376 16.8904 27.4559V27.4559Z" fill="#060627"/>
<path d="M18.232 28.3682C17.7965 28.6069 17.3089 28.7346 16.8124 28.7398C16.6532 28.7397 16.4942 28.7279 16.3367 28.7045C16.673 29.3511 18.0201 29.5592 19.7221 29.1022C19.2078 28.895 18.7097 28.6497 18.232 28.3682V28.3682Z" fill="#060627"/>
<path d="M15.6752 22.6528C16.2685 22.613 16.8551 22.5052 17.4237 22.3314C17.4237 22.3314 15.7068 21.6755 13.6332 18.9478C13.0089 20.6795 12.7246 21.9858 13.1483 24.522C13.4948 24.1646 13.8211 23.7881 14.1256 23.3942C17.0799 29.1542 23.4773 30.1668 24.2409 28.6971C24.084 28.7251 23.9246 28.7369 23.7653 28.7324C23.2572 28.7016 22.7606 28.5689 22.3048 28.3422C22.2918 28.3354 22.2816 28.3242 22.2762 28.3106C22.2707 28.2969 22.2703 28.2818 22.2751 28.2679C22.2798 28.2538 22.2898 28.242 22.3029 28.2351C22.3161 28.2282 22.3314 28.2266 22.3457 28.2307C22.7837 28.3612 23.2377 28.43 23.6947 28.4351C23.9131 28.4368 24.131 28.4157 24.345 28.3719C24.5348 28.3409 24.7132 28.2606 24.8622 28.1389C25.0112 28.0173 25.1257 27.8587 25.1941 27.6789C25.0108 27.7175 24.8241 27.7374 24.6367 27.7383C24.2911 27.7315 23.9484 27.6726 23.6203 27.5637C23.6068 27.5587 23.5954 27.549 23.5883 27.5364C23.5811 27.5239 23.5787 27.5092 23.5813 27.4949C23.5822 27.4876 23.5846 27.4805 23.5883 27.4741C23.592 27.4677 23.5969 27.462 23.6028 27.4575C23.6087 27.453 23.6154 27.4498 23.6225 27.4479C23.6297 27.446 23.6372 27.4456 23.6445 27.4466C24.3157 27.5361 24.9986 27.4641 25.6364 27.2367C25.8224 27.172 25.988 27.0591 26.1163 26.9097C26.2445 26.7602 26.3309 26.5794 26.3666 26.3857C21.7753 27.1902 16.8272 24.5833 15.6752 22.6528Z" fill="#060627"/>
<path d="M19.1591 20.1407C19.4787 20.1407 19.6478 20.2689 19.6497 20.5885C19.6144 22.6454 19.0068 23.6153 18.1465 24.3306C18.611 24.732 19.5066 25.0534 20.287 25.2857C21.0674 25.0534 21.9593 24.7283 22.4275 24.3306C21.5672 23.6153 20.9596 22.6454 20.9243 20.5885C20.9243 20.2689 21.0952 20.1407 21.4167 20.1407C22.2918 20.1407 22.8084 19.862 22.8084 19.1596V18.7193L20.9206 18.9515V18.3662C21.4529 18.2137 21.9122 17.8739 22.2138 17.4095C22.5155 16.9452 22.6392 16.3874 22.5622 15.8391C22.4851 15.2907 22.2126 14.7886 21.7947 14.4253C21.3768 14.062 20.8417 13.8619 20.2879 13.8619C19.7342 13.8619 19.1991 14.062 18.7812 14.4253C18.3633 14.7886 18.0907 15.2907 18.0137 15.8391C17.9366 16.3874 18.0603 16.9452 18.362 17.4095C18.6636 17.8739 19.1229 18.2137 19.6552 18.3662V18.9515L17.7656 18.7193V19.1652C17.7675 19.862 18.284 20.1388 19.1591 20.1407ZM20.2888 15.2855C20.4619 15.2855 20.6311 15.3369 20.7751 15.433C20.919 15.5292 21.0311 15.6659 21.0974 15.8258C21.1636 15.9857 21.181 16.1617 21.1472 16.3314C21.1134 16.5012 21.0301 16.6571 20.9077 16.7795C20.7853 16.9019 20.6293 16.9853 20.4596 17.019C20.2898 17.0528 20.1139 17.0355 19.9539 16.9692C19.794 16.903 19.6574 16.7908 19.5612 16.6469C19.465 16.503 19.4137 16.3338 19.4137 16.1607C19.4137 15.9286 19.5059 15.706 19.67 15.5419C19.8341 15.3777 20.0567 15.2855 20.2888 15.2855V15.2855Z" fill="#060627"/>
<path d="M26.9426 18.9478C24.96 21.5807 23.1503 22.3239 23.1503 22.3239C23.7189 22.4976 24.3055 22.6055 24.8987 22.6454C24.3264 23.6023 22.8214 24.7264 20.889 25.518C22.0336 25.9076 23.2267 26.1365 24.4342 26.198C25.2431 25.3696 25.9221 24.4237 26.4484 23.3923C26.7534 23.7858 27.0797 24.1623 27.4257 24.5202C27.8939 22.6472 27.5669 20.6795 26.9426 18.9478Z" fill="#060627"/>
</svg>
