<svg width="40" height="40" viewBox="0 0 40 40" fill="none" xmlns="http://www.w3.org/2000/svg">
<path d="M31.7545 24.3159L36.4599 22.7625C36.7481 24.0683 36.6445 25.3605 36.2843 26.6483L33.7717 26.8059C33.6997 26.9996 33.6187 27.2562 33.5286 27.4633L36.0501 27.4318C35.7485 28.2783 35.3387 29.0888 34.8704 29.8318H32.2543C32.1057 30.0479 31.9571 30.2506 31.804 30.4397L34.3706 30.5657C33.0603 32.3533 31.4258 33.6051 30.192 33.7492C29.8498 33.7897 29.7373 33.7942 29.4536 33.6051L27.675 32.6911L28.463 31.0746L31.7455 24.3294L31.7545 24.3159Z" fill="#FDD400"/>
<path d="M7.87184 24.3159L3.16645 22.7625C2.87827 24.0683 2.98184 25.3605 3.34206 26.6483L5.8546 26.8059C5.92665 26.9996 6.0077 27.2562 6.09775 27.4633L3.5762 27.4318C3.87789 28.2783 4.28764 29.0888 4.75593 29.8318H7.37203C7.52063 30.0479 7.66922 30.2506 7.82231 30.4397L5.25573 30.5657C6.56604 32.3533 8.20054 33.6051 9.4343 33.7492C9.77651 33.7897 9.88908 33.7942 10.1728 33.6051L11.9513 32.6911L11.1634 31.0746L7.88085 24.3294L7.87184 24.3159Z" fill="#FDD400"/>
<path d="M21.97 12.0143H25.0634L29.1474 7.14685L33.0468 2.5H29.9534L21.97 12.0143Z" fill="#FF4B1F"/>
<path d="M29.9534 2.5H26.86L21.3621 9.05603L22.7535 10.7175L20.5156 11.7397L12.7663 2.5H9.67294L17.6563 12.0143H21.97L29.9534 2.5Z" fill="#5997C2"/>
<path d="M9.67294 2.5H6.57954L14.5629 12.0143H17.6563L9.67294 2.5Z" fill="#FF4B1F"/>
<path d="M20.5156 11.7397L22.7535 10.7175L21.3621 9.05603L26.86 2.5H23.7666L19.8132 7.2144L15.8597 2.5H12.7663L20.5156 11.7397Z" fill="#FF4B1F"/>
<path d="M19.8132 36.1807C12.5907 36.1807 6.71463 30.3046 6.71463 23.0821C6.71463 15.8597 12.5907 9.98358 19.8132 9.98358C27.0356 9.98358 32.9117 15.8597 32.9117 23.0821C32.9117 30.3046 27.0356 36.1807 19.8132 36.1807Z" fill="#E5A500"/>
<path d="M19.8132 11.3029C26.3062 11.3029 31.5924 16.5846 31.5924 23.0821C31.5924 29.5796 26.3107 34.8614 19.8132 34.8614C13.3157 34.8614 8.03394 29.5796 8.03394 23.0821C8.03394 16.5846 13.3157 11.3029 19.8132 11.3029ZM19.8132 8.65527C11.8478 8.65527 5.39082 15.1122 5.39082 23.0776C5.39082 31.043 11.8478 37.5 19.8132 37.5C27.7786 37.5 34.2355 31.043 34.2355 23.0776C34.2355 15.1122 27.7786 8.65527 19.8132 8.65527Z" fill="#FDD400"/>
<path d="M30.2866 20.5876C30.4757 20.448 30.4172 20.1463 30.1876 20.0923C29.9399 20.0338 29.5707 20.0248 29.0438 20.1643C27.7831 20.4885 27.2247 22.6319 26.4187 23.1182C25.6578 23.5729 23.6 22.4833 22.9201 22.06C22.5058 21.8033 21.3666 20.9568 20.8848 20.6011C20.7678 20.5111 20.7362 20.349 20.8218 20.2229C21.1595 19.7141 21.3936 19.1422 21.4927 18.8675C21.5287 18.7685 21.5062 18.6559 21.4342 18.5794C21.182 18.3137 20.5426 17.6833 19.8357 17.2961C19.1423 16.9133 18.1201 16.5261 17.2826 16.4406C15.6976 16.283 14.599 16.5801 14.0902 16.7693C13.9191 16.8323 13.856 17.0349 13.9551 17.1835C14.626 18.2011 15.0943 19.2413 15.3014 19.7366C15.3689 19.9032 15.2654 20.0878 15.0898 20.1193C14.4459 20.2364 13.6804 20.1688 12.9194 20.1643C11.8388 20.1643 11.5776 20.1778 10.7221 20.5291C10.1187 20.7767 9.84856 21.7583 9.88007 22.5823C9.89809 23.0326 10.3439 23.3253 10.7671 23.1857C10.7671 23.1857 10.7761 23.1857 10.7806 23.1857C11.348 23.0056 11.8298 23.1137 12.3656 23.3883C12.9735 23.699 13.9866 24.3564 14.3333 24.9193C14.68 25.4821 14.7025 25.4146 13.847 25.5767C12.9059 25.7523 12.0144 26.2926 11.5641 26.2341C11.2174 26.189 10.9562 26.0359 10.7806 25.8874C10.6275 25.7568 10.3889 25.8378 10.3349 26.0314C10.2133 26.4952 10.1908 26.968 10.8347 27.2382C11.6181 27.5669 12.145 27.675 13.0635 27.774C14.0001 27.8776 14.8556 27.9001 15.6391 27.8416C16.4001 27.783 16.8819 27.7335 17.3096 27.8416C18.0166 28.0127 18.7685 28.3639 19.4755 28.4809C20.5651 28.6611 21.074 28.3774 21.8709 27.9676C22.785 27.4993 23.5865 27.3012 23.9692 27.2292C24.1043 27.2022 24.2394 27.2787 24.2844 27.4093C24.424 27.7965 24.6762 28.4404 25.1445 28.553C25.6623 28.6791 26.6259 28.4449 27.2247 28.1117C27.3688 28.0307 27.4138 27.8461 27.3193 27.711C27.2472 27.6074 27.1257 27.4948 26.9095 27.4048C25.9234 26.9725 25.7343 26.5313 25.6443 26.2025C25.6217 26.126 25.6353 26.045 25.6803 25.9774C25.8379 25.7388 26.2431 25.1939 26.6709 25.2525C27.2157 25.3245 27.0987 25.8874 27.8596 26.3601C28.3504 26.6663 28.8142 26.6798 29.1069 26.5628C29.269 26.4997 29.3275 26.3061 29.2375 26.1575C29.0799 25.9009 28.8187 25.3875 28.6746 24.5951C28.499 23.6315 28.8953 22.3977 29.296 21.7403C29.6697 21.1279 30.03 20.7812 30.2866 20.5966V20.5876Z" fill="#FDD400"/>
<path d="M15.2609 24.2304C14.4684 24.0232 13.9326 23.3208 14.0361 22.5103C14.1667 21.4566 15.1033 20.6416 16.337 21.1685C17.6338 21.7223 17.3592 23.0506 17.0665 23.6045C16.7783 24.1583 15.9633 24.415 15.2609 24.2304Z" fill="white"/>
<path d="M15.6616 21.9339C15.3644 21.9159 15.1393 22.051 14.9907 22.3031C14.7746 22.6679 14.9277 23.2082 15.495 23.3928C15.9678 23.5459 16.4316 23.2037 16.4271 22.7129C16.4271 22.2446 16.0038 21.9609 15.6571 21.9384L15.6616 21.9339Z" fill="#E5A500"/>
<path d="M16.3596 27.1031C16.3596 27.1031 15.9318 28.4044 14.8736 28.7736C14.2613 28.9853 14.9142 30.0479 16.7918 29.7958C17.7464 29.6652 18.0211 28.598 17.7104 27.6389C17.3952 26.6799 16.8774 26.3602 16.3596 27.1076V27.1031Z" fill="#FDD400"/>
<path d="M15.8462 22.5013C15.7787 22.4247 15.6931 22.4022 15.5941 22.4292C15.4545 22.4653 15.3599 22.6319 15.4545 22.8165C15.531 22.9696 15.7247 22.9966 15.8462 22.8795C15.9678 22.7624 15.9273 22.5958 15.8462 22.5058V22.5013Z" fill="#040000"/>
<path d="M21.4162 21.2225C21.3711 21.1549 22.4248 20.3309 22.5824 19.8086C22.5824 19.8086 23.5054 20.5335 23.8386 21.7673C24.0233 22.4472 24.4916 23.0326 24.8248 23.1091C24.8248 23.1091 22.9246 23.3388 21.4117 21.2225H21.4162Z" fill="#FDD400"/>
</svg>
