<svg width="40" height="40" viewBox="0 0 40 40" fill="none" xmlns="http://www.w3.org/2000/svg">
<circle r="4.57143" transform="matrix(-1 0 0 1 27.4286 19.5714)" fill="white"/>
<path d="M28.6855 17.8078C28.9441 17.7922 29.2018 17.8508 29.4278 17.9764C29.6539 18.1021 29.8388 18.2897 29.9605 18.5168C30.0687 18.7146 30.1288 18.9348 30.1359 19.1598C30.143 19.3848 30.097 19.6083 30.0016 19.8125C29.9062 20.0167 29.764 20.196 29.5864 20.3359C29.4088 20.4758 29.2007 20.5725 28.9788 20.6183C28.7736 20.6881 28.5548 20.7088 28.3401 20.6788C28.1253 20.6487 27.9208 20.5688 27.7431 20.4454C27.5654 20.322 27.4195 20.1587 27.3174 19.9687C27.2153 19.7788 27.1598 19.5676 27.1555 19.3523C27.1649 18.95 27.3283 18.5663 27.6126 18.2794C27.8968 17.9924 28.2805 17.8238 28.6855 17.8078ZM28.3412 19.6182C28.3922 19.673 28.4559 19.7146 28.5268 19.7393C28.5977 19.7639 28.6736 19.771 28.7479 19.7597C28.8221 19.7485 28.8925 19.7193 28.9528 19.6748C29.013 19.6302 29.0614 19.5716 29.0935 19.5042C29.1365 19.4394 29.1636 19.3654 29.1724 19.2882C29.1812 19.211 29.1715 19.1328 29.1442 19.0601C29.1169 18.9873 29.0727 18.922 29.0151 18.8693C28.9576 18.8167 28.8883 18.7783 28.813 18.7573C28.7272 18.7326 28.6362 18.7326 28.5504 18.7572C28.4647 18.7819 28.3877 18.8302 28.3285 18.8966C28.2493 18.9938 28.2072 19.1156 28.2095 19.2407C28.2119 19.3657 28.2585 19.4859 28.3412 19.5802V19.6182Z" fill="#FF5033"/>
<path d="M0.379737 14.3012C1.1197 14.1685 1.88104 14.2163 2.59828 14.4404C5.05909 15.0608 6.15562 19.2005 7.69841 20.1246C9.2412 21.0488 13.1938 18.8587 14.5071 18.0611C15.3104 17.5547 17.5289 15.909 18.4597 15.2127C18.5728 15.1336 18.6497 15.0133 18.6735 14.878C18.6974 14.7428 18.6664 14.6036 18.5872 14.4911C18.0641 13.6681 17.6364 12.789 17.3122 11.8705C17.2746 11.7776 17.2642 11.676 17.2823 11.5774C17.3003 11.4789 17.346 11.3874 17.4142 11.3135C18.3263 10.3286 19.3736 9.47626 20.5252 8.78157C22.0653 7.92582 23.751 7.35934 25.4979 7.1105C27.5882 6.84588 29.7119 7.05802 31.7073 7.73081C31.7844 7.75767 31.8543 7.8017 31.9117 7.85952C31.969 7.91735 32.0122 7.98743 32.0381 8.06442C32.0639 8.1414 32.0717 8.22324 32.0608 8.30366C32.0498 8.38408 32.0205 8.46095 31.9751 8.52838C30.9761 10.0984 30.1225 11.7552 29.425 13.4783C29.3929 13.5526 29.3784 13.6333 29.3825 13.714C29.3865 13.7948 29.4091 13.8736 29.4484 13.9444C29.4878 14.0151 29.5429 14.0761 29.6095 14.1226C29.6761 14.169 29.7526 14.1998 29.833 14.2126C31.2391 14.3605 32.6555 14.3859 34.0661 14.2885C35.5264 14.1533 36.9973 14.393 38.3375 14.9848C39.5105 15.4532 40.0588 17.3522 39.995 18.9473C39.9936 19.151 39.9427 19.3513 39.8467 19.5314C39.7507 19.7114 39.6123 19.8657 39.4433 19.9813C39.2744 20.0968 39.0798 20.1702 38.8762 20.1952C38.6726 20.2201 38.4659 20.1959 38.2737 20.1246C37.7595 19.9737 37.2191 19.9317 36.6876 20.0015C36.156 20.0713 35.6451 20.2512 35.1881 20.5297C33.7138 21.2332 32.4092 22.2436 31.363 23.4921C30.7 24.5935 30.649 24.4542 32.3193 24.7581C33.9896 25.0619 35.9021 26.1253 36.7692 26.024C37.3335 25.9428 37.8637 25.7059 38.2992 25.3404C38.3688 25.2817 38.4523 25.2416 38.5419 25.2239C38.6315 25.2063 38.7241 25.2117 38.811 25.2396C38.8978 25.2675 38.9761 25.317 39.0383 25.3834C39.1005 25.4498 39.1445 25.5309 39.1662 25.6189C39.4085 26.5051 39.4595 27.4166 38.2099 27.9483C36.8335 28.5346 35.3685 28.8897 33.8748 28.999C32.2086 29.2035 30.5269 29.2544 28.8512 29.151C27.7736 28.9892 26.6775 28.9892 25.5999 29.151C24.2229 29.4928 22.7566 30.1637 21.3795 30.4169C19.7556 30.7036 18.0829 30.3542 16.7129 29.4421C15.4203 28.7861 14.0432 28.309 12.6201 28.0243C12.4937 27.9985 12.3622 28.0189 12.2497 28.0817C12.1373 28.1444 12.0515 28.2454 12.008 28.3661C11.7403 29.1256 11.2558 30.3663 10.3377 30.5942C8.93231 30.7272 7.51916 30.436 6.28314 29.7586C6.21763 29.7222 6.16034 29.6728 6.11485 29.6134C6.06937 29.5541 6.03664 29.4861 6.01871 29.4137C6.00077 29.3413 5.99803 29.266 6.01061 29.1925C6.0232 29.119 6.05084 29.0488 6.09186 28.9864C6.296 28.7174 6.56899 28.5076 6.88241 28.3787C8.80771 27.5432 9.16471 26.6823 9.34322 26.0493C9.36276 25.9764 9.36604 25.9001 9.35283 25.8257C9.33961 25.7514 9.31023 25.6808 9.26672 25.6189C8.96071 25.1632 8.17018 24.0998 7.34141 24.2137C6.28313 24.3656 6.49989 25.4797 5.0336 26.3785C4.68465 26.6239 4.2838 26.7868 3.86172 26.8548C3.43963 26.9228 3.00748 26.8942 2.59828 26.7709C2.52602 26.7419 2.461 26.6976 2.40777 26.6411C2.35455 26.5846 2.31439 26.5172 2.29011 26.4436C2.26582 26.3701 2.25801 26.2922 2.26719 26.2153C2.27637 26.1385 2.30232 26.0646 2.34326 25.9987C2.89301 25.0668 3.26071 24.0403 3.42704 22.9731C3.60846 21.0451 3.1615 19.1102 2.15201 17.4534C1.65425 16.6026 0.99629 15.8547 0.213974 15.2507C0.13478 15.1902 0.0737287 15.1093 0.0374374 15.0169C0.00114602 14.9245 -0.00900681 14.824 0.0080574 14.7262C0.0251216 14.6285 0.0687822 14.5372 0.134287 14.4623C0.199791 14.3874 0.28466 14.3317 0.379737 14.3012V14.3012ZM25.9569 21.0108C26.3391 21.5558 26.8867 21.9651 27.5198 22.1792C28.1528 22.3933 28.8383 22.4009 29.476 22.2008C30.2173 22.0315 30.87 21.5973 31.3097 20.981C31.7494 20.3646 31.9454 19.6092 31.8603 18.8587C31.8257 18.3508 31.6647 17.8593 31.3917 17.4284C31.1188 16.9975 30.7424 16.6406 30.2964 16.3897C29.8503 16.1387 29.3485 16.0016 28.8359 15.9906C28.3233 15.9796 27.816 16.0951 27.3594 16.3267C26.938 16.522 26.563 16.8038 26.2593 17.1536C25.9556 17.5033 25.73 17.913 25.5975 18.3557C25.4649 18.7983 25.4284 19.2638 25.4904 19.7215C25.5523 20.1792 25.7114 20.6186 25.9569 21.0108V21.0108Z" fill="#FF5033"/>
<path d="M27.3594 27.771C27.6013 28.4736 27.9834 29.1205 28.4829 29.673C28.9824 30.2255 29.589 30.6723 30.2665 30.9866C31.465 31.3917 30.2027 33.5185 26.5434 32.9742C24.6818 32.7336 24.1336 30.6701 24.7329 28.8091C25.3321 26.9482 26.3522 26.3278 27.3594 27.771Z" fill="#FF5033"/>
<path d="M17.5034 16.428C17.5927 16.3014 15.5271 14.7189 15.2211 13.7061C14.0496 14.7081 13.1987 16.0282 12.773 17.504C12.6649 18.0492 12.4375 18.5641 12.107 19.0125C11.7766 19.461 11.3511 19.8319 10.8605 20.0992C10.8605 20.0992 14.5453 20.5297 17.5034 16.428Z" fill="#FF5033"/>
</svg>
