<svg fill="none" height="65" viewBox="0 0 66 65" width="66" xmlns="http://www.w3.org/2000/svg"><path d="m52.6156 30.0556c-6.602-1.1904-11.5798-3.7129-14.7914-7.5011-.6164-.7293-1.1003-1.4315-1.4887-2.0824l10.7322-4.3789-13.2935-5.0932h-3.862l-.0709 7.8989c-.4192.9734-1.125 2.2753-2.2993 3.6586-3.2116 3.7883-8.1894 6.3107-14.7914 7.5011l-2.5675.4641 7.086 22.1115h30.825l7.0859-22.1115-2.5674-.4641z" fill="#292e35"/><path d="m32.6831 17.6211s-1.9325 11.4882-19.5134 14.6586l5.7976 18.0913h13.7158" fill="#ea4074"/><path d="m32.6831 50.371h13.7158l5.7976-18.0913c-17.5809-3.1704-19.5134-14.6586-19.5134-14.6586" fill="#ea4074"/><path d="m32.6831 17.6211s-1.0387 11.4882-10.4764 14.6586l3.113 18.0913h14.7268l3.113-18.0913c-9.4377-3.1704-10.4764-14.6586-10.4764-14.6586z" fill="#fff"/><path d="m35.3122 19.3992h-5.2551v1.0698h5.2551z" fill="#292e35"/><path d="m29.8968 36.2246s1.3099-.0813 2.4319-.5093c0 0-2.3887-1.0397-5.2768-5.3643-.8691 2.7454-1.2637 4.8189-.6719 8.8482.3884-.3858 1.3624-1.7872 1.3624-1.7872 1.128 6.4222 9.4006 8.0285 10.464 5.699-.2281.0361-.45.0723-.6627.0572-.7644-.0542-1.4794-.2983-2.0342-.6178-.037-.0211-.0555-.0723-.0401-.1205.0154-.0453.0586-.0724.0986-.0573.6565.217 1.2884.3255 1.8771.3255.3205 0 .6257-.0332.9031-.0995.4931-.1205.8692-.3496 1.1835-1.097-.265.0603-.5208.0904-.7798.0904-.5486 0-1.0202-.1386-1.4116-.2772-.0401-.0151-.0647-.0633-.0555-.1085.0093-.0482.0432-.0814.0894-.0753 1.0449.1265 2.0343.009 2.774-.3316.4746-.2169.8137-.5243 1.014-1.3501-6.3863 1.2658-10.1188-1.4978-11.2623-3.2216z" fill="#ea4074"/><path d="m35.4725 36.2246s-1.3099-.0813-2.4318-.5093c0 0 2.3887-1.0397 5.2767-5.3643.8691 2.7454 1.2637 4.8189.6719 8.8482-.3884-.3858-1.3623-1.7872-1.3623-1.7872-1.1281 6.4222-9.4007 8.0285-10.4641 5.699.2281.0361.45.0723.6627.0572.7644-.0542 1.4794-.2983 2.0342-.6178.037-.0211.0555-.0723.0401-.1205-.0154-.0453-.0586-.0724-.0986-.0573-.6565.217-1.2884.3255-1.8771.3255-.3205 0-.6257-.0332-.9031-.0995-.4931-.1205-.8691-.3496-1.1835-1.097.265.0603.5209.0904.7798.0904.5486 0 1.0202-.1386 1.4116-.2772.0401-.0151.0647-.0633.0555-.1085-.0093-.0482-.0432-.0814-.0894-.0753-1.0449.1265-2.0342.009-2.774-.3316-.4746-.2169-.8137-.5243-1.014-1.3501 6.3863 1.2658 10.1188-1.4978 11.2623-3.2216z" fill="#292e35"/><path d="m33.392 13.1096h-1.4178v6.2896h1.4178l8.5254-3.2428z" fill="#fff"/><path d="m33.392 19.3992 8.5253-3.2428-8.5253-3.0468z" fill="#ea4074"/><path d="m32.6831 44.6871c-1.2545.5425-2.5274.8167-3.6216.8378l.3699 4.8551v1.8745h6.5034v-1.8745l.3699-4.8551c-1.0942-.0211-2.3641-.2953-3.6216-.8378z" fill="#292e35"/></svg>