<svg width="40" height="40" viewBox="0 0 40 40" fill="none" xmlns="http://www.w3.org/2000/svg">
<path d="M19.0858 35.048C18.5443 34.5459 17.9366 34.1201 17.2798 33.7826C16.5965 34.0748 15.862 34.2283 15.1188 34.2341C13.3741 34.2341 11.8821 33.3051 11.0311 31.6811C10.3083 30.3136 9.48331 29.5964 9.04109 29.5964C8.99921 29.5964 8.95768 29.604 8.91847 29.6187C8.47253 29.7915 8.20868 30.0312 8.00058 30.8543L7.64754 32.259L6.65905 31.1999C6.22418 30.7167 5.97928 30.0922 5.96971 29.4422C5.90654 28.0746 6.40449 26.9839 7.49332 26.1125C7.99526 25.7023 8.55988 25.3754 9.16558 25.1444V25.1444C8.7732 24.9841 8.37105 24.8488 7.96156 24.7394C3.89424 23.6078 3.19189 21.2091 3.31638 19.403C3.36299 18.5075 3.70045 17.6515 4.27754 16.9651C4.85464 16.2787 5.63988 15.7993 6.51412 15.5995C6.84787 15.5262 7.18879 15.4907 7.53048 15.4936C8.10869 15.4902 8.68337 15.5838 9.23062 15.7705C9.21947 15.3766 9.19903 14.9752 9.16744 14.5609L9.05224 13.0521L10.5536 13.1469C10.7951 13.1618 11.0329 13.1692 11.2596 13.1692H11.5216C11.4622 12.715 11.4554 12.2555 11.5012 11.7998C11.661 10.0383 13.153 8.56675 14.541 8.0242C15.3455 7.71018 15.5926 7.25867 15.7171 6.67895L16.0888 4.92865L17.1293 6.38538C17.2017 6.48386 17.8279 7.39059 17.7926 8.42925C17.7499 9.68903 16.9936 10.7314 16.3396 11.2628C16.3644 11.3496 16.402 11.4323 16.4511 11.5081C17.3958 10.8555 18.2779 10.1165 19.0858 9.30069L20.0018 8.39581L20.9179 9.30069C21.7269 10.1167 22.6095 10.8562 23.5545 11.5099C23.604 11.4335 23.6422 11.3502 23.6678 11.2628C23.0138 10.7314 22.2576 9.68903 22.2148 8.42925C22.1795 7.39803 22.8057 6.49129 22.8763 6.38538L23.9168 4.92865L24.2884 6.67895C24.4129 7.25867 24.66 7.71018 25.4646 8.0242C26.8526 8.56675 28.3446 10.0383 28.5044 11.7998C28.5502 12.2555 28.5433 12.715 28.4839 13.1692H28.7385C28.967 13.1692 29.2067 13.1692 29.4501 13.1469L30.9515 13.0521L30.8344 14.5609C30.8034 14.9746 30.7824 15.3778 30.7712 15.7705C31.3197 15.5837 31.8957 15.4902 32.4751 15.4936C32.8168 15.4908 33.1577 15.5263 33.4914 15.5995C34.3654 15.7998 35.1503 16.2794 35.7273 16.9657C36.3043 17.652 36.642 18.5076 36.6892 19.403C36.8155 21.2128 36.1132 23.6078 32.044 24.7394C31.6324 24.8501 31.2284 24.9873 30.8344 25.15C31.4399 25.3814 32.0045 25.7082 32.5067 26.1181C33.5955 26.9895 34.0935 28.0802 34.0303 29.4477C34.0202 30.0977 33.7754 30.722 33.3409 31.2055L32.3524 32.2646L31.9994 30.8599C31.7913 30.0367 31.5275 29.7971 31.0815 29.6243C31.0417 29.6094 30.9995 29.6018 30.957 29.602C30.5167 29.602 29.6917 30.3192 28.9689 31.6867C28.1123 33.3088 26.6203 34.2397 24.8811 34.2397C24.1375 34.2331 23.4025 34.0797 22.7183 33.7882C22.0615 34.1257 21.4538 34.5514 20.9123 35.0535L20.0018 35.9398L19.0858 35.048ZM30.7768 17.5821C30.7991 18.225 30.84 18.8363 30.8808 19.4197C31.2207 19.4134 31.5442 19.2724 31.7801 19.0277C31.8401 18.9595 31.8838 18.8786 31.9079 18.791C31.9321 18.7035 31.936 18.6116 31.9195 18.5223C31.8229 18.015 31.1874 17.6676 30.7768 17.584V17.5821ZM9.21203 17.5821C8.78839 17.6676 8.16966 18.015 8.07304 18.5204C8.05651 18.6097 8.06048 18.7016 8.08461 18.7892C8.10875 18.8767 8.15244 18.9576 8.21239 19.0258C8.32881 19.147 8.46802 19.2441 8.62203 19.3113C8.77604 19.3786 8.94181 19.4148 9.10984 19.4179C9.15072 18.84 9.18974 18.2361 9.21203 17.5858V17.5821Z" fill="#060627"/>
<path d="M23.5118 6.8332C23.6827 7.63588 24.0933 8.32894 25.171 8.75073C26.2487 9.17251 27.5865 10.3635 27.7128 11.8611C27.7943 12.5406 27.7187 13.2297 27.4917 13.8753C27.9041 13.9262 28.3193 13.9516 28.7348 13.9515C28.9782 13.9515 29.2346 13.9515 29.4929 13.9273L30.0893 13.8901L30.0429 14.494C29.9285 16.2895 29.9553 18.0911 30.1228 19.8824C30.1228 19.9828 30.1358 20.0831 30.1432 20.1816C30.318 20.2062 30.4943 20.2187 30.6709 20.2187C32.1573 20.2187 32.8634 19.2488 32.6943 18.3755C32.5085 17.3703 31.3305 16.7757 30.604 16.7757H30.5798C30.918 16.445 31.73 16.2759 32.4695 16.2759C32.7499 16.2735 33.0297 16.3021 33.3038 16.3614C34.0162 16.5199 34.6568 16.9082 35.1268 17.4666C35.5969 18.0249 35.8703 18.7223 35.9051 19.4513C36.076 21.904 34.3443 23.2753 31.8359 23.9739C31.2463 24.1266 30.6737 24.3382 30.1265 24.6056C30.0719 24.974 29.9981 25.3393 29.9054 25.7C30.6829 25.8648 31.4083 26.2176 32.018 26.7276C32.947 27.4708 33.2982 28.3218 33.248 29.405C33.2454 29.8681 33.0758 30.3147 32.7705 30.6629C32.5438 29.7618 32.1871 29.1988 31.3714 28.8829C31.2407 28.8337 31.1022 28.8085 30.9626 28.8086C30.0001 28.8086 28.9726 29.9959 28.2758 31.3133C27.5326 32.731 26.2859 33.4463 24.8812 33.4463C24.1631 33.4359 23.4558 33.2705 22.8076 32.9614L22.6886 32.9038C21.8398 33.314 21.0554 33.8461 20.3605 34.4831L20.0019 34.8325L19.6433 34.4831C18.9493 33.8457 18.1655 33.3136 17.3169 32.9038L17.1999 32.9614C16.5517 33.2705 15.8443 33.4359 15.1263 33.4463C13.7216 33.4463 12.4785 32.731 11.7316 31.3133C11.0348 29.9959 10.0073 28.8086 9.04483 28.8086C8.90519 28.8084 8.76668 28.8336 8.63605 28.8829C7.82036 29.1988 7.4636 29.7618 7.23692 30.6629C6.93161 30.3147 6.76208 29.8681 6.7594 29.405C6.70923 28.3218 7.06598 27.4671 7.98758 26.7276C8.59727 26.2187 9.32174 25.866 10.0983 25.7C10.0056 25.3387 9.93179 24.9728 9.87724 24.6038C9.33066 24.3385 8.75935 24.1275 8.17153 23.9739C5.66314 23.2753 3.93141 21.904 4.10235 19.4513C4.13679 18.7222 4.41013 18.0247 4.88023 17.4663C5.35033 16.9079 5.99107 16.5196 6.70365 16.3614C6.97773 16.3021 7.25753 16.2735 7.53792 16.2759C8.28115 16.2759 9.08942 16.445 9.42759 16.7757H9.40343C8.67507 16.7757 7.50449 17.3703 7.3131 18.3755C7.14402 19.2488 7.84451 20.2187 9.33654 20.2187C9.51186 20.2187 9.68694 20.2062 9.86051 20.1816C9.86051 20.085 9.87538 19.9865 9.88096 19.888C10.048 18.0967 10.0753 16.2951 9.96271 14.4996L9.91626 13.8957L10.5108 13.9329C10.7691 13.9496 11.0237 13.957 11.2671 13.957C11.6845 13.9575 12.1016 13.9314 12.5157 13.879C12.2877 13.2343 12.212 12.5455 12.2946 11.8667C12.4302 10.3691 13.7587 9.17622 14.8364 8.7563C15.9141 8.33638 16.3229 7.64146 16.4957 6.83877C16.4957 6.83877 17.0382 7.59872 17.0104 8.39026C16.9751 9.43821 16.3006 10.2873 15.8119 10.6683C15.3232 11.0492 15.5648 11.8258 16.3024 12.5263C17.5196 11.7682 18.6423 10.8682 19.647 9.84513L20.0074 9.48838L20.3791 9.84513C21.3829 10.8691 22.5057 11.7693 23.7236 12.5263C24.4668 11.8221 24.7195 11.0529 24.216 10.6683C23.8652 10.394 23.5755 10.0495 23.3653 9.657C23.1551 9.26445 23.0291 8.83239 22.9952 8.3884C22.9692 7.59686 23.5118 6.83691 23.5118 6.83691V6.8332ZM24.3126 3L22.2315 5.91345C22.0885 6.11227 21.3806 7.17137 21.4233 8.43485C21.4233 8.52033 21.4233 8.6058 21.44 8.68941L21.1056 8.36053L19.9907 7.26799L18.8759 8.36239L18.5526 8.68941C18.5526 8.60766 18.5656 8.52404 18.5674 8.43857C18.6102 7.17508 17.9022 6.11598 17.7592 5.91717L15.6837 3L14.9405 6.50246C14.8587 6.87408 14.7398 7.0859 14.2493 7.27728C12.6829 7.88858 10.9047 9.53669 10.7096 11.7143C10.6892 11.9355 10.6799 12.1473 10.6781 12.3535H10.5963L10.0017 12.3164L8.19011 12.203L8.32946 14.0109L8.37591 14.6148C8.37591 14.6631 8.37591 14.7096 8.37591 14.756C8.0907 14.7182 7.80333 14.699 7.51563 14.6984C7.11256 14.6954 6.71048 14.7384 6.31718 14.8266C5.27847 15.0653 4.3459 15.6361 3.66087 16.4526C2.97584 17.2691 2.57571 18.2866 2.52113 19.351C2.45285 20.1071 2.5505 20.8689 2.80725 21.5833C3.064 22.2977 3.47365 22.9474 4.00759 23.4871C4.78612 24.2768 5.86566 24.8992 7.21462 25.3451L7.00095 25.5087C6.39138 25.9674 5.90534 26.5704 5.58653 27.2635C5.26772 27.9566 5.12612 28.718 5.17446 29.4794C5.19179 30.3163 5.5112 31.1188 6.07377 31.7388L8.05075 33.857L8.76054 31.0569C8.86459 30.6425 8.94635 30.4994 9.05411 30.4325C9.29938 30.5868 9.81778 31.0922 10.3287 32.0602C11.3247 33.9499 13.0713 35.0331 15.1189 35.0331C15.8342 35.0297 16.5436 34.904 17.2166 34.6615C17.6932 34.9269 18.1356 35.2495 18.534 35.6221L18.8926 35.9715L19.9944 37.0454L21.0963 35.9715L21.4549 35.6221C21.8542 35.2493 22.2972 34.9262 22.7741 34.6597C23.4475 34.9031 24.1577 35.0288 24.8737 35.0313C26.9176 35.0313 28.6679 33.948 29.6638 32.0584C30.1748 31.0903 30.6913 30.5849 30.9385 30.4307C31.0462 30.5032 31.1243 30.6406 31.232 31.055L31.94 33.8644L33.9151 31.7462C34.4783 31.1265 34.7984 30.324 34.8163 29.4868C34.868 28.7239 34.7287 27.9602 34.4111 27.2646C34.0935 26.5691 33.6076 25.9636 32.9972 25.5031C32.9285 25.4473 32.8578 25.3935 32.7854 25.3396C34.1381 24.8974 35.2139 24.2749 35.9924 23.4815C36.5263 22.9419 36.936 22.2922 37.1928 21.5778C37.4495 20.8634 37.5471 20.1015 37.4789 19.3454C37.4216 18.2818 37.0194 17.2657 36.3331 16.451C35.6469 15.6364 34.7139 15.0674 33.6754 14.8303C33.2821 14.7422 32.88 14.6992 32.4769 14.7021C32.188 14.7027 31.8994 14.7219 31.6129 14.7597C31.6129 14.7133 31.6129 14.6668 31.6129 14.6185L31.6594 14.0146L31.7988 12.2067L29.9871 12.3201L29.3925 12.3572H29.3145C29.3145 12.151 29.3015 11.9392 29.2829 11.7181C29.0841 9.54041 27.3078 7.8923 25.7526 7.28099C25.2621 7.09519 25.1431 6.88708 25.0614 6.50618L24.3126 3Z" fill="#060627"/>
<path d="M31.8285 23.9739C34.3369 23.2753 36.0686 21.904 35.8976 19.4513C35.8629 18.7223 35.5895 18.0249 35.1194 17.4666C34.6494 16.9082 34.0088 16.5199 33.2963 16.3614C32.4732 16.1756 31.0499 16.3075 30.5724 16.7757C31.2971 16.7627 32.4937 17.3592 32.6869 18.3755C32.8727 19.3473 31.9883 20.4361 30.1358 20.1816C30.1358 20.0831 30.1209 19.9828 30.1153 19.8824C29.9478 18.0911 29.9211 16.2895 30.0354 14.494L30.0819 13.8901L29.4854 13.9273C29.2272 13.944 28.9708 13.9515 28.7274 13.9515C28.3118 13.9516 27.8967 13.9261 27.4843 13.8753C27.7113 13.2297 27.7869 12.5406 27.7054 11.8611C27.5679 10.3635 26.2413 9.17064 25.1636 8.75072C24.0859 8.3308 23.6771 7.63588 23.5043 6.83319C23.5043 6.83319 22.9618 7.59314 22.9878 8.38468C23.0194 8.82676 23.1424 9.25748 23.349 9.64959C23.5556 10.0417 23.8413 10.3867 24.1881 10.6627C24.6916 11.0529 24.4352 11.8221 23.6957 12.5207C22.4778 11.7637 21.355 10.8636 20.3512 9.83955L19.9796 9.4828L19.6191 9.83955C18.6144 10.8626 17.4917 11.7626 16.2746 12.5207C15.5313 11.8147 15.2805 11.0473 15.784 10.6627C16.2876 10.2781 16.9472 9.43263 16.9825 8.38468C17.0104 7.59314 16.4678 6.83319 16.4678 6.83319C16.2969 7.63588 15.8862 8.32894 14.8086 8.75072C13.7309 9.1725 12.4024 10.3635 12.2667 11.8611C12.1842 12.54 12.2598 13.2287 12.4878 13.8734C12.0737 13.9258 11.6566 13.9519 11.2392 13.9515C10.9958 13.9515 10.7412 13.9515 10.483 13.9273L9.88839 13.8901L9.93484 14.494C10.0474 16.2895 10.0201 18.0911 9.85308 19.8824C9.85308 19.9809 9.84008 20.0794 9.83265 20.176C7.97458 20.4287 7.09756 19.3399 7.28523 18.3699C7.47103 17.3536 8.67507 16.7571 9.39971 16.7701C8.92219 16.3019 7.49891 16.1607 6.67579 16.3558C5.9632 16.514 5.32246 16.9023 4.85236 17.4607C4.38227 18.0191 4.10892 18.7166 4.07449 19.4458C3.90355 21.8984 5.63526 23.2697 8.14366 23.9683C8.73147 24.1219 9.30278 24.3329 9.84936 24.5982C9.90391 24.9672 9.97772 25.3331 10.0705 25.6945C9.29387 25.8604 8.56939 26.2131 7.95971 26.722C7.03067 27.4652 6.68136 28.3162 6.73153 29.3995C6.73421 29.8625 6.90375 30.3092 7.20905 30.6574C7.43574 29.7562 7.79248 29.1932 8.60817 28.8773C9.67842 28.4648 10.9085 29.8064 11.7037 31.3077C12.8056 33.398 14.9869 33.961 17.172 32.9558L17.2891 32.8982C18.1376 33.308 18.9214 33.8401 19.6154 34.4776L19.974 34.8269L20.3326 34.4776C21.0276 33.8405 21.8119 33.3084 22.6608 32.8982L22.7797 32.9558C24.9648 33.961 27.1461 33.398 28.248 31.3077C29.0432 29.8027 30.2733 28.4648 31.3435 28.8773C32.1592 29.1932 32.516 29.7562 32.7426 30.6574C33.048 30.3093 33.217 29.8625 33.2183 29.3995C33.2703 28.3162 32.9136 27.4615 31.9901 26.722C31.3804 26.212 30.6551 25.8592 29.8775 25.6945C29.9702 25.3338 30.0441 24.9685 30.0986 24.6001C30.6525 24.3333 31.2321 24.1235 31.8285 23.9739V23.9739Z" fill="#F02D7D"/>
<path d="M11.7799 15.7129C11.8484 17.2099 11.8143 18.7098 11.6777 20.202C11.5086 22.5135 11.3748 24.34 12.3466 26.4786C13.3723 28.7362 15.2396 29.6373 17.0438 30.518C18.0658 31.0123 19.1174 31.5233 19.9963 32.2721C20.8752 31.5288 21.9268 31.0123 22.9488 30.518C24.7529 29.641 26.6203 28.7362 27.6441 26.4786C28.6177 24.34 28.484 22.5135 28.3149 20.202C28.1783 18.7098 28.1442 17.2099 28.2127 15.7129C28.1161 15.7129 28.0269 15.7129 27.9247 15.7129C25.0558 15.7129 22.6663 14.639 19.9963 12.1287C17.3262 14.639 14.9368 15.7129 12.0679 15.7129C11.9731 15.7167 11.8765 15.7167 11.7799 15.7129Z" fill="white"/>
<path d="M22.5864 18.422C22.96 18.393 23.3281 18.3143 23.6808 18.1879C23.6808 18.1879 22.6069 17.7085 21.3062 15.7185C20.916 16.982 20.7377 17.9352 21.0034 19.7914C21.222 19.5279 21.4266 19.2531 21.6165 18.9683C22.1238 21.9263 25.3773 22.664 25.8548 21.5919C25.7571 21.6122 25.6573 21.6209 25.5575 21.6179C25.2347 21.5929 24.9217 21.4958 24.6415 21.3336C24.6331 21.3273 24.6269 21.3185 24.6236 21.3086C24.6202 21.2986 24.62 21.2879 24.6229 21.2779C24.624 21.2731 24.626 21.2687 24.6288 21.2648C24.6317 21.2609 24.6353 21.2576 24.6395 21.2552C24.6437 21.2527 24.6484 21.2512 24.6532 21.2506C24.658 21.25 24.6628 21.2504 24.6675 21.2518C24.9395 21.3464 25.225 21.3966 25.5129 21.4005C25.6499 21.4017 25.7866 21.3861 25.9198 21.354C26.046 21.3262 26.1622 21.2643 26.2559 21.1753C26.3495 21.0862 26.4171 20.9733 26.4512 20.8486C26.3368 20.8763 26.2196 20.8907 26.1019 20.8914C25.8838 20.886 25.6683 20.8432 25.4646 20.765C25.4555 20.7601 25.4483 20.7523 25.444 20.743C25.4396 20.7336 25.4384 20.7231 25.4404 20.713C25.4414 20.7035 25.446 20.6947 25.4532 20.6884C25.4605 20.6822 25.4699 20.679 25.4795 20.6796C25.9018 20.7437 26.3336 20.691 26.7281 20.5272C26.8513 20.4714 26.9581 20.3848 27.0381 20.2758C27.1182 20.1668 27.1688 20.039 27.1852 19.9047C24.3126 20.4919 23.1011 19.2191 22.5864 18.422Z" fill="#F02D7D"/>
<path d="M24.831 18.422C24.4574 18.393 24.0893 18.3143 23.7366 18.1879C23.7366 18.1879 24.8105 17.7085 26.1112 15.7185C26.5032 16.982 26.6816 17.9352 26.4141 19.7914C26.1951 19.5316 25.9899 19.2605 25.799 18.9794C25.2918 21.9375 22.0402 22.6751 21.5608 21.603C21.6591 21.6233 21.7595 21.6321 21.8599 21.629C22.1821 21.6041 22.4946 21.5069 22.7741 21.3447C22.7824 21.3384 22.7887 21.3297 22.792 21.3197C22.7953 21.3098 22.7956 21.2991 22.7927 21.289C22.7916 21.2843 22.7896 21.2798 22.7867 21.2759C22.7838 21.272 22.7802 21.2687 22.776 21.2663C22.7718 21.2639 22.7672 21.2623 22.7624 21.2617C22.7576 21.2612 22.7527 21.2616 22.7481 21.263C22.4761 21.3575 22.1906 21.4077 21.9027 21.4116C21.7656 21.4129 21.629 21.3973 21.4957 21.3652C21.3696 21.3373 21.2534 21.2755 21.1597 21.1864C21.0661 21.0974 20.9985 20.9844 20.9643 20.8598C21.0793 20.8876 21.1972 20.9019 21.3155 20.9025C21.533 20.8969 21.7479 20.8542 21.951 20.7762C21.96 20.7712 21.9673 20.7635 21.9716 20.7541C21.976 20.7448 21.9772 20.7343 21.9751 20.7241C21.9751 20.7037 21.9565 20.687 21.9361 20.6907C21.5138 20.7549 21.082 20.7022 20.6875 20.5383C20.5622 20.4827 20.4537 20.3953 20.3725 20.2848C20.2914 20.1743 20.2405 20.0446 20.2248 19.9085C23.1067 20.4919 24.3126 19.2191 24.831 18.422Z" fill="#060627"/>
<path d="M24.831 25.0479C24.4574 25.0189 24.0893 24.9401 23.7366 24.8137C23.7366 24.8137 24.8106 24.3344 26.1112 22.3444C26.5033 23.6078 26.6816 24.561 26.4141 26.4172C26.1955 26.1537 25.9908 25.879 25.8009 25.5941C25.2937 28.5522 22.042 29.2898 21.5627 28.2177C21.661 28.238 21.7614 28.2468 21.8618 28.2437C22.1843 28.2191 22.497 28.1212 22.776 27.9576C22.7844 27.9517 22.7907 27.9434 22.7941 27.9337C22.7974 27.924 22.7976 27.9135 22.7946 27.9037C22.7935 27.899 22.7915 27.8945 22.7886 27.8906C22.7857 27.8867 22.7821 27.8834 22.7779 27.881C22.7737 27.8786 22.7691 27.877 22.7643 27.8764C22.7595 27.8759 22.7546 27.8763 22.75 27.8777C22.4779 27.9722 22.1925 28.0224 21.9045 28.0263C21.7675 28.0276 21.6308 28.012 21.4976 27.9799C21.3716 27.9516 21.2556 27.8897 21.162 27.8007C21.0684 27.7117 21.0008 27.5989 20.9662 27.4745C21.0812 27.5023 21.1991 27.5166 21.3174 27.5172C21.5351 27.5121 21.7502 27.4687 21.9528 27.389C21.962 27.3846 21.9693 27.3773 21.9737 27.3682C21.9781 27.3591 21.9793 27.3487 21.977 27.3389C21.9768 27.334 21.9756 27.3292 21.9735 27.3248C21.9714 27.3203 21.9684 27.3164 21.9648 27.3131C21.9612 27.3098 21.957 27.3073 21.9524 27.3057C21.9478 27.304 21.9429 27.3033 21.938 27.3035C21.5157 27.3696 21.0834 27.3168 20.6894 27.1512C20.5663 27.0957 20.4596 27.0095 20.3795 26.9008C20.2995 26.7921 20.2487 26.6646 20.2323 26.5306C23.1067 27.114 24.3126 25.8412 24.831 25.0479Z" fill="#060627"/>
<path d="M15.1616 18.422C15.5352 18.393 15.9032 18.3143 16.256 18.1879C16.256 18.1879 15.182 17.7085 13.8814 15.7185C13.4893 16.982 13.3109 17.9352 13.5785 19.7914C13.7966 19.528 14.0007 19.2532 14.1898 18.9683C14.6971 21.9263 17.9506 22.664 18.4299 21.5919C18.3316 21.6121 18.2312 21.6208 18.1308 21.6179C17.8086 21.5929 17.4961 21.4957 17.2166 21.3336C17.208 21.3274 17.2016 21.3187 17.1983 21.3087C17.195 21.2987 17.1949 21.2879 17.198 21.2779C17.1991 21.2731 17.2011 21.2687 17.204 21.2648C17.2069 21.2609 17.2105 21.2576 17.2147 21.2552C17.2189 21.2527 17.2235 21.2512 17.2283 21.2506C17.2331 21.25 17.238 21.2504 17.2426 21.2518C17.5146 21.3464 17.8001 21.3966 18.088 21.4005C18.2245 21.4018 18.3605 21.3862 18.4931 21.354C18.6196 21.3265 18.7362 21.2648 18.8302 21.1757C18.9242 21.0866 18.992 20.9735 19.0264 20.8486C18.9114 20.8765 18.7935 20.8908 18.6752 20.8914C18.4577 20.8858 18.2428 20.8431 18.0397 20.765C18.0305 20.7603 18.0231 20.7526 18.0187 20.7432C18.0143 20.7338 18.0132 20.7231 18.0156 20.713C18.0156 20.6926 18.0342 20.6758 18.0546 20.6796C18.4769 20.7437 18.9087 20.691 19.3032 20.5272C19.4259 20.4717 19.5324 20.3857 19.6124 20.2774C19.6924 20.1691 19.7434 20.0421 19.7603 19.9085C16.8803 20.4919 15.6744 19.2191 15.1616 18.422Z" fill="#F02D7D"/>
<path d="M17.4062 18.422C17.0326 18.393 16.6645 18.3143 16.3118 18.1879C16.3118 18.1879 17.3857 17.7085 18.6864 15.7185C19.0766 16.982 19.2549 17.9352 18.9892 19.7914C18.7706 19.5279 18.566 19.2531 18.3761 18.9683C17.8688 21.9263 14.6153 22.664 14.1378 21.5919C14.2355 21.6122 14.3353 21.6209 14.4351 21.6179C14.7579 21.5929 15.0709 21.4958 15.3511 21.3336C15.3596 21.3274 15.3658 21.3186 15.3688 21.3085C15.3718 21.2985 15.3715 21.2877 15.3678 21.2779C15.367 21.2732 15.3652 21.2688 15.3625 21.2649C15.3598 21.261 15.3564 21.2577 15.3523 21.2552C15.3483 21.2528 15.3438 21.2512 15.3391 21.2506C15.3344 21.25 15.3296 21.2504 15.3251 21.2518C15.053 21.3461 14.7676 21.3962 14.4797 21.4005C14.3427 21.4017 14.206 21.3861 14.0728 21.354C13.8498 21.3001 13.6826 21.1942 13.5414 20.8486C13.6558 20.8763 13.773 20.8907 13.8907 20.8914C14.1082 20.8862 14.3232 20.8434 14.5261 20.765C14.5358 20.7606 14.5436 20.753 14.5483 20.7436C14.553 20.7341 14.5544 20.7233 14.5522 20.713C14.5512 20.7035 14.5466 20.6947 14.5394 20.6884C14.5321 20.6822 14.5227 20.679 14.5131 20.6796C14.0908 20.7437 13.659 20.691 13.2645 20.5272C13.1413 20.4714 13.0345 20.3848 12.9545 20.2758C12.8744 20.1668 12.8238 20.039 12.8074 19.9047C15.6819 20.4919 16.8915 19.2191 17.4062 18.422Z" fill="#060627"/>
<path d="M17.4062 25.0479C17.0326 25.0189 16.6645 24.9401 16.3118 24.8137C16.3118 24.8137 17.3857 24.3344 18.6864 22.3444C19.0766 23.6078 19.2549 24.561 18.9892 26.4172C18.7706 26.1537 18.566 25.879 18.3761 25.5941C17.8688 28.5522 14.6153 29.2898 14.1378 28.2177C14.2355 28.238 14.3353 28.2468 14.4351 28.2437C14.7582 28.219 15.0714 28.1212 15.3511 27.9576C15.3597 27.9519 15.366 27.9434 15.3691 27.9336C15.3721 27.9238 15.3717 27.9132 15.3678 27.9037C15.367 27.8991 15.3652 27.8946 15.3625 27.8907C15.3598 27.8868 15.3564 27.8835 15.3523 27.8811C15.3483 27.8786 15.3438 27.8771 15.3391 27.8765C15.3344 27.8759 15.3296 27.8763 15.3251 27.8777C15.053 27.9719 14.7676 28.0221 14.4797 28.0263C14.3427 28.0276 14.206 28.012 14.0728 27.9799C13.8498 27.926 13.6826 27.8182 13.5414 27.4745C13.6558 27.5022 13.773 27.5165 13.8907 27.5172C14.1084 27.5124 14.3236 27.469 14.5261 27.389C14.5356 27.3849 14.5434 27.3777 14.5481 27.3686C14.5529 27.3594 14.5543 27.3489 14.5522 27.3389C14.5512 27.3292 14.5467 27.3202 14.5395 27.3136C14.5323 27.3071 14.5229 27.3035 14.5131 27.3035C14.0909 27.3696 13.6585 27.3168 13.2645 27.1512C13.1414 27.0957 13.0347 27.0095 12.9547 26.9008C12.8746 26.7921 12.8239 26.6646 12.8074 26.5306C15.6819 27.114 16.8915 25.8412 17.4062 25.0479Z" fill="#060627"/>
<path d="M22.5864 25.0479C22.96 25.0189 23.3281 24.9401 23.6808 24.8137C23.6808 24.8137 22.6069 24.3344 21.3062 22.3444C20.916 23.6078 20.7377 24.561 21.0034 26.4172C21.222 26.1537 21.4266 25.879 21.6165 25.5941C22.1238 28.5522 25.3773 29.2898 25.8548 28.2177C25.7571 28.238 25.6573 28.2468 25.5575 28.2437C25.2344 28.219 24.9212 28.1212 24.6415 27.9576C24.6331 27.9517 24.6267 27.9434 24.6234 27.9337C24.62 27.924 24.6199 27.9135 24.6229 27.9037C24.624 27.899 24.626 27.8945 24.6288 27.8906C24.6317 27.8867 24.6353 27.8834 24.6395 27.881C24.6437 27.8786 24.6484 27.877 24.6532 27.8764C24.658 27.8759 24.6628 27.8763 24.6675 27.8777C24.9395 27.9722 25.225 28.0224 25.5129 28.0263C25.6499 28.0276 25.7866 28.012 25.9198 27.9799C26.0458 27.9516 26.1618 27.8897 26.2554 27.8007C26.349 27.7117 26.4167 27.5989 26.4512 27.4745C26.3368 27.5022 26.2196 27.5165 26.1019 27.5172C25.8836 27.5123 25.6678 27.4689 25.4646 27.389C25.4555 27.3846 25.4481 27.3773 25.4437 27.3682C25.4393 27.3591 25.4382 27.3487 25.4404 27.3389C25.4414 27.3292 25.4459 27.3202 25.4531 27.3136C25.4603 27.3071 25.4697 27.3035 25.4795 27.3035C25.9014 27.3707 26.3337 27.3193 26.7281 27.1549C26.8512 27.0994 26.9579 27.0132 27.0379 26.9045C27.118 26.7958 27.1687 26.6683 27.1852 26.5343C24.3126 27.114 23.1011 25.8412 22.5864 25.0479Z" fill="#F02D7D"/>
<path d="M15.1616 25.0479C15.5352 25.0189 15.9032 24.9401 16.256 24.8137C16.256 24.8137 15.182 24.3344 13.8814 22.3444C13.4893 23.6078 13.3109 24.561 13.5785 26.4172C13.7966 26.1538 14.0007 25.8791 14.1898 25.5941C14.6971 28.5522 17.9506 29.2898 18.4299 28.2177C18.3316 28.2379 18.2312 28.2466 18.1308 28.2437C17.8083 28.2191 17.4956 28.1212 17.2166 27.9576C17.208 27.9519 17.2014 27.9436 17.1981 27.9338C17.1947 27.9241 17.1947 27.9135 17.198 27.9037C17.1991 27.899 17.2011 27.8945 17.204 27.8906C17.2069 27.8867 17.2105 27.8834 17.2147 27.881C17.2189 27.8786 17.2235 27.877 17.2283 27.8764C17.2331 27.8759 17.238 27.8763 17.2426 27.8777C17.5146 27.9722 17.8001 28.0224 18.088 28.0263C18.2245 28.0277 18.3605 28.0121 18.4931 27.9799C18.6195 27.9519 18.7359 27.8901 18.8298 27.8011C18.9237 27.7121 18.9917 27.5992 19.0264 27.4745C18.9114 27.5023 18.7935 27.5166 18.6752 27.5172C18.4575 27.5121 18.2424 27.4687 18.0397 27.389C18.0304 27.3849 18.0228 27.3776 18.0184 27.3684C18.0139 27.3592 18.0129 27.3487 18.0156 27.3389C18.0158 27.334 18.017 27.3292 18.0191 27.3248C18.0212 27.3203 18.0241 27.3164 18.0278 27.3131C18.0314 27.3098 18.0356 27.3073 18.0402 27.3057C18.0448 27.304 18.0497 27.3033 18.0546 27.3035C18.4741 27.3693 18.9037 27.3179 19.2958 27.1549C19.4189 27.0994 19.5256 27.0132 19.6056 26.9045C19.6857 26.7958 19.7364 26.6683 19.7529 26.5343C16.8803 27.114 15.6744 25.8412 15.1616 25.0479Z" fill="#F02D7D"/>
</svg>
