<svg width="40" height="40" viewBox="0 0 40 40" fill="none" xmlns="http://www.w3.org/2000/svg">
<path d="M18.9067 36.521C15.8916 36.521 13.2511 35.3444 11.9044 34.3378C10.5577 33.3312 8.864 31.217 8.51239 28.5765C8.21593 26.3565 8.89157 24.1733 10.5209 22.0866C11.1089 21.2697 11.8428 20.5685 12.6857 20.0184C11.0104 18.6096 8.71002 16.4632 6.98645 14.0617L6.03503 12.7357L7.6437 12.5266C7.73333 12.5266 9.53735 12.2968 11.6562 12.1956C11.4448 9.93891 12.1319 6.56071 15.8709 4.71304C17.5035 3.89934 19.3025 3.47534 21.1266 3.47437C24.1417 3.47437 26.7845 4.65099 28.1289 5.65986C29.4733 6.66872 31.1693 8.77837 31.5209 11.4189C31.8174 13.6388 31.1417 15.822 29.5124 17.9087C28.9237 18.7251 28.1899 19.4261 27.3476 19.977C29.0206 21.3857 31.3233 23.5299 33.0446 25.9314L33.996 27.2574L32.3873 27.4665C32.2977 27.4665 30.496 27.7101 28.3748 27.7974C28.5863 30.0542 27.8991 33.4324 24.1601 35.28C22.5279 36.0948 20.7286 36.5188 18.9044 36.5187L18.9067 36.521ZM17.7576 26.5955C17.552 27.1666 17.552 27.7916 17.7576 28.3628C17.9779 28.9559 18.4102 29.4463 18.971 29.7393C19.4552 28.9542 19.7764 28.0796 19.9155 27.1677C19.3502 27.0345 18.5872 26.8506 17.7668 26.5955H17.7576ZM20.1361 12.8368C20.6946 12.9586 21.4576 13.1448 22.278 13.3976C22.4836 12.8264 22.4836 12.2014 22.278 11.6303C22.0594 11.0433 21.6324 10.5574 21.0784 10.2652C20.5983 11.0513 20.281 11.9258 20.1453 12.8368H20.1361Z" fill="#060627"/>
<path d="M21.1473 4.46028C24.0843 4.46028 26.4881 5.64379 27.5659 6.44813C29.193 7.66842 32.8515 12.0785 28.7655 17.3181C28.7655 17.3181 28.7977 17.2676 28.8482 17.1687C28.1037 18.3362 26.9523 19.1773 25.6746 19.8736C27.3545 21.1996 30.2271 23.6724 32.2655 26.5128C30.5874 26.7172 28.8999 26.8354 27.2097 26.8667C27.2097 26.8667 28.6759 31.9708 23.7212 34.4183C22.2236 35.171 20.5713 35.5644 18.8952 35.5673C15.9582 35.5673 13.5544 34.3838 12.4789 33.5772C10.8496 32.3592 7.19329 27.9468 11.2793 22.7072C11.2793 22.7072 11.2448 22.76 11.1943 22.8565C11.9412 21.6891 13.0902 20.848 14.3679 20.1517C12.688 18.8257 9.81542 16.3529 7.77701 13.5125C9.45524 13.3094 11.1427 13.1913 12.8328 13.1586C12.8328 13.1586 11.3666 8.0545 16.3213 5.60702C17.8202 4.85914 19.4723 4.46972 21.1473 4.46947V4.46028ZM22.7836 14.611C24.1624 12.4577 23.2202 9.84242 20.759 9.09554C19.8167 10.1963 19.1985 11.8004 19.0744 13.6366C20.3341 13.8643 21.5742 14.1893 22.7836 14.6087V14.611ZM19.2951 30.9366C20.2373 29.8359 20.8555 28.2295 20.9796 26.3933C19.7199 26.1656 18.4798 25.8406 17.2704 25.4212C15.8916 27.5745 16.8361 30.1921 19.2951 30.9366V30.9366ZM21.1473 2.51609C19.1732 2.51583 17.226 2.9745 15.4595 3.85588C12.1526 5.48752 11.0932 8.09357 10.7944 9.99179C10.7261 10.4206 10.6885 10.8537 10.6818 11.2879C8.95593 11.3936 7.61613 11.5637 7.5403 11.5752L4.29999 11.9934L6.20279 14.6477C7.65607 16.5973 9.31745 18.3827 11.1575 19.9724C10.6383 20.4213 10.1753 20.9313 9.77864 21.4915V21.4915C8.00911 23.7597 7.25074 26.2554 7.57247 28.7098C7.96545 31.6513 9.85217 33.9954 11.3482 35.1238C12.8834 36.2728 15.6824 37.5023 18.9319 37.5023C20.9061 37.5026 22.8533 37.0439 24.6197 36.1625C27.9267 34.5286 28.9861 31.9225 29.2849 30.0266C29.3531 29.5978 29.3907 29.1646 29.3975 28.7305C31.1234 28.6225 32.4632 28.4524 32.539 28.4432L35.7793 28.025L33.8512 25.3729C32.4038 23.4151 30.7453 21.6226 28.9057 20.0276C29.4261 19.5799 29.8892 19.0697 30.2845 18.5085V18.5085C32.0564 16.2403 32.8124 13.7446 32.4907 11.2902C32.0977 8.34865 30.211 6.0046 28.7173 4.87853C27.1798 3.72948 24.3808 2.5 21.1335 2.5L21.1473 2.51609ZM21.3174 12.1313C21.3335 12.0762 21.3518 12.0233 21.3702 11.9705V11.9865C21.391 12.043 21.4086 12.1005 21.4231 12.1589L21.3128 12.1313H21.3174ZM18.6861 28.0594V28.0433C18.6647 27.9871 18.647 27.9295 18.6332 27.871L18.7435 27.9009C18.7274 27.9537 18.7091 28.0066 18.693 28.0594H18.6861Z" fill="#060627"/>
<path d="M18.3919 24.1756C18.9044 23.7665 20.7268 22.2038 21.3312 21.9051C25.1552 20.0068 30.7143 18.7153 29.5768 12.3749C28.715 7.57875 24.0797 4.81873 18.431 8.92773C23.1858 8.27047 25.1184 13.0643 21.6621 15.822C21.1496 16.2311 19.3273 17.7938 18.7229 18.0948C14.9011 19.9931 9.33973 21.2846 10.4773 27.6227C11.3391 32.4189 15.9766 35.1789 21.6231 31.0699C16.8683 31.7225 14.9356 26.9333 18.3919 24.1756Z" fill="white"/>
<path d="M24.3049 18.7084C24.3049 18.7084 29.2205 22.1326 32.2655 26.3795C30.5873 26.5826 28.8999 26.7007 27.2097 26.7334C27.2097 26.7334 28.6759 31.8375 23.7212 34.2849C18.7665 36.7324 14.1083 34.6526 12.4812 33.4346C10.8542 32.2166 7.19561 27.8043 11.2816 22.5646C11.2816 22.5646 10.1992 24.2629 10.5922 27.2275C10.9231 29.6681 12.3985 31.7823 15.5446 32.2833C18.4333 32.7429 19.1848 29.5899 19.4376 25.8693C19.4376 25.8693 18.0196 25.7567 15.825 24.6835C15.841 24.6835 20.952 20.6595 24.3049 18.7084Z" fill="#A51EE1"/>
<path d="M15.7537 21.1628C15.7537 21.1628 10.8381 17.7386 7.79309 13.4918C9.47132 13.2887 11.1587 13.1706 12.8489 13.1379C12.8489 13.1379 11.3827 8.03379 16.3374 5.58632C21.2921 3.13885 25.9503 5.21863 27.5797 6.43662C29.209 7.65461 32.8653 12.0669 28.7793 17.3066C28.7793 17.3066 29.8617 15.6083 29.4687 12.6438C29.1378 10.2032 27.6624 8.08894 24.5186 7.58796C21.6276 7.12834 21.037 9.87227 20.7842 13.5952C20.7842 13.5952 22.0413 14.1146 24.2314 15.1878C24.213 15.1832 19.102 19.2094 15.7537 21.1628Z" fill="#A51EE1"/>
<path d="M25.5689 30.1989C24.19 30.1989 24.0705 29.629 23.427 29.629C22.7836 29.629 22.648 30.1989 21.2875 30.1989C19.8443 30.1989 18.6723 28.8431 18.6723 27.1723C18.6723 25.6004 19.6628 24.0148 21.7195 24.1848C22.756 24.2744 23.0295 24.7065 23.427 24.7065C23.8246 24.7065 24.0981 24.2744 25.1345 24.1848C27.2028 24.0079 28.1818 25.5936 28.1818 27.1723C28.1818 28.8431 27.0144 30.1989 25.5689 30.1989Z" fill="#060627"/>
<path d="M25.215 25.0236C24.847 25.0293 24.4887 25.1421 24.1838 25.3482C23.8789 25.5544 23.6407 25.8448 23.4983 26.1842C23.356 25.8452 23.1182 25.5549 22.8137 25.3489C22.5093 25.1428 22.1515 25.0298 21.7839 25.0236C20.7337 25.0236 19.8811 25.9429 19.8811 27.0643C19.8811 28.1858 20.7337 29.1027 21.7839 29.1027C22.1502 29.0976 22.5071 28.9862 22.8114 28.7823C23.1157 28.5783 23.3543 28.2905 23.4983 27.9537C23.6427 28.2907 23.8817 28.5786 24.1864 28.7825C24.4911 28.9865 24.8484 29.0977 25.215 29.1027C26.2652 29.1027 27.1155 28.1835 27.1155 27.0643C27.1155 25.9452 26.2652 25.0236 25.215 25.0236Z" fill="white"/>
<path d="M21.9287 27.4665C22.5506 27.4665 23.0547 26.9911 23.0547 26.4047C23.0547 25.8184 22.5506 25.343 21.9287 25.343C21.3068 25.343 20.8026 25.8184 20.8026 26.4047C20.8026 26.9911 21.3068 27.4665 21.9287 27.4665Z" fill="#A51EE1"/>
<path d="M21.9287 27.9008C21.5239 27.9082 21.1327 27.755 20.8407 27.4746C20.5487 27.1942 20.3796 26.8095 20.3706 26.4048C20.3796 26 20.5487 25.6154 20.8407 25.335C21.1327 25.0546 21.5239 24.9013 21.9287 24.9087C22.3335 24.9013 22.7247 25.0546 23.0167 25.335C23.3087 25.6154 23.4778 26 23.4868 26.4048C23.4778 26.8095 23.3087 27.1942 23.0167 27.4746C22.7247 27.755 22.3335 27.9082 21.9287 27.9008V27.9008ZM21.9287 25.7751C21.754 25.7682 21.5837 25.8305 21.4547 25.9483C21.3256 26.0662 21.2482 26.2302 21.2393 26.4048C21.2482 26.5793 21.3256 26.7433 21.4547 26.8612C21.5837 26.9791 21.754 27.0413 21.9287 27.0344C22.1033 27.0413 22.2737 26.9791 22.4027 26.8612C22.5318 26.7433 22.6092 26.5793 22.6181 26.4048C22.6098 26.2298 22.5326 26.0652 22.4035 25.9468C22.2744 25.8285 22.1037 25.7659 21.9287 25.7728V25.7751Z" fill="#060627"/>
<path d="M25.0679 27.4665C24.7777 27.4739 24.4963 27.3662 24.2853 27.1668C24.0743 26.9674 23.9508 26.6926 23.9418 26.4025C23.9508 26.1125 24.0744 25.838 24.2855 25.6389C24.4965 25.4399 24.7779 25.3327 25.0679 25.3408C25.3579 25.3327 25.6392 25.4399 25.8503 25.6389C26.0613 25.838 26.1849 26.1125 26.194 26.4025C26.1849 26.6926 26.0614 26.9674 25.8504 27.1668C25.6394 27.3662 25.3581 27.4739 25.0679 27.4665V27.4665Z" fill="#A51EE1"/>
<path d="M25.0679 27.9008C24.6631 27.9082 24.2719 27.755 23.9799 27.4746C23.6879 27.1942 23.5188 26.8095 23.5098 26.4048C23.5188 26 23.6879 25.6154 23.9799 25.335C24.2719 25.0546 24.6631 24.9013 25.0679 24.9087C25.4727 24.9013 25.8639 25.0546 26.1559 25.335C26.4479 25.6154 26.6169 26 26.626 26.4048C26.6169 26.8095 26.4479 27.1942 26.1559 27.4746C25.8639 27.755 25.4727 27.9082 25.0679 27.9008V27.9008ZM25.0679 25.7751C24.8932 25.7682 24.7229 25.8305 24.5938 25.9483C24.4648 26.0662 24.3874 26.2302 24.3785 26.4048C24.3874 26.5793 24.4648 26.7433 24.5938 26.8612C24.7229 26.9791 24.8932 27.0413 25.0679 27.0344C25.2425 27.0413 25.4129 26.9791 25.5419 26.8612C25.671 26.7433 25.7484 26.5793 25.7573 26.4048C25.749 26.2298 25.6718 26.0652 25.5427 25.9468C25.4136 25.8285 25.2429 25.7659 25.0679 25.7728V25.7751Z" fill="#060627"/>
<path d="M13.9474 9.79645C15.3263 9.79645 15.4458 10.3641 16.0892 10.3641C16.7327 10.3641 16.8591 9.79645 18.2288 9.79645C19.672 9.79645 20.844 11.15 20.844 12.8207C20.844 14.3949 19.8535 15.9783 17.7967 15.8083C16.7603 15.7186 16.4868 15.2866 16.0892 15.2866C15.6916 15.2866 15.4182 15.7186 14.3817 15.8083C12.3135 15.9852 11.3345 14.4018 11.3345 12.8207C11.3345 11.15 12.5042 9.79645 13.9474 9.79645Z" fill="#060627"/>
<path d="M14.3013 14.9694C14.6679 14.9644 15.0252 14.8532 15.3299 14.6492C15.6346 14.4453 15.8736 14.1574 16.018 13.8204C16.162 14.1572 16.4006 14.445 16.7049 14.649C17.0092 14.8529 17.3661 14.9643 17.7324 14.9694C18.7826 14.9694 19.6352 14.0502 19.6352 12.931C19.6352 11.8119 18.7826 10.8903 17.7324 10.8903C17.3661 10.8955 17.0092 11.0068 16.7049 11.2108C16.4006 11.4147 16.162 11.7025 16.018 12.0394C15.8736 11.7024 15.6346 11.4144 15.3299 11.2105C15.0252 11.0066 14.6679 10.8954 14.3013 10.8903C13.2511 10.8903 12.4008 11.8096 12.4008 12.931C12.4008 14.0525 13.2511 14.9694 14.3013 14.9694Z" fill="white"/>
<path d="M17.5876 14.6546C18.2095 14.6546 18.7137 14.1793 18.7137 13.5929C18.7137 13.0065 18.2095 12.5312 17.5876 12.5312C16.9657 12.5312 16.4615 13.0065 16.4615 13.5929C16.4615 14.1793 16.9657 14.6546 17.5876 14.6546Z" fill="#A51EE1"/>
<path d="M17.5922 15.0867C17.1874 15.0941 16.7962 14.9408 16.5042 14.6604C16.2121 14.38 16.0431 13.9954 16.0341 13.5906C16.0431 13.1859 16.2121 12.8012 16.5042 12.5208C16.7962 12.2404 17.1874 12.0872 17.5922 12.0946C17.9969 12.0872 18.3882 12.2404 18.6802 12.5208C18.9722 12.8012 19.1412 13.1859 19.1503 13.5906C19.1412 13.9954 18.9722 14.38 18.6802 14.6604C18.3882 14.9408 17.9969 15.0941 17.5922 15.0867V15.0867ZM17.5922 12.9609C17.4175 12.9541 17.2472 13.0163 17.1181 13.1342C16.9891 13.2521 16.9117 13.4161 16.9027 13.5906C16.9117 13.7652 16.9891 13.9292 17.1181 14.0471C17.2472 14.1649 17.4175 14.2272 17.5922 14.2203C17.7668 14.2272 17.9372 14.1649 18.0662 14.0471C18.1953 13.9292 18.2727 13.7652 18.2816 13.5906C18.2721 13.4165 18.1945 13.253 18.0655 13.1357C17.9365 13.0183 17.7665 12.9563 17.5922 12.9632V12.9609Z" fill="#060627"/>
<path d="M14.4484 12.5289C14.7384 12.5208 15.0197 12.6281 15.2308 12.8271C15.4419 13.0261 15.5654 13.3006 15.5744 13.5906C15.566 13.881 15.4427 14.1561 15.2316 14.3556C15.0204 14.5551 14.7387 14.6626 14.4484 14.6546C14.158 14.6626 13.8763 14.5551 13.6652 14.3556C13.4541 14.1561 13.3307 13.881 13.3223 13.5906C13.3313 13.3006 13.4549 13.0261 13.666 12.8271C13.877 12.6281 14.1584 12.5208 14.4484 12.5289Z" fill="#A51EE1"/>
<path d="M14.4484 15.0867C14.0436 15.0941 13.6524 14.9408 13.3604 14.6604C13.0684 14.38 12.8993 13.9954 12.8903 13.5906C12.8993 13.1859 13.0684 12.8012 13.3604 12.5208C13.6524 12.2404 14.0436 12.0872 14.4484 12.0946C14.8531 12.0872 15.2444 12.2404 15.5364 12.5208C15.8284 12.8012 15.9974 13.1859 16.0065 13.5906C15.9974 13.9954 15.8284 14.38 15.5364 14.6604C15.2444 14.9408 14.8531 15.0941 14.4484 15.0867V15.0867ZM14.4484 12.9609C14.2737 12.9541 14.1034 13.0163 13.9743 13.1342C13.8453 13.2521 13.7679 13.4161 13.7589 13.5906C13.7679 13.7652 13.8453 13.9292 13.9743 14.0471C14.1034 14.1649 14.2737 14.2272 14.4484 14.2203C14.623 14.2272 14.7934 14.1649 14.9224 14.0471C15.0515 13.9292 15.1289 13.7652 15.1378 13.5906C15.1283 13.4165 15.0507 13.253 14.9217 13.1357C14.7927 13.0183 14.6227 12.9563 14.4484 12.9632V12.9609Z" fill="#060627"/>
</svg>
