<svg width="40" height="40" viewBox="0 0 40 40" fill="none" xmlns="http://www.w3.org/2000/svg">
<path d="M9.30809 29.9159V29.9137L7.28242 27.888L13.4704 21.7L10.0152 18.2448L7.81114 20.4489L3.80548 5.50549L18.7489 9.50897L16.5448 11.7152L20.0022 15.1682L23.4574 11.7152L21.2554 9.50897L36.1945 5.50549L32.1932 20.4489L29.9869 18.2448L26.5318 21.7L32.7219 27.888L30.6963 29.9137L28.2158 32.3941L26.1902 34.4198L20.0022 28.2318L13.812 34.4198L9.30809 29.9159Z" fill="#060627"/>
<path d="M34.889 6.81315L31.7124 18.6626L29.9869 16.9372L25.2241 21.7087L31.4143 27.8967L30.2415 29.0716L25.4961 24.3197L24.6432 25.1726L29.3929 29.9159L28.2202 31.0886L23.4704 26.3432L22.6175 27.1983L27.3629 31.935L26.188 33.1078L20 26.9307L13.812 33.1208L12.6392 31.935L17.3847 27.1917L16.5296 26.3367L11.7863 31.0821L10.6136 29.9093L15.359 25.1639L14.5039 24.3197L9.76066 29.0651L8.5879 27.8902L14.7759 21.7087L10.0152 16.9481L8.28764 18.6626L5.11097 6.81098L16.9647 9.98548L15.2502 11.7152L20 16.4868L24.7607 11.7261L23.0374 9.99853L34.889 6.82403V6.81315ZM37.5 4.21307L34.4104 5.04205L22.5587 8.21655L20 8.90193L17.4434 8.21655L5.58963 5.02899L2.5 4.20001L3.3268 7.29183L6.50347 19.1434L7.33246 22.2331L9.59312 19.9681L10.013 19.5503L12.1606 21.6978L7.28024 26.5825L5.97475 27.888L7.28024 29.1935L8.00043 29.9137L9.30591 31.2192L10.4787 32.3919L11.7842 33.6974L12.5022 34.4154L13.8077 35.7209L15.1131 34.4154L20 29.5416L24.8825 34.4241L26.188 35.7296L27.4935 34.4241L28.2115 33.7061L29.517 32.4006L30.6919 31.2279L31.9974 29.9224L32.7154 29.2044L34.0209 27.8989L32.7154 26.5934L27.8372 21.7087L29.9869 19.5612L30.4069 19.9811L32.6697 22.2418L33.4965 19.1521L36.6732 7.30053L37.5 4.20872V4.21307ZM17.8612 11.7152L18.2811 11.2931L20.0218 9.56337L21.7493 11.2931L22.1693 11.7131L20.0196 13.8628L17.8612 11.7152Z" fill="#060627"/>
<path d="M34.889 6.81317L31.7145 18.6648L29.9869 16.9394L13.812 33.1121L12.6392 31.9394L17.3847 27.1961L16.5318 26.3432L11.7863 31.0886L10.6136 29.9159L15.359 25.1704L14.5061 24.3175L9.76065 29.0608L8.58789 27.888L24.7628 11.7153L23.0374 9.98767L34.889 6.81317Z" fill="#CFF622"/>
<path d="M5.11316 6.81317L16.9648 9.98767L15.2394 11.7153L31.4143 27.888L30.2415 29.0608L25.4983 24.3175L24.6454 25.1704L29.3908 29.9137L28.2159 31.0886L23.4726 26.3432L22.6175 27.1961L27.3629 31.9394L26.1902 33.1121L10.0152 16.9394L8.28983 18.6648L5.11316 6.81317Z" fill="white"/>
<path d="M28.4008 19.8592C26.0705 18.4145 22.3738 23.1861 20 23.1861C17.6262 23.1861 13.9295 18.4145 11.5971 19.8592C9.26459 21.304 11.5187 27.0176 15.7985 27.6921C20.0783 28.3666 18.4726 24.7592 20 24.7592C21.5274 24.7592 19.9195 28.3775 24.2015 27.6921C28.4835 27.0068 30.7354 21.3083 28.4008 19.8592ZM18.4574 25.3771C17.4195 26.5629 16.0031 26.7348 14.4713 25.9537C14.1207 25.7853 13.807 25.549 13.5484 25.2585C13.2899 24.968 13.0916 24.629 12.9651 24.2612C12.8386 23.8934 12.7864 23.5041 12.8115 23.116C12.8366 22.7279 12.9385 22.3486 13.1114 22.0002C13.5466 21.156 14.232 21.1125 15.0479 21.3845C14.9203 21.4043 14.7998 21.4562 14.6978 21.5354C14.5958 21.6146 14.5156 21.7184 14.4648 21.8371C14.0296 22.7074 14.4234 23.854 15.4678 24.3849C16.5122 24.9158 17.4608 24.8397 18.1288 24.1086C18.2423 24.0055 18.3232 23.8716 18.3619 23.7232C18.4005 23.5748 18.3951 23.4184 18.3464 23.2731C18.9317 23.8997 19.1188 24.6221 18.4574 25.3771ZM25.4635 25.9537C23.9404 26.7348 22.5152 26.5629 21.4752 25.3771C20.8377 24.6504 20.9878 23.9541 21.5253 23.3471C21.4943 23.4835 21.4997 23.6256 21.541 23.7592C21.5822 23.8929 21.6578 24.0134 21.7602 24.1086C22.4304 24.8397 23.3769 24.9158 24.4213 24.3849C25.4656 23.854 25.8703 22.7139 25.4243 21.8371C25.376 21.7228 25.3003 21.6221 25.2039 21.544C25.1075 21.4658 24.9934 21.4125 24.8716 21.3888C25.6919 21.1125 26.3947 21.1495 26.8299 22.0002C27.0022 22.3491 27.1036 22.7287 27.1281 23.117C27.1526 23.5054 27.0998 23.8947 26.9727 24.2624C26.8456 24.6302 26.6467 24.9691 26.3876 25.2594C26.1286 25.5497 25.8144 25.7857 25.4635 25.9537V25.9537ZM23.1397 22.1438C23.4182 22.0002 23.6967 21.8588 23.9643 21.7261C24.0271 21.7501 24.0843 21.7865 24.1326 21.8333C24.1808 21.88 24.2191 21.9361 24.245 21.9981C24.3722 22.2284 24.4074 22.4983 24.3435 22.7535C24.2796 23.0087 24.1214 23.2303 23.9007 23.3735C23.68 23.5167 23.4132 23.5709 23.1541 23.5252C22.895 23.4795 22.6628 23.3373 22.5044 23.1273C22.4352 23.0576 22.387 22.9699 22.365 22.8741C22.3431 22.7784 22.3484 22.6784 22.3803 22.5855C22.6242 22.4229 22.8778 22.2754 23.1397 22.1438V22.1438ZM16.7494 22.1438C17.012 22.2742 17.267 22.4195 17.5131 22.579C17.5437 22.6724 17.5479 22.7724 17.5252 22.868C17.5026 22.9636 17.4539 23.0511 17.3847 23.1208C17.2262 23.3308 16.9941 23.473 16.735 23.5187C16.4759 23.5643 16.2091 23.5101 15.9884 23.3669C15.7677 23.2237 15.6094 23.0022 15.5455 22.747C15.4816 22.4918 15.5168 22.2218 15.644 21.9915C15.6706 21.9299 15.7091 21.8742 15.7572 21.8275C15.8054 21.7809 15.8623 21.7442 15.9247 21.7196C16.1923 21.8653 16.4687 22.0068 16.7494 22.1438Z" fill="#060627"/>
<path d="M18.4573 25.3771C17.4195 26.5629 16.003 26.7348 14.4713 25.9537C14.1207 25.7854 13.807 25.5491 13.5484 25.2585C13.2899 24.968 13.0916 24.629 12.9651 24.2612C12.8386 23.8934 12.7863 23.5042 12.8115 23.1161C12.8366 22.728 12.9385 22.3487 13.1114 22.0003C13.5466 21.1561 14.2319 21.1126 15.0479 21.3845C14.9203 21.4043 14.7998 21.4563 14.6978 21.5354C14.5958 21.6146 14.5156 21.7184 14.4647 21.8371C14.0296 22.7074 14.4234 23.8541 15.4678 24.385C16.5122 24.9159 17.4608 24.8397 18.1288 24.1086C18.2422 24.0055 18.3232 23.8716 18.3619 23.7232C18.4005 23.5749 18.3951 23.4185 18.3464 23.2731C18.9317 23.8998 19.1188 24.6221 18.4573 25.3771Z" fill="white"/>
<path d="M25.4635 25.9537C23.9404 26.7348 22.5152 26.5629 21.4752 25.3771C20.8377 24.6504 20.9878 23.9541 21.5253 23.3471C21.4943 23.4835 21.4997 23.6256 21.5409 23.7593C21.5822 23.8929 21.6578 24.0134 21.7602 24.1086C22.4304 24.8397 23.3769 24.9158 24.4212 24.3849C25.4656 23.8541 25.8703 22.7139 25.4243 21.8371C25.3759 21.7228 25.3003 21.6222 25.2039 21.544C25.1075 21.4659 24.9934 21.4126 24.8716 21.3889C25.6919 21.1125 26.3947 21.1495 26.8299 22.0003C27.0022 22.3491 27.1036 22.7287 27.1281 23.1171C27.1526 23.5054 27.0998 23.8947 26.9727 24.2625C26.8456 24.6302 26.6467 24.9691 26.3876 25.2594C26.1286 25.5497 25.8144 25.7857 25.4635 25.9537V25.9537Z" fill="white"/>
<path d="M23.1397 22.1439C23.4182 22.0003 23.6967 21.8589 23.9643 21.7261C24.0271 21.7501 24.0843 21.7866 24.1326 21.8333C24.1808 21.8801 24.2191 21.9361 24.245 21.9981C24.3722 22.2284 24.4074 22.4984 24.3435 22.7536C24.2796 23.0088 24.1214 23.2303 23.9006 23.3735C23.6799 23.5167 23.4131 23.5709 23.154 23.5252C22.8949 23.4796 22.6628 23.3374 22.5043 23.1274C22.4352 23.0576 22.3869 22.9699 22.365 22.8742C22.3431 22.7784 22.3484 22.6785 22.3803 22.5856C22.6242 22.423 22.8778 22.2755 23.1397 22.1439V22.1439Z" fill="#CFF622"/>
<path d="M16.7494 22.1439C17.012 22.2743 17.267 22.4195 17.5131 22.579C17.5437 22.6724 17.5479 22.7724 17.5252 22.868C17.5026 22.9636 17.4539 23.0511 17.3847 23.1208C17.2262 23.3309 16.9941 23.473 16.735 23.5187C16.4759 23.5644 16.2091 23.5102 15.9884 23.367C15.7676 23.2238 15.6094 23.0023 15.5455 22.747C15.4816 22.4918 15.5168 22.2219 15.644 21.9916C15.6706 21.93 15.7091 21.8743 15.7572 21.8276C15.8054 21.7809 15.8623 21.7442 15.9247 21.7196C16.1923 21.8654 16.4687 22.0068 16.7494 22.1439Z" fill="#CFF622"/>
</svg>
