<svg width="40" height="40" viewBox="0 0 40 40" fill="none" xmlns="http://www.w3.org/2000/svg">
<path d="M19.0823 35.0412C18.5412 34.5397 17.9344 34.1141 17.2785 33.7761C16.5944 34.0672 15.8596 34.2206 15.1162 34.2276C13.3718 34.2276 11.8801 33.2987 11.0293 31.6751C10.3067 30.3079 9.48183 29.5908 9.04156 29.5908C8.99907 29.5906 8.95691 29.5982 8.91711 29.6131C8.47127 29.7859 8.20747 30.0255 7.99941 30.8484L7.64645 32.2547L6.65817 31.194C6.2234 30.7109 5.97855 30.0865 5.96898 29.4366C5.90582 28.0694 6.40367 26.9789 7.49227 26.1077C7.99436 25.6979 8.5588 25.3711 9.16418 25.1398C8.77019 24.9774 8.36625 24.8403 7.95483 24.7293C3.88838 23.5979 3.18618 21.1997 3.31064 19.394C3.35724 18.4986 3.69464 17.6429 4.27161 16.9567C4.84858 16.2704 5.63366 15.791 6.50771 15.5914C6.84139 15.5181 7.18224 15.4825 7.52386 15.4855C8.10194 15.4821 8.6765 15.5756 9.22363 15.7623C9.21249 15.3684 9.19204 14.9672 9.16046 14.5529L9.04528 13.0445L10.5463 13.1392C10.7878 13.1541 11.0256 13.1615 11.2522 13.1615H11.5141C11.4548 12.7074 11.4479 12.2481 11.4937 11.7924C11.6535 10.0313 13.1452 8.56006 14.5329 8.01762C15.3372 7.70367 15.5843 7.25225 15.7088 6.67266L16.0803 4.92273L17.1206 6.37915C17.1912 6.4776 17.8172 7.38415 17.7819 8.42259C17.7474 8.96926 17.6006 9.50296 17.3507 9.99038C17.1007 10.4778 16.753 10.9085 16.3292 11.2555C16.3549 11.342 16.3924 11.4246 16.4407 11.5008C17.3852 10.8483 18.2671 10.1095 19.0749 9.29384L19.9907 8.38915L20.9065 9.29384C21.7153 10.1097 22.5978 10.8491 23.5426 11.5026C23.5921 11.4262 23.6303 11.343 23.6559 11.2555C23.002 10.7242 22.2459 9.68209 22.2032 8.42259C22.1679 7.39158 22.7939 6.48503 22.8645 6.37915L23.9048 4.92273L24.2764 6.67266C24.4008 7.25225 24.6479 7.70367 25.4523 8.01762C26.84 8.56006 28.3298 10.0313 28.4914 11.7924C28.5372 12.2481 28.5304 12.7074 28.471 13.1615H28.7274C28.9559 13.1615 29.1936 13.1615 29.437 13.1392L30.938 13.0445L30.8209 14.5529C30.7887 14.9666 30.7677 15.3697 30.7578 15.7623C31.3062 15.5755 31.882 15.482 32.4613 15.4855C32.8029 15.4825 33.1438 15.5181 33.4774 15.5914C34.3529 15.7898 35.1397 16.2686 35.7184 16.9549C36.2971 17.6412 36.636 18.4976 36.6838 19.394C36.8101 21.2034 36.1079 23.5979 32.0396 24.7293C31.6281 24.84 31.2241 24.9771 30.8302 25.1398C31.4356 25.3711 32.0001 25.6979 32.5021 26.1077C33.5907 26.9789 34.0886 28.0694 34.0254 29.4366C34.0154 30.0864 33.7706 30.7106 33.3362 31.194L32.348 32.2528L31.995 30.8484C31.7869 30.0236 31.5231 29.7859 31.0773 29.6131C31.0375 29.5982 30.9953 29.5906 30.9529 29.5908C30.5126 29.5908 29.6878 30.3079 28.9651 31.6751C28.1087 33.2969 26.617 34.2276 24.8782 34.2276C24.1348 34.221 23.3999 34.0676 22.7159 33.7761C22.0592 34.1136 21.4517 34.5392 20.9103 35.0412L20 35.9273L19.0823 35.0412ZM30.7708 17.5791C30.7931 18.2218 30.834 18.833 30.8748 19.4163C31.2146 19.4096 31.5378 19.2687 31.7739 19.0243C31.8339 18.9561 31.8776 18.8752 31.9017 18.7877C31.9258 18.7002 31.9298 18.6083 31.9133 18.5191C31.8167 18.0119 31.1888 17.6645 30.7708 17.5809V17.5791ZM9.21062 17.5791C8.78707 17.6645 8.16846 18.0119 8.07186 18.5172C8.05535 18.6065 8.05932 18.6983 8.08345 18.7859C8.10758 18.8734 8.15125 18.9543 8.21119 19.0225C8.32758 19.1437 8.46675 19.2407 8.62073 19.3079C8.7747 19.3752 8.94046 19.4114 9.10846 19.4145C9.14933 18.8367 9.19018 18.233 9.21062 17.5828V17.5791Z" fill="#060627"/>
<path d="M23.5073 6.83238C23.6782 7.6349 24.0887 8.32781 25.1662 8.7495C26.2436 9.1712 27.5812 10.362 27.7075 11.8593C27.789 12.5386 27.7133 13.2275 27.4864 13.873C27.8987 13.9238 28.3138 13.9493 28.7292 13.9491C28.9726 13.9491 29.2289 13.9491 29.4871 13.925L30.0835 13.8878L30.037 14.4916C29.8773 16.5517 30.0054 18.3184 30.1169 19.8788C30.1169 19.9791 30.1299 20.0795 30.1373 20.1779C30.3121 20.2026 30.4884 20.215 30.6649 20.2151C32.151 20.2151 32.857 19.2454 32.6879 18.3723C32.5021 17.3673 31.3244 16.7728 30.598 16.7728H30.5739C30.912 16.4421 31.7238 16.2731 32.4631 16.2731C32.7435 16.2706 33.0232 16.2993 33.2972 16.3585C34.0097 16.5167 34.6503 16.9049 35.1203 17.4632C35.5903 18.0215 35.8636 18.7189 35.898 19.4479C36.0689 21.9 34.3375 23.2709 31.8297 23.9694C31.2402 24.1221 30.6677 24.3337 30.1206 24.601C30.0661 24.9694 29.9923 25.3346 29.8995 25.6952C30.677 25.8599 31.4022 26.2127 32.0117 26.7225C32.9406 27.4656 33.2917 28.3164 33.2415 29.3994C33.2388 29.8624 33.0693 30.3089 32.7641 30.6571C32.5375 29.7561 32.1808 29.1932 31.3653 28.8774C31.2347 28.8281 31.0962 28.8029 30.9566 28.8031C29.9943 28.8031 28.967 29.9902 28.2704 31.3073C27.5273 32.7247 26.2808 33.4399 24.8764 33.4399C24.1585 33.4295 23.4513 33.2641 22.8032 32.955L22.6843 32.8974C21.8357 33.3076 21.0515 33.8395 20.3567 34.4764L19.9982 34.8257L19.6396 34.4764C18.9458 33.8391 18.1622 33.3071 17.3138 32.8974L17.1968 32.955C16.5487 33.2641 15.8415 33.4295 15.1236 33.4399C13.7192 33.4399 12.4764 32.7247 11.7296 31.3073C11.033 29.9902 10.0057 28.8031 9.04343 28.8031C8.90383 28.8031 8.76539 28.8282 8.63475 28.8774C7.81923 29.1932 7.46255 29.7561 7.23591 30.6571C6.93067 30.3089 6.76118 29.8624 6.7585 29.3994C6.70834 28.3164 7.06501 27.4619 7.98642 26.7225C8.59598 26.2138 9.3203 25.8612 10.0967 25.6952C10.004 25.334 9.9302 24.9681 9.87566 24.5992C9.3292 24.3339 8.75802 24.123 8.17033 23.9694C5.66247 23.2709 3.93111 21.9 4.10201 19.4479C4.13644 18.7189 4.40974 18.0215 4.87973 17.4632C5.34973 16.9049 5.99033 16.5167 6.70276 16.3585C6.97677 16.2993 7.25652 16.2706 7.53685 16.2731C8.27992 16.2731 9.08802 16.4421 9.42612 16.7728H9.40197C8.67376 16.7728 7.50342 17.3673 7.31208 18.3723C7.14303 19.2454 7.84338 20.2151 9.33509 20.2151C9.51037 20.215 9.68541 20.2026 9.85895 20.1779C9.85895 20.0813 9.87381 19.9829 9.87938 19.8844C10.0463 18.0935 10.0737 16.2923 9.96113 14.4971L9.91469 13.8934L10.5091 13.9306C10.7674 13.9473 11.0219 13.9547 11.2652 13.9547C11.6826 13.9552 12.0995 13.9291 12.5136 13.8767C12.2866 13.2319 12.211 12.5435 12.2925 11.8648C12.4281 10.3675 13.7564 9.17491 14.8338 8.75508C15.9113 8.33524 16.32 7.64047 16.4927 6.83796C16.4927 6.83796 17.0351 7.59775 17.0091 8.38912C16.972 9.43684 16.2977 10.2858 15.8091 10.6666C15.3205 11.0474 15.562 11.824 16.2995 12.5243C17.5167 11.7668 18.6392 10.8669 19.6433 9.84367L20.0037 9.487L20.366 9.84367C21.3696 10.8675 22.4922 11.7674 23.7098 12.5243C24.4529 11.8202 24.7055 11.0512 24.2021 10.6666C23.6986 10.2821 23.0392 9.43684 23.002 8.38912C22.976 7.59775 23.5184 6.83796 23.5184 6.83796L23.5073 6.83238ZM24.3042 3L22.2236 5.91283C22.0806 6.11161 21.3728 7.17048 21.4156 8.4337C21.4156 8.51915 21.4156 8.60461 21.4323 8.6882L21.0979 8.35939L19.9833 7.26708L18.8687 8.36125L18.5399 8.68448C18.5399 8.60275 18.5529 8.51915 18.5547 8.4337C18.5993 7.17048 17.8897 6.11161 17.7467 5.91283L15.6809 3L14.9378 6.49986C14.8561 6.87139 14.7372 7.08317 14.2468 7.27451C12.6808 7.88569 10.903 9.53344 10.7172 11.7106C10.6968 11.9317 10.6875 12.1435 10.6856 12.3497H10.6039L10.0094 12.3125L8.1982 12.1992L8.33752 14.0067L8.38396 14.6105L8.3951 14.7516C8.1042 14.7164 7.8113 14.7003 7.51828 14.7034C7.1153 14.7003 6.7133 14.7433 6.32009 14.8315C5.28208 15.0691 4.34974 15.6384 3.66426 16.4533C2.97878 17.2681 2.57748 18.2842 2.52113 19.3475C2.45286 20.1034 2.55048 20.8651 2.80718 21.5794C3.06387 22.2936 3.47344 22.9432 4.00727 23.4827C4.78564 24.2722 5.86495 24.8946 7.21362 25.3404L6.99998 25.5039C6.39033 25.9648 5.90502 26.5702 5.58784 27.2655C5.27066 27.9608 5.1316 28.7242 5.18319 29.4867C5.20051 30.3235 5.51985 31.1258 6.0823 31.7457L8.05887 33.8634L8.76663 31.0546C8.87066 30.6403 8.95241 30.4973 9.06016 30.4304C9.30537 30.5846 9.82366 31.0899 10.3345 32.0578C11.3302 33.947 13.0764 35.03 15.1236 35.03C15.8388 35.0266 16.5481 34.9009 17.2209 34.6585C17.6977 34.9243 18.1405 35.2468 18.5399 35.6189L18.8965 35.9682L19.9982 37.0419L21.0997 35.9682L21.4583 35.6189C21.8576 35.2462 22.3004 34.9231 22.7772 34.6566C23.4505 34.8999 24.1605 35.0256 24.8764 35.0282C26.9198 35.0282 28.6698 33.9451 29.6655 32.0559C30.1763 31.088 30.6946 30.5828 30.9398 30.4286C31.0476 30.501 31.1256 30.6385 31.2334 31.0527L31.9411 33.8616L33.9158 31.7438C34.4801 31.1242 34.8003 30.3209 34.8168 29.483C34.893 27.8687 34.28 26.5293 33 25.502L32.7864 25.3385C34.1388 24.8964 35.2144 24.2741 35.9927 23.4809C36.5266 22.9414 36.9361 22.2918 37.1928 21.5775C37.4495 20.8633 37.5471 20.1016 37.4789 19.3457C37.4216 18.2822 37.0195 17.2664 36.3334 16.4519C35.6472 15.6374 34.7145 15.0686 33.6762 14.8315C33.283 14.7433 32.881 14.7003 32.478 14.7034C32.1891 14.7039 31.9006 14.7231 31.6142 14.7609C31.6142 14.7145 31.6142 14.6681 31.6142 14.6198L31.6606 14.016L31.7999 12.2085L29.9887 12.3218L29.3943 12.359H29.3162C29.3162 12.1528 29.3032 11.941 29.2847 11.7199C29.0859 9.54273 27.3099 7.89497 25.7458 7.2838C25.2554 7.09803 25.1365 6.88997 25.0547 6.50915L24.3117 3.00743L24.3042 3Z" fill="#060627"/>
<path d="M31.8222 23.9694C34.3301 23.271 36.0615 21.9 35.8906 19.4479C35.8561 18.7189 35.5829 18.0215 35.1129 17.4632C34.6429 16.9049 34.0022 16.5167 33.2898 16.3586C32.4669 16.1728 31.0439 16.3047 30.5665 16.7728C31.291 16.7598 32.4873 17.3561 32.6805 18.3723C32.8663 19.3438 31.982 20.4324 30.1299 20.1779C30.1299 20.0795 30.1151 19.9792 30.1095 19.8788C29.998 18.3184 29.8699 16.5518 30.0296 14.4916L30.0761 13.8878L29.4797 13.925C29.2215 13.9417 28.9652 13.9492 28.7218 13.9492C28.3064 13.9493 27.8913 13.9238 27.479 13.873C27.7059 13.2275 27.7816 12.5386 27.7001 11.8593C27.5645 10.362 26.2362 9.16935 25.1588 8.74952C24.0813 8.32968 23.6726 7.63491 23.4999 6.8324C23.4999 6.8324 22.9574 7.59219 22.9834 8.38356C23.0206 9.43129 23.6949 10.2802 24.1835 10.6611C24.6721 11.0419 24.4306 11.8203 23.6912 12.5187C22.4736 11.7619 21.351 10.8619 20.3474 9.83812L19.9852 9.48144L19.6248 9.83812C18.6207 10.8614 17.4981 11.7613 16.281 12.5187C15.5379 11.8128 15.2871 11.0456 15.7905 10.6611C16.294 10.2765 16.9534 9.43129 16.9906 8.38356C17.0166 7.59219 16.4741 6.8324 16.4741 6.8324C16.3032 7.63491 15.8927 8.32783 14.8153 8.74952C13.7378 9.17121 12.4003 10.362 12.2739 11.8593C12.1924 12.538 12.2681 13.2263 12.495 13.8711C12.081 13.9235 11.664 13.9496 11.2466 13.9492C11.0033 13.9492 10.7488 13.9492 10.4906 13.925L9.89613 13.8878L9.94257 14.4916C10.0551 16.2867 10.0278 18.0879 9.86082 19.8788C9.86082 19.9773 9.84782 20.0758 9.84039 20.1724C7.98272 20.425 7.1059 19.3364 7.29353 18.3667C7.47929 17.3506 8.68307 16.7542 9.40756 16.7672C8.93014 16.2991 7.50715 16.1579 6.6842 16.353C5.97177 16.5112 5.33115 16.8993 4.86116 17.4576C4.39116 18.0159 4.11789 18.7133 4.08346 19.4423C3.91255 21.8944 5.64391 23.2654 8.15177 23.9639C8.73947 24.1175 9.31064 24.3284 9.8571 24.5936C9.91164 24.9626 9.98544 25.3284 10.0782 25.6897C9.30174 25.8556 8.57742 26.2082 7.96786 26.7169C7.03903 27.46 6.68979 28.3108 6.73994 29.3939C6.74262 29.8569 6.91211 30.3034 7.21736 30.6515C7.44399 29.7505 7.80067 29.1877 8.61619 28.8719C9.68621 28.4594 10.916 29.8007 11.7111 31.3017C12.8127 33.3916 14.9936 33.9545 17.1782 32.9494L17.2952 32.8919C18.1436 33.3016 18.9272 33.8336 19.6211 34.4709L19.9796 34.8201L20.3381 34.4709C21.0329 33.834 21.8171 33.302 22.6658 32.8919L22.7847 32.9494C24.9693 33.9545 27.1502 33.3916 28.2518 31.3017C29.0469 29.797 30.2767 28.4594 31.3467 28.8719C32.1622 29.1877 32.5189 29.7505 32.7455 30.6515C33.0508 30.3034 33.2203 29.8569 33.2229 29.3939C33.2731 28.3108 32.9164 27.4563 31.9932 26.7169C31.3836 26.2071 30.6584 25.8544 29.881 25.6897C29.9737 25.329 30.0475 24.9638 30.102 24.5955C30.6529 24.3294 31.2292 24.1196 31.8222 23.9694Z" fill="#0FDB9B"/>
<path d="M11.7779 15.7102C11.8464 17.2068 11.8123 18.7064 11.6758 20.1984C11.5067 22.5093 11.373 24.3354 12.3464 26.4736C13.37 28.7307 15.2369 29.6316 17.0407 30.5122C18.0625 31.0063 19.1139 31.5172 19.9926 32.2658C20.8713 31.5228 21.9227 31.0063 22.9444 30.5122C24.7482 29.6354 26.6152 28.7307 27.6388 26.4736C28.6122 24.3354 28.4784 22.5093 28.3094 20.1984C28.1729 18.7064 28.1387 17.2068 28.2072 15.7102C28.1106 15.7102 28.0214 15.7102 27.9193 15.7102C25.051 15.7102 22.6621 14.6365 19.9926 12.1268C17.3231 14.6365 14.9341 15.7102 12.0659 15.7102C11.9767 15.7139 11.8745 15.7139 11.7779 15.7102Z" fill="white"/>
<path d="M20.052 25.8772C20.052 25.8772 19.138 27.3894 18.5863 28.2718C18.2241 28.2718 16.7584 28.3201 14.1892 28.2718C14.9769 26.886 16.3794 24.4747 17.7819 22.1266C16.5057 19.9661 15.2611 17.8391 14.4567 16.4533C17.089 16.3901 18.5547 16.4365 18.9318 16.4533C19.3034 17.0979 20.0464 18.3109 20.0464 18.3109C20.0464 18.3109 20.7245 17.1276 21.1332 16.4533C21.5047 16.4365 22.9779 16.3901 25.625 16.4533C24.8058 17.8391 23.5816 19.9661 22.2998 22.1266C23.6875 24.4747 25.0733 26.886 25.8777 28.2718C23.3401 28.3201 21.8428 28.2718 21.4806 28.2718C20.9344 27.4061 20.052 25.8772 20.052 25.8772Z" fill="#060627"/>
</svg>
